<svg width="5985" height="3839" xmlns="http://www.w3.org/2000/svg"><g fill="none" fill-rule="evenodd"><path fill="#CDD3DA" d="M200 689l200 388H0zm554 0l200 388H554z"/><path d="M493.5 509s74.877 141.031 110.597 210.158C666.211 839.364 787 1077 787 1077H200l184.906-357.842" fill="#64ACFF"/><path d="M384.906 719.158L493.5 509s74.877 141.031 110.597 210.158h-219.19z" fill="#DBE4F0"/><path d="M449.643 374.386v62.036a7.556 7.556 0 0 0 7.557 7.556h73.973a7.553 7.553 0 0 0 7.557-7.553v-62.04c0-58.744 46.27-64.66 46.27-116.15C585 206.741 544.706 165 495 165s-90 41.742-90 93.234c0 37.75 44.643 59.074 44.643 116.152z" fill="#F8E81C"/><path d="M449.643 374.386v76.319c0 5.133 3.384 9.295 7.557 9.295h73.973c4.173 0 7.557-4.157 7.557-9.291v-76.323h-89.087z" fill="#9B9B9B"/><path d="M213.993 282a5 5 0 0 0 0 10h61.014a5 5 0 0 0 0-10h-61.014zm86.006-197.639a5 5 0 0 0-7.07 7.071l43.143 43.144a5 5 0 0 0 7.071-7.07L300 84.36zM500.567 5.425a5 5 0 0 0-10 0V66.44a5 5 0 0 0 10 0V5.425zm197.639 86.007a5 5 0 0 0-7.071-7.07l-43.144 43.143a5 5 0 0 0 7.071 7.071l43.144-43.144zM777.142 292a5 5 0 0 0 0-10h-61.015a5 5 0 0 0 0 10h61.015z" fill="#F8E71C"/><path fill="#CDD3DA" d="M200 2070l200 388H0zm554 0l200 388H554z"/><path d="M493.5 1890s74.877 141.031 110.597 210.158C666.211 2220.364 787 2458 787 2458H200l184.906-357.842" fill="#64ACFF"/><path d="M384.906 2100.158L493.5 1890s74.877 141.031 110.597 210.158h-219.19z" fill="#DBE4F0"/><path d="M449.643 1752.386v62.036a7.556 7.556 0 0 0 7.557 7.556h73.973a7.553 7.553 0 0 0 7.557-7.553v-62.04c0-58.744 46.27-64.66 46.27-116.15 0-51.493-40.294-93.235-90-93.235s-90 41.742-90 93.234c0 37.75 44.643 59.074 44.643 116.152z" fill="#F8E81C"/><path d="M449.643 1752.386v76.319c0 5.133 3.384 9.295 7.557 9.295h73.973c4.173 0 7.557-4.157 7.557-9.291v-76.323h-89.087z" fill="#9B9B9B"/><path fill="#CDD3DA" d="M1598 2070l200 388h-400zm554 0l200 388h-400z"/><path d="M1891.5 1890s74.877 141.031 110.597 210.158C2064.211 2220.364 2185 2458 2185 2458h-587l184.906-357.842" fill="#64ACFF"/><path d="M1976.76 2116.9l-26.444-16.742-30.576 16.742-28.24-16.742-30.258 16.742-24.993-16.742-27.895 16.742-25.448-16.742L1891.5 1890s74.877 141.031 110.597 210.158l-25.337 16.742z" fill="#DBE4F0"/><path d="M1847.643 1752.386v62.036a7.556 7.556 0 0 0 7.557 7.556h73.973a7.553 7.553 0 0 0 7.557-7.553v-62.04c0-58.744 46.27-64.66 46.27-116.15 0-51.493-40.294-93.235-90-93.235s-90 41.742-90 93.234c0 37.75 44.643 59.074 44.643 116.152z" fill="#F8E81C"/><path d="M1847.643 1752.386v76.319c0 5.133 3.384 9.295 7.557 9.295h73.973c4.173 0 7.557-4.157 7.557-9.291v-76.323h-89.087z" fill="#9B9B9B"/><path fill="#DEDEDE" d="M4427 2070l200 388h-400zm554 0l200 388h-400z"/><path d="M4720.5 1890s74.877 141.031 110.597 210.158C4893.211 2220.364 5014 2458 5014 2458h-587l184.906-357.842" fill="#9B9B9B"/><path d="M4805.76 2116.9l-26.444-16.742-30.576 16.742-28.24-16.742-30.258 16.742-24.993-16.742-27.895 16.742-25.448-16.742L4720.5 1890s74.877 141.031 110.597 210.158l-25.337 16.742zm-129.117-364.514v62.036a7.556 7.556 0 0 0 7.557 7.556h73.973a7.553 7.553 0 0 0 7.557-7.553v-62.04c0-58.744 46.27-64.66 46.27-116.15 0-51.493-40.294-93.235-90-93.235s-90 41.742-90 93.234c0 37.75 44.643 59.074 44.643 116.152z" fill="#DEDEDE"/><path d="M4676.643 1752.386v76.319c0 5.133 3.384 9.295 7.557 9.295h73.973c4.173 0 7.557-4.157 7.557-9.291v-76.323h-89.087z" fill="#9B9B9B"/><text font-family="Arial" font-size="144" font-weight="313" letter-spacing="5" fill="#4A4A4A" transform="translate(4227 1375)"><tspan x="918.349" y="657.22">Apex Think</tspan></text><path d="M4442.993 1657a5 5 0 0 0 0 10h61.014a5 5 0 0 0 0-10h-61.014zm86.006-197.639a5 5 0 0 0-7.07 7.071l43.143 43.144a5 5 0 0 0 7.071-7.07L4529 1459.36zm200.568-78.936a5 5 0 0 0-10 0v61.015a5 5 0 0 0 10 0v-61.015zm197.639 86.007a5 5 0 0 0-7.071-7.07l-43.144 43.143a5 5 0 0 0 7.071 7.071l43.144-43.144zM5006.142 1667a5 5 0 0 0 0-10h-61.015a5 5 0 0 0 0 10h61.015z" fill="#DEDEDE"/><path d="M3289.5 1890s74.877 141.031 110.597 210.158C3462.211 2220.364 3583 2458 3583 2458h-587l184.906-357.842" fill="#64ACFF"/><path d="M3374.76 2116.9l-26.444-16.742-30.576 16.742-28.24-16.742-30.258 16.742-24.993-16.742-27.895 16.742-25.448-16.742L3289.5 1890s74.877 141.031 110.597 210.158l-25.337 16.742z" fill="#DBE4F0"/><path d="M3245.643 1752.386v62.036a7.556 7.556 0 0 0 7.557 7.556h73.973a7.553 7.553 0 0 0 7.557-7.553v-62.04c0-58.744 46.27-64.66 46.27-116.15 0-51.493-40.294-93.235-90-93.235s-90 41.742-90 93.234c0 37.75 44.643 59.074 44.643 116.152z" fill="#F8E81C"/><path d="M3245.643 1752.386v76.319c0 5.133 3.384 9.295 7.557 9.295h73.973c4.173 0 7.557-4.157 7.557-9.291v-76.323h-89.087z" fill="#9B9B9B"/><path d="M475.5 3271s74.877 141.031 110.597 210.158C648.211 3601.364 769 3839 769 3839H182l184.906-357.842" fill="#64ACFF"/><path d="M560.76 3497.9l-26.444-16.742-30.576 16.742-28.24-16.742-30.258 16.742-24.993-16.742-27.895 16.742-25.448-16.742L475.5 3271s74.877 141.031 110.597 210.158L560.76 3497.9z" fill="#DBE4F0"/><path d="M431.643 3133.386v62.036a7.556 7.556 0 0 0 7.557 7.556h73.973a7.553 7.553 0 0 0 7.557-7.553v-62.04c0-58.744 46.27-64.66 46.27-116.15 0-51.493-40.294-93.235-90-93.235s-90 41.742-90 93.234c0 37.75 44.643 59.074 44.643 116.152z" fill="#F8E81C"/><path d="M431.643 3133.386v76.319c0 5.133 3.384 9.295 7.557 9.295h73.973c4.173 0 7.557-4.157 7.557-9.291v-76.323h-89.087z" fill="#9B9B9B"/><text font-family="Arial" font-size="144" font-weight="313" letter-spacing="5" fill="#087AFF" transform="translate(182 2924)"><tspan x="551.605" y="495.22">Apex Think</tspan></text><path d="M4738.5 509s74.877 141.031 110.597 210.158C4911.211 839.364 5032 1077 5032 1077h-587l184.906-357.842" fill="#9B9B9B"/><path d="M4823.76 735.9l-26.444-16.742-30.576 16.742-28.24-16.742-30.258 16.742-24.993-16.742-27.895 16.742-25.448-16.742L4738.5 509s74.877 141.031 110.597 210.158L4823.76 735.9zm-129.117-364.514v62.036a7.556 7.556 0 0 0 7.557 7.556h73.973a7.553 7.553 0 0 0 7.557-7.553v-62.04c0-58.744 46.27-64.66 46.27-116.15 0-51.493-40.294-93.235-90-93.235s-90 41.742-90 93.234c0 37.75 44.643 59.074 44.643 116.152z" fill="#DEDEDE"/><path d="M4694.643 371.386v76.319c0 5.133 3.384 9.295 7.557 9.295h73.973c4.173 0 7.557-4.157 7.557-9.291v-76.323h-89.087z" fill="#9B9B9B"/><text font-family="Arial" font-size="144" font-weight="313" letter-spacing="5" fill="#4A4A4A" transform="translate(4445 162)"><tspan x="551.605" y="495.22">Apex Think</tspan></text><path d="M2385.5 3271s74.877 141.031 110.597 210.158C2558.211 3601.364 2679 3839 2679 3839h-587l184.906-357.842" fill="#64ACFF"/><path d="M2470.76 3497.9l-26.444-16.742-30.576 16.742-28.24-16.742-30.258 16.742-24.993-16.742-27.895 16.742-25.448-16.742L2385.5 3271s74.877 141.031 110.597 210.158l-25.337 16.742z" fill="#DBE4F0"/><path d="M2341.643 3133.386v62.036a7.556 7.556 0 0 0 7.557 7.556h73.973a7.553 7.553 0 0 0 7.557-7.553v-62.04c0-58.744 46.27-64.66 46.27-116.15 0-51.493-40.294-93.235-90-93.235s-90 41.742-90 93.234c0 37.75 44.643 59.074 44.643 116.152z" fill="#F8E81C"/><path d="M2341.643 3133.386v76.319c0 5.133 3.384 9.295 7.557 9.295h73.973c4.173 0 7.557-4.157 7.557-9.291v-76.323h-89.087z" fill="#9B9B9B"/><text font-family="Arial" font-size="144" font-weight="313" letter-spacing="5" fill="#005AC4" transform="translate(2092 2924)"><tspan x="540" y="384.72">Apex Think</tspan></text><path fill="#BFDCFF" d="M2996 689l200 388h-400zm554 0l200 388h-400z"/><path fill="#64ACFF" d="M3289.5 509l293.5 568h-587z"/><path d="M3244.643 373.386v62.036a7.556 7.556 0 0 0 7.557 7.556h73.973a7.553 7.553 0 0 0 7.557-7.553v-62.04c0-58.744 46.27-64.66 46.27-116.15 0-51.493-40.294-93.235-90-93.235s-90 41.742-90 93.234c0 37.75 44.643 59.074 44.643 116.152z" fill="#F8E81C"/><path d="M3244.643 373.386v76.319c0 5.133 3.384 9.295 7.557 9.295h73.973c4.173 0 7.557-4.157 7.557-9.291v-76.323h-89.087z" fill="#9B9B9B"/><path d="M3008.993 285a5 5 0 0 0 0 10h61.014a5 5 0 0 0 0-10h-61.014zm86.006-197.639a5 5 0 0 0-7.07 7.071l43.143 43.144a5 5 0 0 0 7.071-7.07L3095 87.36zm200.568-78.936a5 5 0 0 0-10 0V69.44a5 5 0 0 0 10 0V8.425zm197.639 86.007a5 5 0 0 0-7.071-7.07l-43.144 43.143a5 5 0 0 0 7.071 7.071l43.144-43.144zM3572.142 295a5 5 0 0 0 0-10h-61.015a5 5 0 0 0 0 10h61.015z" fill="#F8E71C"/><path fill="#BFDCFF" d="M4438 3442l200 388h-400zm554 0l200 388h-400z"/><path fill="#64ACFF" d="M4731.5 3262l293.5 568h-587z"/><path d="M4686.643 3126.386v62.036a7.556 7.556 0 0 0 7.557 7.556h73.973a7.553 7.553 0 0 0 7.557-7.553v-62.04c0-58.744 46.27-64.66 46.27-116.15 0-51.493-40.294-93.235-90-93.235s-90 41.742-90 93.234c0 37.75 44.643 59.074 44.643 116.152z" fill="#F8E81C"/><path d="M4686.643 3126.386v76.319c0 5.133 3.384 9.295 7.557 9.295h73.973c4.173 0 7.557-4.157 7.557-9.291v-76.323h-89.087z" fill="#9B9B9B"/><path d="M4450.993 3038a5 5 0 0 0 0 10h61.014a5 5 0 0 0 0-10h-61.014zm86.006-197.639a5 5 0 0 0-7.07 7.071l43.143 43.144a5 5 0 0 0 7.071-7.07L4537 2840.36zm200.568-78.936a5 5 0 0 0-10 0v61.015a5 5 0 0 0 10 0v-61.015zm197.639 86.007a5 5 0 0 0-7.071-7.07l-43.144 43.143a5 5 0 0 0 7.071 7.071l43.144-43.144zM5014.142 3048a5 5 0 0 0 0-10h-61.015a5 5 0 0 0 0 10h61.015z" fill="#F8E71C"/><path d="M4816.76 3488.9l-26.444-16.742-30.576 16.742-28.24-16.742-30.258 16.742-24.993-16.742-27.895 16.742-25.448-16.742L4731.5 3262s74.877 141.031 110.597 210.158l-25.337 16.742z" fill="#DBE4F0"/><text font-family="Arial" font-size="144" font-weight="313" letter-spacing="5" fill="#005AC4" transform="translate(4238 2756)"><tspan x="880.329" y="543.72">Apex Think</tspan></text><path fill="#BFDCFF" d="M1598 689l200 388h-400zm554 0l200 388h-400z"/><path fill="#9DCBFF" d="M1891.5 509l293.5 568h-587z"/><path d="M1845.643 371.386v62.036a7.556 7.556 0 0 0 7.557 7.556h73.973a7.553 7.553 0 0 0 7.557-7.553v-62.04c0-58.744 46.27-64.66 46.27-116.15 0-51.493-40.294-93.235-90-93.235s-90 41.742-90 93.234c0 37.75 44.643 59.074 44.643 116.152z" fill="#F8E81C"/><path d="M1845.643 371.386v76.319c0 5.133 3.384 9.295 7.557 9.295h73.973c4.173 0 7.557-4.157 7.557-9.291v-76.323h-89.087z" fill="#9B9B9B"/><path fill="#CDD3DA" d="M1598 689l200 388h-400zm554 0l200 388h-400z"/><path fill="#64ACFF" d="M1891.5 509l293.5 568h-587z"/><path d="M1846.643 371.386v62.036a7.556 7.556 0 0 0 7.557 7.556h73.973a7.553 7.553 0 0 0 7.557-7.553v-62.04c0-58.744 46.27-64.66 46.27-116.15 0-51.493-40.294-93.235-90-93.235s-90 41.742-90 93.234c0 37.75 44.643 59.074 44.643 116.152z" fill="#F8E81C"/><path d="M1846.643 371.386v76.319c0 5.133 3.384 9.295 7.557 9.295h73.973c4.173 0 7.557-4.157 7.557-9.291v-76.323h-89.087z" fill="#9B9B9B"/></g></svg>