<?xml version="1.0" encoding="UTF-8" standalone="no"?>
<svg width="5985px" height="3839px" viewBox="0 0 5985 3839" version="1.1" xmlns="http://www.w3.org/2000/svg" xmlns:xlink="http://www.w3.org/1999/xlink" xmlns:sketch="http://www.bohemiancoding.com/sketch/ns">
    <!-- Generator: Sketch 3.2.2 (9983) - http://www.bohemiancoding.com/sketch -->
    <title>apex think</title>
    <desc>Created with Sketch.</desc>
    <defs></defs>
    <g id="Page-1" stroke="none" stroke-width="1" fill="none" fill-rule="evenodd" sketch:type="MSPage">
        <g id="apex-think" sketch:type="MSLayerGroup">
            <g id="1" sketch:type="MSShapeGroup">
                <polygon id="Triangle-2" fill="#CDD3DA" points="200 689 400 1077 0 1077 "></polygon>
                <polygon id="Triangle-3" fill="#CDD3DA" points="754 689 954 1077 554 1077 "></polygon>
                <path d="M493.5,509 C493.5,509 568.377407,650.030978 604.097015,719.157852 C666.21074,839.364311 787,1077 787,1077 L200,1077 L384.906111,719.15785" id="Triangle-1" fill="#64ACFF"></path>
                <path d="M384.906111,719.15785 L493.5,509 C493.5,509 568.377407,650.030978 604.097015,719.157852 L384.906111,719.15785 Z" id="Triangle-4" fill="#DBE4F0"></path>
                <g id="lightbulb" transform="translate(405.000000, 165.000000)">
                    <path d="M44.643439,209.385696 L44.643439,271.421886 C44.643439,275.594808 48.0269476,278.977631 52.2004655,278.977631 L126.172812,278.977631 C130.346443,278.977631 133.729839,275.598346 133.729839,271.42544 L133.729839,209.385704 C133.729839,150.640839 180,144.725872 180,93.2341 C180,41.7423284 139.705627,0 90,0 C40.2943725,0 0,41.7423284 0,93.2341 C0,130.983154 44.643439,152.30751 44.643439,209.385696 Z" id="Oval-1" fill="#F8E81C"></path>
                    <path d="M44.643439,209.385696 L44.643439,285.704673 C44.643439,290.83834 48.0269476,295 52.2004655,295 L126.172812,295 C130.346443,295 133.729839,290.842692 133.729839,285.709045 L133.729839,209.385705 L44.643439,209.385696 Z" id="Oval-2" fill="#9B9B9B"></path>
                </g>
                <path d="M213.992582,282 C211.235255,282 209,284.244195 209,287 C209,289.761424 211.242154,292 213.992582,292 L275.007418,292 C277.764745,292 280,289.755805 280,287 C280,284.238576 277.757846,282 275.007418,282 L213.992582,282 Z M299.999411,84.3611476 C298.049686,82.411423 294.882237,82.4177446 292.933588,84.3663928 C290.980967,86.3190143 290.983497,89.4873691 292.928343,91.4322154 L336.072347,134.57622 C338.022072,136.525944 341.189521,136.519623 343.13817,134.570974 C345.090791,132.618353 345.088261,129.449998 343.143415,127.505152 L299.999411,84.3611476 Z M500.567195,5.42538665 C500.567195,2.66805968 498.323,0.43280452 495.567195,0.43280452 C492.805772,0.43280452 490.567195,2.67495855 490.567195,5.42538665 L490.567195,66.4402224 C490.567195,69.1975494 492.811391,71.4328045 495.567195,71.4328045 C498.328619,71.4328045 500.567195,69.1906505 500.567195,66.4402224 L500.567195,5.42538665 Z M698.206048,91.4322153 C700.155772,89.4824907 700.149451,86.315041 698.200803,84.3663927 C696.248181,82.4137713 693.079826,82.4163011 691.13498,84.3611475 L647.990976,127.505152 C646.041251,129.454876 646.047573,132.622326 647.996221,134.570974 C649.948843,136.523596 653.117197,136.521066 655.062044,134.576219 L698.206048,91.4322153 Z M777.141809,292 C779.899136,292 782.134391,289.755805 782.134391,287 C782.134391,284.238576 779.892237,282 777.141809,282 L716.126973,282 C713.369646,282 711.134391,284.244195 711.134391,287 C711.134391,289.761424 713.376545,292 716.126973,292 L777.141809,292 Z" id="rays" fill="#F8E71C"></path>
            </g>
            <g id="5" transform="translate(0.000000, 1543.000000)" sketch:type="MSShapeGroup">
                <polygon id="Triangle-2" fill="#CDD3DA" points="200 527 400 915 0 915 "></polygon>
                <polygon id="Triangle-3" fill="#CDD3DA" points="754 527 954 915 554 915 "></polygon>
                <path d="M493.5,347 C493.5,347 568.377407,488.030978 604.097015,557.157852 C666.21074,677.364311 787,915 787,915 L200,915 L384.906111,557.15785" id="Triangle-1" fill="#64ACFF"></path>
                <path d="M384.906111,557.15785 L493.5,347 C493.5,347 568.377407,488.030978 604.097015,557.157852 L384.906111,557.15785 Z" id="Triangle-4" fill="#DBE4F0"></path>
                <g id="lightbulb" transform="translate(405.000000, 0.000000)">
                    <path d="M44.643439,209.385696 L44.643439,271.421886 C44.643439,275.594808 48.0269476,278.977631 52.2004655,278.977631 L126.172812,278.977631 C130.346443,278.977631 133.729839,275.598346 133.729839,271.42544 L133.729839,209.385704 C133.729839,150.640839 180,144.725872 180,93.2341 C180,41.7423284 139.705627,0 90,0 C40.2943725,0 0,41.7423284 0,93.2341 C0,130.983154 44.643439,152.30751 44.643439,209.385696 Z" id="Oval-1" fill="#F8E81C"></path>
                    <path d="M44.643439,209.385696 L44.643439,285.704673 C44.643439,290.83834 48.0269476,295 52.2004655,295 L126.172812,295 C130.346443,295 133.729839,290.842692 133.729839,285.709045 L133.729839,209.385705 L44.643439,209.385696 Z" id="Oval-2" fill="#9B9B9B"></path>
                </g>
            </g>
            <g id="7" transform="translate(1398.000000, 1543.000000)" sketch:type="MSShapeGroup">
                <polygon id="Triangle-2" fill="#CDD3DA" points="200 527 400 915 0 915 "></polygon>
                <polygon id="Triangle-3" fill="#CDD3DA" points="754 527 954 915 554 915 "></polygon>
                <path d="M493.5,347 C493.5,347 568.377407,488.030978 604.097015,557.157852 C666.21074,677.364311 787,915 787,915 L200,915 L384.906111,557.15785" id="Triangle-1" fill="#64ACFF"></path>
                <path d="M578.76013,573.899948 L552.316176,557.157852 L521.74037,573.899948 L493.499998,557.157852 L463.241819,573.899948 L438.249453,557.157852 L410.353918,573.899948 L384.906111,557.15785 L493.5,347 C493.5,347 568.377407,488.030978 604.097015,557.157852 L578.76013,573.899948 Z" id="Triangle-4" fill="#DBE4F0"></path>
                <g id="lightbulb" transform="translate(405.000000, 0.000000)">
                    <path d="M44.643439,209.385696 L44.643439,271.421886 C44.643439,275.594808 48.0269476,278.977631 52.2004655,278.977631 L126.172812,278.977631 C130.346443,278.977631 133.729839,275.598346 133.729839,271.42544 L133.729839,209.385704 C133.729839,150.640839 180,144.725872 180,93.2341 C180,41.7423284 139.705627,0 90,0 C40.2943725,0 0,41.7423284 0,93.2341 C0,130.983154 44.643439,152.30751 44.643439,209.385696 Z" id="Oval-1" fill="#F8E81C"></path>
                    <path d="M44.643439,209.385696 L44.643439,285.704673 C44.643439,290.83834 48.0269476,295 52.2004655,295 L126.172812,295 C130.346443,295 133.729839,290.842692 133.729839,285.709045 L133.729839,209.385705 L44.643439,209.385696 Z" id="Oval-2" fill="#9B9B9B"></path>
                </g>
            </g>
            <g id="12" transform="translate(4227.000000, 1375.000000)">
                <polygon id="Triangle-2" fill="#DEDEDE" sketch:type="MSShapeGroup" points="200 695 400 1083 0 1083 "></polygon>
                <polygon id="Triangle-3" fill="#DEDEDE" sketch:type="MSShapeGroup" points="754 695 954 1083 554 1083 "></polygon>
                <path d="M493.5,515 C493.5,515 568.377407,656.030978 604.097015,725.157852 C666.21074,845.364311 787,1083 787,1083 L200,1083 L384.906111,725.15785" id="Triangle-1" fill="#9B9B9B" sketch:type="MSShapeGroup"></path>
                <path d="M578.76013,741.899948 L552.316176,725.157852 L521.74037,741.899948 L493.499998,725.157852 L463.241819,741.899948 L438.249453,725.157852 L410.353918,741.899948 L384.906111,725.15785 L493.5,515 C493.5,515 568.377407,656.030978 604.097015,725.157852 L578.76013,741.899948 Z" id="Triangle-4" fill="#DEDEDE" sketch:type="MSShapeGroup"></path>
                <g id="lightbulb" transform="translate(405.000000, 168.000000)" sketch:type="MSShapeGroup">
                    <path d="M44.643439,209.385696 L44.643439,271.421886 C44.643439,275.594808 48.0269476,278.977631 52.2004655,278.977631 L126.172812,278.977631 C130.346443,278.977631 133.729839,275.598346 133.729839,271.42544 L133.729839,209.385704 C133.729839,150.640839 180,144.725872 180,93.2341 C180,41.7423284 139.705627,0 90,0 C40.2943725,0 0,41.7423284 0,93.2341 C0,130.983154 44.643439,152.30751 44.643439,209.385696 Z" id="Oval-1" fill="#DEDEDE"></path>
                    <path d="M44.643439,209.385696 L44.643439,285.704673 C44.643439,290.83834 48.0269476,295 52.2004655,295 L126.172812,295 C130.346443,295 133.729839,290.842692 133.729839,285.709045 L133.729839,209.385705 L44.643439,209.385696 Z" id="Oval-2" fill="#9B9B9B"></path>
                </g>
                <text id="Apex-Think" sketch:type="MSTextLayer" font-family="Arial" font-size="144" font-weight="313" letter-spacing="5" fill="#4A4A4A">
                    <tspan x="918.34933" y="657.219819">Apex Think</tspan>
                </text>
                <path d="M215.992582,282 C213.235255,282 211,284.244195 211,287 C211,289.761424 213.242154,292 215.992582,292 L277.007418,292 C279.764745,292 282,289.755805 282,287 C282,284.238576 279.757846,282 277.007418,282 L215.992582,282 Z M301.999411,84.3611476 C300.049686,82.411423 296.882237,82.4177446 294.933588,84.3663928 C292.980967,86.3190143 292.983497,89.4873691 294.928343,91.4322154 L338.072347,134.57622 C340.022072,136.525944 343.189521,136.519623 345.13817,134.570974 C347.090791,132.618353 347.088261,129.449998 345.143415,127.505152 L301.999411,84.3611476 Z M502.567195,5.42538665 C502.567195,2.66805968 500.323,0.43280452 497.567195,0.43280452 C494.805772,0.43280452 492.567195,2.67495855 492.567195,5.42538665 L492.567195,66.4402224 C492.567195,69.1975494 494.811391,71.4328045 497.567195,71.4328045 C500.328619,71.4328045 502.567195,69.1906505 502.567195,66.4402224 L502.567195,5.42538665 Z M700.206048,91.4322153 C702.155772,89.4824907 702.149451,86.315041 700.200803,84.3663927 C698.248181,82.4137713 695.079826,82.4163011 693.13498,84.3611475 L649.990976,127.505152 C648.041251,129.454876 648.047573,132.622326 649.996221,134.570974 C651.948843,136.523596 655.117197,136.521066 657.062044,134.576219 L700.206048,91.4322153 Z M779.141809,292 C781.899136,292 784.134391,289.755805 784.134391,287 C784.134391,284.238576 781.892237,282 779.141809,282 L718.126973,282 C715.369646,282 713.134391,284.244195 713.134391,287 C713.134391,289.761424 715.376545,292 718.126973,292 L779.141809,292 Z" id="rays" fill="#DEDEDE" sketch:type="MSShapeGroup"></path>
            </g>
            <g id="8" transform="translate(2996.000000, 1543.000000)" sketch:type="MSShapeGroup">
                <g id="Triangle-1-+-Triangle-4" transform="translate(0.000000, 347.000000)">
                    <path d="M293.5,0 C293.5,0 368.377407,141.030978 404.097015,210.157852 C466.21074,330.364311 587,568 587,568 L0,568 L184.906111,210.15785" id="Triangle-1" fill="#64ACFF"></path>
                    <path d="M378.76013,226.899948 L352.316176,210.157852 L321.74037,226.899948 L293.499998,210.157852 L263.241819,226.899948 L238.249453,210.157852 L210.353918,226.899948 L184.906111,210.15785 L293.5,0 C293.5,0 368.377407,141.030978 404.097015,210.157852 L378.76013,226.899948 Z" id="Triangle-4" fill="#DBE4F0"></path>
                </g>
                <g id="lightbulb" transform="translate(205.000000, 0.000000)">
                    <path d="M44.643439,209.385696 L44.643439,271.421886 C44.643439,275.594808 48.0269476,278.977631 52.2004655,278.977631 L126.172812,278.977631 C130.346443,278.977631 133.729839,275.598346 133.729839,271.42544 L133.729839,209.385704 C133.729839,150.640839 180,144.725872 180,93.2341 C180,41.7423284 139.705627,0 90,0 C40.2943725,0 0,41.7423284 0,93.2341 C0,130.983154 44.643439,152.30751 44.643439,209.385696 Z" id="Oval-1" fill="#F8E81C"></path>
                    <path d="M44.643439,209.385696 L44.643439,285.704673 C44.643439,290.83834 48.0269476,295 52.2004655,295 L126.172812,295 C130.346443,295 133.729839,290.842692 133.729839,285.709045 L133.729839,209.385705 L44.643439,209.385696 Z" id="Oval-2" fill="#9B9B9B"></path>
                </g>
            </g>
            <g id="9" transform="translate(182.000000, 2924.000000)">
                <g id="Triangle-1-+-Triangle-4" transform="translate(0.000000, 347.000000)" sketch:type="MSShapeGroup">
                    <path d="M293.5,0 C293.5,0 368.377407,141.030978 404.097015,210.157852 C466.21074,330.364311 587,568 587,568 L0,568 L184.906111,210.15785" id="Triangle-1" fill="#64ACFF"></path>
                    <path d="M378.76013,226.899948 L352.316176,210.157852 L321.74037,226.899948 L293.499998,210.157852 L263.241819,226.899948 L238.249453,210.157852 L210.353918,226.899948 L184.906111,210.15785 L293.5,0 C293.5,0 368.377407,141.030978 404.097015,210.157852 L378.76013,226.899948 Z" id="Triangle-4" fill="#DBE4F0"></path>
                </g>
                <g id="lightbulb" transform="translate(205.000000, 0.000000)" sketch:type="MSShapeGroup">
                    <path d="M44.643439,209.385696 L44.643439,271.421886 C44.643439,275.594808 48.0269476,278.977631 52.2004655,278.977631 L126.172812,278.977631 C130.346443,278.977631 133.729839,275.598346 133.729839,271.42544 L133.729839,209.385704 C133.729839,150.640839 180,144.725872 180,93.2341 C180,41.7423284 139.705627,0 90,0 C40.2943725,0 0,41.7423284 0,93.2341 C0,130.983154 44.643439,152.30751 44.643439,209.385696 Z" id="Oval-1" fill="#F8E81C"></path>
                    <path d="M44.643439,209.385696 L44.643439,285.704673 C44.643439,290.83834 48.0269476,295 52.2004655,295 L126.172812,295 C130.346443,295 133.729839,290.842692 133.729839,285.709045 L133.729839,209.385705 L44.643439,209.385696 Z" id="Oval-2" fill="#9B9B9B"></path>
                </g>
                <text id="Apex-Think" sketch:type="MSTextLayer" font-family="Arial" font-size="144" font-weight="313" letter-spacing="5" fill="#087AFF">
                    <tspan x="551.605153" y="495.219819">Apex Think</tspan>
                </text>
            </g>
            <g id="11" transform="translate(4445.000000, 162.000000)">
                <g id="Triangle-1-+-Triangle-4" transform="translate(0.000000, 347.000000)" sketch:type="MSShapeGroup">
                    <path d="M293.5,0 C293.5,0 368.377407,141.030978 404.097015,210.157852 C466.21074,330.364311 587,568 587,568 L0,568 L184.906111,210.15785" id="Triangle-1" fill="#9B9B9B"></path>
                    <path d="M378.76013,226.899948 L352.316176,210.157852 L321.74037,226.899948 L293.499998,210.157852 L263.241819,226.899948 L238.249453,210.157852 L210.353918,226.899948 L184.906111,210.15785 L293.5,0 C293.5,0 368.377407,141.030978 404.097015,210.157852 L378.76013,226.899948 Z" id="Triangle-4" fill="#DEDEDE"></path>
                </g>
                <g id="lightbulb" transform="translate(205.000000, 0.000000)" sketch:type="MSShapeGroup">
                    <path d="M44.643439,209.385696 L44.643439,271.421886 C44.643439,275.594808 48.0269476,278.977631 52.2004655,278.977631 L126.172812,278.977631 C130.346443,278.977631 133.729839,275.598346 133.729839,271.42544 L133.729839,209.385704 C133.729839,150.640839 180,144.725872 180,93.2341 C180,41.7423284 139.705627,0 90,0 C40.2943725,0 0,41.7423284 0,93.2341 C0,130.983154 44.643439,152.30751 44.643439,209.385696 Z" id="Oval-1" fill="#DEDEDE"></path>
                    <path d="M44.643439,209.385696 L44.643439,285.704673 C44.643439,290.83834 48.0269476,295 52.2004655,295 L126.172812,295 C130.346443,295 133.729839,290.842692 133.729839,285.709045 L133.729839,209.385705 L44.643439,209.385696 Z" id="Oval-2" fill="#9B9B9B"></path>
                </g>
                <text id="Apex-Think-2" sketch:type="MSTextLayer" font-family="Arial" font-size="144" font-weight="313" letter-spacing="5" fill="#4A4A4A">
                    <tspan x="551.605153" y="495.219819">Apex Think</tspan>
                </text>
            </g>
            <g id="10" transform="translate(2092.000000, 2924.000000)">
                <g id="Triangle-1-+-Triangle-4" transform="translate(0.000000, 347.000000)" sketch:type="MSShapeGroup">
                    <path d="M293.5,0 C293.5,0 368.377407,141.030978 404.097015,210.157852 C466.21074,330.364311 587,568 587,568 L0,568 L184.906111,210.15785" id="Triangle-1" fill="#64ACFF"></path>
                    <path d="M378.76013,226.899948 L352.316176,210.157852 L321.74037,226.899948 L293.499998,210.157852 L263.241819,226.899948 L238.249453,210.157852 L210.353918,226.899948 L184.906111,210.15785 L293.5,0 C293.5,0 368.377407,141.030978 404.097015,210.157852 L378.76013,226.899948 Z" id="Triangle-4" fill="#DBE4F0"></path>
                </g>
                <g id="lightbulb" transform="translate(205.000000, 0.000000)" sketch:type="MSShapeGroup">
                    <path d="M44.643439,209.385696 L44.643439,271.421886 C44.643439,275.594808 48.0269476,278.977631 52.2004655,278.977631 L126.172812,278.977631 C130.346443,278.977631 133.729839,275.598346 133.729839,271.42544 L133.729839,209.385704 C133.729839,150.640839 180,144.725872 180,93.2341 C180,41.7423284 139.705627,0 90,0 C40.2943725,0 0,41.7423284 0,93.2341 C0,130.983154 44.643439,152.30751 44.643439,209.385696 Z" id="Oval-1" fill="#F8E81C"></path>
                    <path d="M44.643439,209.385696 L44.643439,285.704673 C44.643439,290.83834 48.0269476,295 52.2004655,295 L126.172812,295 C130.346443,295 133.729839,290.842692 133.729839,285.709045 L133.729839,209.385705 L44.643439,209.385696 Z" id="Oval-2" fill="#9B9B9B"></path>
                </g>
                <text id="Apex-Think" sketch:type="MSTextLayer" font-family="Arial" font-size="144" font-weight="313" letter-spacing="5" fill="#005AC4">
                    <tspan x="540" y="384.719819">Apex Think</tspan>
                </text>
            </g>
            <g id="3" transform="translate(2796.000000, 3.000000)" sketch:type="MSShapeGroup">
                <polygon id="Triangle-2" fill="#BFDCFF" points="200 686 400 1074 0 1074 "></polygon>
                <polygon id="Triangle-3" fill="#BFDCFF" points="754 686 954 1074 554 1074 "></polygon>
                <polygon id="Triangle-1" fill="#64ACFF" points="493.5 506 787 1074 200 1074 "></polygon>
                <g id="lightbulb" transform="translate(404.000000, 161.000000)">
                    <path d="M44.643439,209.385696 L44.643439,271.421886 C44.643439,275.594808 48.0269476,278.977631 52.2004655,278.977631 L126.172812,278.977631 C130.346443,278.977631 133.729839,275.598346 133.729839,271.42544 L133.729839,209.385704 C133.729839,150.640839 180,144.725872 180,93.2341 C180,41.7423284 139.705627,0 90,0 C40.2943725,0 0,41.7423284 0,93.2341 C0,130.983154 44.643439,152.30751 44.643439,209.385696 Z" id="Oval-1" fill="#F8E81C"></path>
                    <path d="M44.643439,209.385696 L44.643439,285.704673 C44.643439,290.83834 48.0269476,295 52.2004655,295 L126.172812,295 C130.346443,295 133.729839,290.842692 133.729839,285.709045 L133.729839,209.385705 L44.643439,209.385696 Z" id="Oval-2" fill="#9B9B9B"></path>
                </g>
                <path d="M212.992582,282 C210.235255,282 208,284.244195 208,287 C208,289.761424 210.242154,292 212.992582,292 L274.007418,292 C276.764745,292 279,289.755805 279,287 C279,284.238576 276.757846,282 274.007418,282 L212.992582,282 Z M298.999411,84.3611476 C297.049686,82.411423 293.882237,82.4177446 291.933588,84.3663928 C289.980967,86.3190143 289.983497,89.4873691 291.928343,91.4322154 L335.072347,134.57622 C337.022072,136.525944 340.189521,136.519623 342.13817,134.570974 C344.090791,132.618353 344.088261,129.449998 342.143415,127.505152 L298.999411,84.3611476 Z M499.567195,5.42538665 C499.567195,2.66805968 497.323,0.43280452 494.567195,0.43280452 C491.805772,0.43280452 489.567195,2.67495855 489.567195,5.42538665 L489.567195,66.4402224 C489.567195,69.1975494 491.811391,71.4328045 494.567195,71.4328045 C497.328619,71.4328045 499.567195,69.1906505 499.567195,66.4402224 L499.567195,5.42538665 Z M697.206048,91.4322153 C699.155772,89.4824907 699.149451,86.315041 697.200803,84.3663927 C695.248181,82.4137713 692.079826,82.4163011 690.13498,84.3611475 L646.990976,127.505152 C645.041251,129.454876 645.047573,132.622326 646.996221,134.570974 C648.948843,136.523596 652.117197,136.521066 654.062044,134.576219 L697.206048,91.4322153 Z M776.141809,292 C778.899136,292 781.134391,289.755805 781.134391,287 C781.134391,284.238576 778.892237,282 776.141809,282 L715.126973,282 C712.369646,282 710.134391,284.244195 710.134391,287 C710.134391,289.761424 712.376545,292 715.126973,292 L776.141809,292 Z" id="rays-2" fill="#F8E71C"></path>
            </g>
            <g id="6" transform="translate(4238.000000, 2756.000000)">
                <polygon id="Triangle-2" fill="#BFDCFF" sketch:type="MSShapeGroup" points="200 686 400 1074 0 1074 "></polygon>
                <polygon id="Triangle-3" fill="#BFDCFF" sketch:type="MSShapeGroup" points="754 686 954 1074 554 1074 "></polygon>
                <polygon id="Triangle-1" fill="#64ACFF" sketch:type="MSShapeGroup" points="493.5 506 787 1074 200 1074 "></polygon>
                <g id="lightbulb" transform="translate(404.000000, 161.000000)" sketch:type="MSShapeGroup">
                    <path d="M44.643439,209.385696 L44.643439,271.421886 C44.643439,275.594808 48.0269476,278.977631 52.2004655,278.977631 L126.172812,278.977631 C130.346443,278.977631 133.729839,275.598346 133.729839,271.42544 L133.729839,209.385704 C133.729839,150.640839 180,144.725872 180,93.2341 C180,41.7423284 139.705627,0 90,0 C40.2943725,0 0,41.7423284 0,93.2341 C0,130.983154 44.643439,152.30751 44.643439,209.385696 Z" id="Oval-1" fill="#F8E81C"></path>
                    <path d="M44.643439,209.385696 L44.643439,285.704673 C44.643439,290.83834 48.0269476,295 52.2004655,295 L126.172812,295 C130.346443,295 133.729839,290.842692 133.729839,285.709045 L133.729839,209.385705 L44.643439,209.385696 Z" id="Oval-2" fill="#9B9B9B"></path>
                </g>
                <path d="M212.992582,282 C210.235255,282 208,284.244195 208,287 C208,289.761424 210.242154,292 212.992582,292 L274.007418,292 C276.764745,292 279,289.755805 279,287 C279,284.238576 276.757846,282 274.007418,282 L212.992582,282 Z M298.999411,84.3611476 C297.049686,82.411423 293.882237,82.4177446 291.933588,84.3663928 C289.980967,86.3190143 289.983497,89.4873691 291.928343,91.4322154 L335.072347,134.57622 C337.022072,136.525944 340.189521,136.519623 342.13817,134.570974 C344.090791,132.618353 344.088261,129.449998 342.143415,127.505152 L298.999411,84.3611476 Z M499.567195,5.42538665 C499.567195,2.66805968 497.323,0.43280452 494.567195,0.43280452 C491.805772,0.43280452 489.567195,2.67495855 489.567195,5.42538665 L489.567195,66.4402224 C489.567195,69.1975494 491.811391,71.4328045 494.567195,71.4328045 C497.328619,71.4328045 499.567195,69.1906505 499.567195,66.4402224 L499.567195,5.42538665 Z M697.206048,91.4322153 C699.155772,89.4824907 699.149451,86.315041 697.200803,84.3663927 C695.248181,82.4137713 692.079826,82.4163011 690.13498,84.3611475 L646.990976,127.505152 C645.041251,129.454876 645.047573,132.622326 646.996221,134.570974 C648.948843,136.523596 652.117197,136.521066 654.062044,134.576219 L697.206048,91.4322153 Z M776.141809,292 C778.899136,292 781.134391,289.755805 781.134391,287 C781.134391,284.238576 778.892237,282 776.141809,282 L715.126973,282 C712.369646,282 710.134391,284.244195 710.134391,287 C710.134391,289.761424 712.376545,292 715.126973,292 L776.141809,292 Z" id="rays-2" fill="#F8E71C" sketch:type="MSShapeGroup"></path>
                <path d="M578.76013,732.899948 L552.316176,716.157852 L521.74037,732.899948 L493.499998,716.157852 L463.241819,732.899948 L438.249453,716.157852 L410.353918,732.899948 L384.906111,716.15785 L493.5,506 C493.5,506 568.377407,647.030978 604.097015,716.157852 L578.76013,732.899948 Z" id="Triangle-5" fill="#DBE4F0" sketch:type="MSShapeGroup"></path>
                <text id="Apex-Think-3" sketch:type="MSTextLayer" font-family="Arial" font-size="144" font-weight="313" letter-spacing="5" fill="#005AC4">
                    <tspan x="880.32862" y="543.719819">Apex Think</tspan>
                </text>
            </g>
            <g id="2" transform="translate(1398.000000, 162.000000)" sketch:type="MSShapeGroup">
                <polygon id="Triangle-2" fill="#BFDCFF" points="200 527 400 915 0 915 "></polygon>
                <polygon id="Triangle-3" fill="#BFDCFF" points="754 527 954 915 554 915 "></polygon>
                <polygon id="Triangle-1" fill="#9DCBFF" points="493.5 347 787 915 200 915 "></polygon>
                <g id="lightbulb" transform="translate(403.000000, 0.000000)">
                    <path d="M44.643439,209.385696 L44.643439,271.421886 C44.643439,275.594808 48.0269476,278.977631 52.2004655,278.977631 L126.172812,278.977631 C130.346443,278.977631 133.729839,275.598346 133.729839,271.42544 L133.729839,209.385704 C133.729839,150.640839 180,144.725872 180,93.2341 C180,41.7423284 139.705627,0 90,0 C40.2943725,0 0,41.7423284 0,93.2341 C0,130.983154 44.643439,152.30751 44.643439,209.385696 Z" id="Oval-1" fill="#F8E81C"></path>
                    <path d="M44.643439,209.385696 L44.643439,285.704673 C44.643439,290.83834 48.0269476,295 52.2004655,295 L126.172812,295 C130.346443,295 133.729839,290.842692 133.729839,285.709045 L133.729839,209.385705 L44.643439,209.385696 Z" id="Oval-2" fill="#9B9B9B"></path>
                </g>
            </g>
            <g id="4" transform="translate(1398.000000, 162.000000)" sketch:type="MSShapeGroup">
                <polygon id="Triangle-2" fill="#CDD3DA" points="200 527 400 915 0 915 "></polygon>
                <polygon id="Triangle-3" fill="#CDD3DA" points="754 527 954 915 554 915 "></polygon>
                <polygon id="Triangle-1" fill="#64ACFF" points="493.5 347 787 915 200 915 "></polygon>
                <g id="lightbulb" transform="translate(404.000000, 0.000000)">
                    <path d="M44.643439,209.385696 L44.643439,271.421886 C44.643439,275.594808 48.0269476,278.977631 52.2004655,278.977631 L126.172812,278.977631 C130.346443,278.977631 133.729839,275.598346 133.729839,271.42544 L133.729839,209.385704 C133.729839,150.640839 180,144.725872 180,93.2341 C180,41.7423284 139.705627,0 90,0 C40.2943725,0 0,41.7423284 0,93.2341 C0,130.983154 44.643439,152.30751 44.643439,209.385696 Z" id="Oval-1" fill="#F8E81C"></path>
                    <path d="M44.643439,209.385696 L44.643439,285.704673 C44.643439,290.83834 48.0269476,295 52.2004655,295 L126.172812,295 C130.346443,295 133.729839,290.842692 133.729839,285.709045 L133.729839,209.385705 L44.643439,209.385696 Z" id="Oval-2" fill="#9B9B9B"></path>
                </g>
            </g>
        </g>
    </g>
</svg>