<svg width="1564" height="1359" xmlns="http://www.w3.org/2000/svg"><g fill="none" fill-rule="evenodd"><path d="M309.5 1185c67.655 0 122.5-54.845 122.5-122.5S377.155 940 309.5 940 187 994.845 187 1062.5 241.845 1185 309.5 1185z" fill="#4A4A4A"/><path d="M246 1016v94h127v-94H246zm46-17v17h36v-17h-36z" fill="#CACACA"/><text font-family="Arial" font-size="400" letter-spacing="20" fill="#4A4A4A" transform="translate(3 760)"><tspan x="469" y="417">mtek</tspan></text><path d="M345.859 1062.789C344.234 1044.411 328.8 1030 310 1030c-19.882 0-36 16.118-36 36 0 .457.009.913.025 1.366-.188 1.701.11 3.668.707 5.894a35.737 35.737 0 0 0 2.87 8.456c3.922 10.654 9.111 24.952 5.166 42.52-2.92 13.004-9.505 19.918-22.005 25.158-12.5 5.239-25.177 7.931-67.793 6.498-88.513-2.976-145.2-71.007-145.2-179.907 0-109.45 56.1-177.65 145.2-177.65 40.15 0 67.191 6.05 96.191 33.916 4.041-2.147 25.91-25.666 25.91-27.866-29.7-29.7-71.5-44.55-123.2-44.55-52.25 0-94.05 15.95-125.95 46.75-40.7 40.15-62.7 100.1-62.7 171.05 0 68.75 20.9 128.7 59.4 167.2 31.35 31.9 82.92 50.531 135.72 50.531 33.426 0 51.753 3.304 84.427-10.86 31.353-13.592 50.915-37.445 55.658-60.27 3.015-14.511 9.202-25.887 7.59-59.614a23.486 23.486 0 0 0-.157-1.833z" fill="#81E118"/><text font-family="Arial Rounded MT Bold" font-size="144" transform="translate(3 760)"><tspan x="289" y="567.217" fill="#7ED321">c</tspan> <tspan x="374.57" y="567.217" fill="#4A4A4A">onnects you.</tspan></text><text font-family="Arial Rounded MT Bold" font-size="144" transform="translate(2 1)"><tspan x="363.231" y="597.486" fill="#7ED321">c</tspan> <tspan x="448.801" y="597.486" fill="#555">onnects you.</tspan></text><path d="M926.289 278.302c0-50.046-19.29-79.17-67.721-79.17-45.558 0-60.333 23.382-72.236 44.712-5.335-28.304-25.036-44.712-61.154-44.712-40.222 0-57.46 22.971-67.72 47.174 1.23-6.153 2.872-14.358 2.872-19.69V218c0-10.665-7.388-15.998-17.648-15.998-11.492 0-19.29 5.333-19.29 15.998v199.773c0 11.075 7.387 16.408 18.88 16.408 10.67 0 18.058-5.333 18.058-16.408v-118.96c0-13.537 3.694-28.305 11.082-39.38 9.85-14.768 22.984-27.485 44.737-27.485 29.14 0 39.4 19.69 39.4 54.558v131.268c0 11.075 6.978 16.408 18.47 16.408 10.671 0 18.47-5.333 18.47-16.408V296.762c0-12.307 4.925-28.305 11.081-36.92 9.85-14.767 24.216-27.894 45.968-27.894 29.551 0 39.402 19.69 39.402 54.558v131.268c0 11.075 6.977 16.408 18.47 16.408 10.67 0 18.879-5.333 18.879-16.408V278.302zm81.265-73.838h-31.603c-10.26 0-14.776 6.974-14.776 16.409 0 9.435 4.515 15.998 14.366 15.998h32.013v140.702c0 43.072 24.626 59.89 58.281 59.89 17.649 0 28.73-3.281 40.633-9.024 6.156-3.282 8.619-9.025 8.619-14.768 0-2.871-.41-6.153-1.642-9.024-2.462-6.153-7.388-10.666-13.544-10.666-2.463 0-4.925.82-7.388 2.051-6.977 4.103-13.954 6.974-24.215 6.974-15.186 0-23.805-8.614-23.805-28.715v-137.42h52.535c9.85 0 15.186-6.563 15.186-15.998 0-9.845-4.925-16.409-15.186-16.409h-52.535V154.83c0-10.666-7.798-16.409-18.47-16.409-11.492 0-18.469 5.743-18.469 16.409v49.635zm311.517 120.602c12.723 0 20.521-7.794 20.521-22.561v-3.282c-4.104-53.738-37.76-100.502-97.682-100.502-66.9 0-103.84 49.636-103.84 120.602 0 70.966 38.992 118.55 106.302 118.55 53.356 0 77.161-27.073 90.295-54.147 1.642-2.461 2.052-4.922 2.052-7.384 0-7.383-5.746-12.306-12.723-14.357-2.873-.82-5.746-1.64-8.62-1.64-5.745 0-11.08 2.87-14.775 10.254-9.85 21.742-26.267 36.51-55.818 36.51-44.327 0-69.363-31.587-70.184-82.043h144.472zm-143.24-29.945c5.335-40.2 26.677-66.454 66.079-66.454 37.76 0 55.408 29.945 60.333 59.07v2.051c0 3.692-1.642 5.333-6.156 5.333H1175.83zm245.847 55.788l31.193-29.945 76.34 106.655c3.283 4.512 8.619 6.563 13.955 6.563 4.104 0 7.798-.82 11.081-2.871 5.336-3.282 9.44-9.435 9.44-15.588 0-3.282-.82-6.154-2.873-9.025l-81.676-108.706 69.363-64.813c3.694-3.692 5.336-7.384 5.336-11.486 0-4.512-2.463-9.435-6.157-13.537-3.283-4.102-8.208-6.153-13.544-6.153-4.104 0-8.619 1.64-12.313 5.333l-100.145 99.68V124.884c0-10.665-7.388-15.177-18.059-15.177-11.492 0-18.88 5.332-18.88 15.998v292.07c0 11.075 6.978 16.408 18.47 16.408 11.081 0 18.47-5.333 18.47-16.408V350.91zm-948.709 86.965c66.302 0 120.05-53.72 120.05-119.987 0-66.266-53.748-119.986-120.05-119.986-66.303 0-120.051 53.72-120.051 119.986 0 66.267 53.748 119.987 120.05 119.987z" fill="#555"/><path d="M426.795 292.25v65.633h90.295v-65.634h-90.295zm32.835-12.307v12.306h26.678v-12.306H459.63z" fill="#FFF"/><path d="M411.592 327.594l-11.098 4.26-59.238-9.634-2.262 14.43 34.743 5.478-58.6 22.5 16.646 48.363 96.455-37.033-16.646-48.364z" fill="#BFBFBF"/><path d="M253.68 417.572l77.573 9.578 26.378-9.278-26.024-71.237-26.236 9.76-51.69 61.177z" fill="#7ED321"/><path d="M60.146 54.27C20.228 95.035.27 148.874.27 215.79c0 68.454 19.959 122.678 59.877 162.674 38.589 39.611 89.817 59.416 153.687 59.416 31.174 0 59.315-2.187 85.877-10.411 21.436-6.637 46.727-22.789 46.727-22.789l-44.672-36.678s-48.902 21.576-87.932 21.166c-40.282-.423-77.902-3.804-112.821-36.47-34.92-32.666-59.494-74.991-59.494-136.908 0-60.378 14.358-103.578 47.18-137.805 31.492-31.92 74.571-45.828 125.135-45.828 34.037 0 75.117 17.018 87.932 22.896 3.104.794 3.823.827 6.119 0 2.295-.826 4.46-3.675 5.882-6.8 2.06-4.526 2.812-10.877-.878-14.572-6.962-6.973-55.238-30.747-99.055-33.109C152.276-2.747 99.178 13.89 60.146 54.27z" fill="#7ED321"/></g></svg>