<?xml version="1.0" encoding="UTF-8" standalone="no"?>
<svg width="1564px" height="1359px" viewBox="0 0 1564 1359" version="1.1" xmlns="http://www.w3.org/2000/svg" xmlns:xlink="http://www.w3.org/1999/xlink" xmlns:sketch="http://www.bohemiancoding.com/sketch/ns">
    <!-- Generator: Sketch 3.2.2 (9983) - http://www.bohemiancoding.com/sketch -->
    <title>comtek</title>
    <desc>Created with Sketch.</desc>
    <defs></defs>
    <g id="Page-1" stroke="none" stroke-width="1" fill="none" fill-rule="evenodd" sketch:type="MSPage">
        <g id="comtek" sketch:type="MSLayerGroup" transform="translate(2.000000, 1.000000)">
            <g id="3" transform="translate(1.000000, 759.000000)">
                <path d="M306.5,425 C374.154882,425 429,370.154882 429,302.5 C429,234.845118 374.154882,180 306.5,180 C238.845118,180 184,234.845118 184,302.5 C184,370.154882 238.845118,425 306.5,425 Z" id="Oval-1" fill="#4A4A4A" sketch:type="MSShapeGroup"></path>
                <path d="M243,256 L243,350 L370,350 L370,256 L243,256 Z M289,239 L289,256 L325,256 L325,239 L289,239 Z" id="Rectangle-1" fill="#CACACA" sketch:type="MSShapeGroup"></path>
                <text id="mtek" sketch:type="MSTextLayer" font-family="Arial" font-size="400" font-weight="normal" letter-spacing="20" fill="#4A4A4A">
                    <tspan x="469" y="417">mtek</tspan>
                </text>
                <path d="M342.858752,302.789018 C341.234347,284.410995 325.800108,270 307,270 C287.117749,270 271,286.117749 271,306 C271,306.457348 271.008528,306.912704 271.025435,307.365918 C270.836726,309.067085 271.135191,311.03405 271.73237,313.260031 C272.340119,316.227973 273.313105,319.062836 274.60231,321.715605 C278.524272,332.369645 283.712958,346.667985 279.767572,364.236328 C276.847321,377.239868 270.262689,384.154305 257.762689,389.393562 C245.262689,394.63282 232.585614,397.325229 189.970361,395.89225 C101.457258,392.915911 44.7703613,324.884816 44.7703613,215.984816 C44.7703613,106.534816 100.870361,38.334816 189.970361,38.334816 C230.120361,38.334816 257.161371,44.3848152 286.161371,72.2508316 C290.20238,70.1039566 312.070367,46.584816 312.070361,44.384816 C282.370361,14.684816 240.570361,-0.165184021 188.870361,-0.165184021 C136.620361,-0.165184021 94.8203613,15.784816 62.9203613,46.584816 C22.2203613,86.734816 0.220361328,146.684816 0.220361328,217.634816 C0.220361328,286.384816 21.1203613,346.334816 59.6203613,384.834816 C90.9703613,416.734816 142.541058,435.366071 195.341058,435.366066 C228.766827,435.366063 247.093708,438.670014 279.767572,424.505859 C311.121442,410.913924 330.683064,387.060817 335.425775,364.236328 C338.441173,349.724602 344.628168,338.348877 343.016568,304.622216 C342.986293,303.988633 342.933401,303.377777 342.858752,302.789018 Z" id="Path" fill="#81E118" sketch:type="MSShapeGroup"></path>
                <text id="connects-you.-2" sketch:type="MSTextLayer" font-family="Arial Rounded MT Bold" font-size="144" font-weight="normal">
                    <tspan x="289" y="567.216797" fill="#7ED321">c</tspan>
                    <tspan x="374.570312" y="567.216797" fill="#4A4A4A">onnects you.</tspan>
                </text>
            </g>
            <g>
                <text id="connects-you." sketch:type="MSTextLayer" font-family="Arial Rounded MT Bold" font-size="144" font-weight="normal">
                    <tspan x="363.230769" y="597.486486" fill="#7ED321">c</tspan>
                    <tspan x="448.801082" y="597.486486" fill="#555555">onnects you.</tspan>
                </text>
                <path d="M924.288918,277.302102 C924.288918,227.256456 904.998696,198.131532 856.567927,198.131532 C811.010169,198.131532 796.234681,221.513514 784.332203,242.844444 C778.99661,214.53994 759.295958,198.131532 723.178096,198.131532 C682.955932,198.131532 665.717862,221.103303 655.457106,245.305706 C656.688396,239.152553 658.330117,230.948348 658.330117,225.615616 L658.330117,217.001201 C658.330117,206.335736 650.942373,201.003003 640.681617,201.003003 C629.18957,201.003003 621.391395,206.335736 621.391395,217.001201 L621.391395,416.773574 C621.391395,427.849249 628.77914,433.181982 640.271186,433.181982 C650.942373,433.181982 658.330117,427.849249 658.330117,416.773574 L658.330117,297.812613 C658.330117,284.275676 662.02399,269.508108 669.411734,258.432432 C679.26206,243.664865 692.395828,230.948348 714.148631,230.948348 C743.289179,230.948348 753.549935,250.638438 753.549935,285.506306 L753.549935,416.773574 C753.549935,427.849249 760.527249,433.181982 772.019296,433.181982 C782.690482,433.181982 790.488657,427.849249 790.488657,416.773574 L790.488657,295.761562 C790.488657,283.455255 795.41382,267.457057 801.570274,258.842643 C811.4206,244.075075 825.785658,230.948348 847.538462,230.948348 C877.089439,230.948348 886.939765,250.638438 886.939765,285.506306 L886.939765,416.773574 C886.939765,427.849249 893.91708,433.181982 905.409126,433.181982 C916.080313,433.181982 924.288918,427.849249 924.288918,416.773574 L924.288918,277.302102 Z M1005.55411,203.464264 L973.950978,203.464264 C963.690222,203.464264 959.175489,210.437838 959.175489,219.872673 C959.175489,229.307508 963.690222,235.870871 973.540548,235.870871 L1005.55411,235.870871 L1005.55411,376.572973 C1005.55411,419.645045 1030.17992,436.463664 1063.8352,436.463664 C1081.4837,436.463664 1092.56532,433.181982 1104.4678,427.439039 C1110.62425,424.157357 1113.08683,418.414414 1113.08683,412.671471 C1113.08683,409.8 1112.6764,406.518318 1111.44511,403.646847 C1108.98253,397.493694 1104.05737,392.981381 1097.90091,392.981381 C1095.43833,392.981381 1092.97575,393.801802 1090.51317,395.032432 C1083.53585,399.134535 1076.55854,402.006006 1066.29778,402.006006 C1051.11186,402.006006 1042.49283,393.391592 1042.49283,373.291291 L1042.49283,235.870871 L1095.0279,235.870871 C1104.87823,235.870871 1110.21382,229.307508 1110.21382,219.872673 C1110.21382,210.027628 1105.28866,203.464264 1095.0279,203.464264 L1042.49283,203.464264 L1042.49283,153.828829 C1042.49283,143.163363 1034.69465,137.42042 1024.02347,137.42042 C1012.53142,137.42042 1005.55411,143.163363 1005.55411,153.828829 L1005.55411,203.464264 Z M1317.07066,324.066066 C1329.794,324.066066 1337.59218,316.272072 1337.59218,301.504505 L1337.59218,298.222823 C1333.48787,244.485285 1299.83259,197.721321 1239.90978,197.721321 C1173.00965,197.721321 1136.07093,247.356757 1136.07093,318.323123 C1136.07093,389.289489 1175.0618,436.873874 1242.37236,436.873874 C1295.72829,436.873874 1319.53325,409.8 1332.66701,382.726126 C1334.30874,380.264865 1334.71917,377.803604 1334.71917,375.342342 C1334.71917,367.958559 1328.97314,363.036036 1321.99583,360.984985 C1319.12282,360.164565 1316.2498,359.344144 1313.37679,359.344144 C1307.63077,359.344144 1302.29518,362.215616 1298.6013,369.599399 C1288.75098,391.340541 1272.33377,406.108108 1242.78279,406.108108 C1198.45632,406.108108 1173.42008,374.521922 1172.59922,324.066066 L1317.07066,324.066066 Z M1173.83051,294.120721 C1179.1661,253.92012 1200.50847,227.666667 1239.90978,227.666667 C1277.66936,227.666667 1295.31786,257.612012 1300.24302,286.736937 L1300.24302,288.787988 C1300.24302,292.47988 1298.6013,294.120721 1294.08657,294.120721 L1173.83051,294.120721 Z M1419.67823,349.909309 L1450.87093,319.963964 L1527.21095,426.618619 C1530.49439,431.130931 1535.82999,433.181982 1541.16558,433.181982 C1545.26988,433.181982 1548.96375,432.361562 1552.2472,430.310511 C1557.58279,427.028829 1561.68709,420.875676 1561.68709,414.722523 C1561.68709,411.440841 1560.86623,408.569369 1558.81408,405.697898 L1477.13846,296.992192 L1546.50117,232.178979 C1550.19505,228.487087 1551.83677,224.795195 1551.83677,220.693093 C1551.83677,216.180781 1549.37419,211.258258 1545.68031,207.156156 C1542.39687,203.054054 1537.47171,201.003003 1532.13611,201.003003 C1528.03181,201.003003 1523.51708,202.643844 1519.82321,206.335736 L1419.67823,306.016817 L1419.67823,123.883483 C1419.67823,113.218018 1412.29048,108.705706 1401.6193,108.705706 C1390.12725,108.705706 1382.7395,114.038438 1382.7395,124.703904 L1382.7395,416.773574 C1382.7395,427.849249 1389.71682,433.181982 1401.20887,433.181982 C1412.29048,433.181982 1419.67823,427.849249 1419.67823,416.773574 L1419.67823,349.909309 Z" id="omtek-2" fill="#555555" sketch:type="MSShapeGroup"></path>
                <path d="M470.968709,436.873874 C537.270962,436.873874 591.019557,383.154094 591.019557,316.887387 C591.019557,250.620681 537.270962,196.900901 470.968709,196.900901 C404.666457,196.900901 350.917862,250.620681 350.917862,316.887387 C350.917862,383.154094 404.666457,436.873874 470.968709,436.873874 Z" id="O" fill="#555555" sketch:type="MSShapeGroup"></path>
                <path d="M424.795306,291.249249 L424.795306,356.882883 L515.089961,356.882883 L515.089961,291.249249 L424.795306,291.249249 Z M457.629726,278.942943 L457.629726,291.249249 L484.307692,291.249249 L484.307692,278.942943 L457.629726,278.942943 Z" id="jack" fill="#FFFFFF" sketch:type="MSShapeGroup"></path>
                <g id="plug+jack" sketch:type="MSShapeGroup">
                    <g id="jack" transform="translate(354.102144, 373.181972) rotate(28.000000) translate(-354.102144, -373.181972) translate(284.329002, 286.012302)">
                        <path d="M96.8960586,19.9838105 L89.0974529,28.9564123 L32.2696299,48.2597886 L37.0472355,62.0623213 L70.2957929,50.5884585 L29.1180983,97.9650131 L66.5207994,132.85327 L134.29876,54.8720676 L96.8960586,19.9838105 L96.8960586,19.9838105 Z" id="Rectangle-3" fill="#BFBFBF"></path>
                        <path d="M-0.289094974,173.564742 L72.6993182,145.603343 L91.6338704,125.027986 L35.2132387,74.3470954 L16.629396,95.2812361 L-0.289094974,173.564742 Z" id="C-2" fill="#7ED321"></path>
                    </g>
                    <path d="M58.1464981,53.2698484 C18.2276359,94.0346919 -1.73149577,147.874244 -1.73149577,214.790119 C-1.73149577,283.24429 18.2276359,337.46841 58.1464981,377.464105 C96.7347316,417.075227 147.96317,436.88049 211.833349,436.88049 C243.006631,436.88049 271.147763,434.693453 297.710292,426.469021 C319.146108,419.831949 344.436758,403.680497 344.436758,403.680497 L299.764893,367.001936 C299.764893,367.001936 250.863196,388.578353 211.833349,388.168046 C171.551033,387.744573 133.930932,384.363762 99.0115376,351.697795 C64.0921434,319.031827 39.5178145,276.706532 39.5178145,214.790119 C39.5178145,154.412001 53.8764546,111.21223 86.6986302,76.9851446 C118.190177,45.0655031 161.269457,31.1569727 211.833349,31.1569727 C245.869934,31.1569727 286.949992,48.1745811 299.764893,54.0534074 C302.868546,54.8465873 303.588127,54.8801372 305.88377,54.0534074 C308.179414,53.2266776 310.343527,50.3783691 311.76617,47.2527911 C313.826337,42.7265581 314.578217,36.3763619 310.887893,32.6806142 C303.925998,25.7084866 255.6504,1.93440424 211.833347,-0.428030607 C150.275651,-3.74696771 97.1782745,12.889579 58.1464981,53.2698484 Z" id="C" fill="#7ED321"></path>
                </g>
            </g>
        </g>
    </g>
</svg>