<svg width="881" height="574" xmlns="http://www.w3.org/2000/svg"><g fill="none" fill-rule="evenodd"><path fill="#298100" d="M274 477h151v23H274z"/><path d="M177 465.757l-6.812 5-7.002-11.984-7.675 18.242-8.824-6.258-6.58 10.391-6.6-20.654-6.732 8.85-9.448-10.571-7.137 15.016L103.495 451l-8.5 18.344-4.832-10.571-7.534 20.221-5.756-9.65-5.94 13.968-9.205-21.451-6.575 11.928-7.739-19.563-6.986 22.789L35 463.783l-7.198 11.787-6.429-18.893-8.87 14.08-7.548-10.263L0 470.757V500h177v-34.243z" fill="#C3E6A0"/><path d="M225 400H0l100-100H25l100-100H75l100-100h-50L225 0" fill="#C3E69F"/><path d="M225 0l200 400H225" fill="#298100"/><path fill="#DFBC8E" d="M175 400h50v100h-50z"/><path fill="#744F1E" d="M225 400h50v100h-50z"/><path fill="#298100" d="M730 477h151v23H730z"/><path d="M633 473.067l-13.68 7.718-27.761-14.196L555.962 477l-26.544-19.161-16.51 21.08-25.61-13.656L456 477v23h177v-26.933zM681 400H456l100-100h-75l100-100h-50l100-100h-50L681 0" fill="#C3E69F"/><path d="M681 0l200 400H681" fill="#298100"/><path fill="#DFBC8E" d="M631 400h50v100h-50z"/><path fill="#744F1E" d="M681 400h50v100h-50z"/><path fill="#298100" d="M513 99h31v5h-31z"/><path d="M493 98.25l-2.86 1.648-5.803-3.03-7.441 2.222-5.549-4.09-3.451 4.5-5.354-2.915L456 99.09V104h37v-5.75zM503 83h-47l20.889-20.75h-15.667l20.89-20.75h-10.445l20.889-20.75H482.11L503 0" fill="#C3E69F"/><path d="M503 0l41 83h-41" fill="#298100"/><path fill="#DFBC8E" d="M493 83h10v21h-10z"/><path fill="#744F1E" d="M503 83h10v21h-10z"/><text font-family="Verdana" font-size="48" fill="#555"><tspan x="33.016" y="565">Your grass is greener on our side.</tspan></text></g></svg>