<?xml version="1.0" encoding="UTF-8" standalone="no"?>
<svg width="881px" height="574px" viewBox="0 0 881 574" version="1.1" xmlns="http://www.w3.org/2000/svg" xmlns:xlink="http://www.w3.org/1999/xlink" xmlns:sketch="http://www.bohemiancoding.com/sketch/ns">
    <!-- Generator: Sketch 3.2.2 (9983) - http://www.bohemiancoding.com/sketch -->
    <title>landscaping logo</title>
    <desc>Created with Sketch.</desc>
    <defs></defs>
    <g id="Page-1" stroke="none" stroke-width="1" fill="none" fill-rule="evenodd" sketch:type="MSPage">
        <g id="large" sketch:type="MSLayerGroup">
            <rect id="Rectangle-3" fill="#298100" sketch:type="MSShapeGroup" x="274" y="477" width="151" height="23"></rect>
            <path d="M177,465.756867 L170.188477,470.756943 L163.185547,458.772654 L155.510742,477.014798 L146.686523,470.756943 L140.107422,481.148211 L133.506836,460.493564 L126.775391,469.343959 L117.327148,458.772654 L110.19043,473.789023 L103.495117,451 L94.9951172,469.343959 L90.1630859,458.772654 L82.6289062,478.993969 L76.8730469,469.343959 L70.9326172,483.312386 L61.7275391,461.860607 L55.1533203,473.789023 L47.4140625,454.225775 L40.4277344,477.014798 L35,463.783215 L27.8017578,475.569532 L21.3730469,456.676769 L12.5039062,470.756943 L4.95507812,460.493564 L0,470.756943 L0,500 L177,500 L177,470.756943 L177,465.756867 Z" id="Rectangle-4" fill="#C3E6A0" sketch:type="MSShapeGroup"></path>
            <g id="tree" sketch:type="MSShapeGroup">
                <path d="M225,400 L0,400 L100,300 L25,300 L125,200 L75,200 L175,100 L125,100 L225,0" id="left" fill="#C3E69F"></path>
                <path d="M225,0 L425,400 L225,400" id="right" fill="#298100"></path>
                <rect id="trunk-left" fill="#DFBC8E" x="175" y="400" width="50" height="100"></rect>
                <rect id="trunk-right" fill="#744F1E" x="225" y="400" width="50" height="100"></rect>
            </g>
        </g>
        <g id="small" sketch:type="MSLayerGroup" transform="translate(456.000000, 0.000000)">
            <rect id="Rectangle-3" fill="#298100" sketch:type="MSShapeGroup" x="274" y="477" width="151" height="23"></rect>
            <path d="M177,473.067383 L163.319336,480.785156 L135.558594,466.588867 L99.9619141,477 L73.4179688,457.838867 L56.9072266,478.919434 L31.2978516,465.262695 L0,477 L0,500 L177,500 L177,477 L177,473.067383 Z" id="Rectangle-4" fill="#C3E69F" sketch:type="MSShapeGroup"></path>
            <g id="tree" sketch:type="MSShapeGroup">
                <path d="M225,400 L0,400 L100,300 L25,300 L125,200 L75,200 L175,100 L125,100 L225,0" id="left" fill="#C3E69F"></path>
                <path d="M225,0 L425,400 L225,400" id="right" fill="#298100"></path>
                <rect id="trunk-left" fill="#DFBC8E" x="175" y="400" width="50" height="100"></rect>
                <rect id="trunk-right" fill="#744F1E" x="225" y="400" width="50" height="100"></rect>
            </g>
        </g>
        <g id="small-2" sketch:type="MSLayerGroup" transform="translate(456.000000, 0.000000)">
            <rect id="Rectangle-3" fill="#298100" sketch:type="MSShapeGroup" x="57" y="99" width="31" height="5"></rect>
            <path d="M37,98.2507817 L34.1402002,99.8982698 L28.3371072,96.8678341 L20.8959933,99.0902647 L15.347259,95 L11.8958609,99.5 L6.54248874,96.5847405 L0,99.0902647 L0,104 L37,104 L37,99.0902647 L37,98.2507817 Z" id="Rectangle-4" fill="#C3E69F" sketch:type="MSShapeGroup"></path>
            <g id="tree" sketch:type="MSShapeGroup">
                <path d="M47,83 L0,83 L20.8888889,62.25 L5.22222222,62.25 L26.1111111,41.5 L15.6666667,41.5 L36.5555556,20.75 L26.1111111,20.75 L47,0" id="left" fill="#C3E69F"></path>
                <path d="M47,0 L88,83 L47,83" id="right" fill="#298100"></path>
                <rect id="trunk-left" fill="#DFBC8E" x="37" y="83" width="10" height="21"></rect>
                <rect id="trunk-right" fill="#744F1E" x="47" y="83" width="10" height="21"></rect>
            </g>
        </g>
        <text id="greener-grass" sketch:type="MSTextLayer" font-family="Verdana" font-size="48" font-weight="normal" sketch:alignment="middle" fill="#555555">
            <tspan x="33.015625" y="565">Your grass is greener on our side.</tspan>
        </text>
    </g>
</svg>