<?xml version="1.0" encoding="UTF-8" standalone="no"?>
<svg width="2309px" height="2111px" viewBox="0 0 2309 2111" version="1.1" xmlns="http://www.w3.org/2000/svg" xmlns:xlink="http://www.w3.org/1999/xlink" xmlns:sketch="http://www.bohemiancoding.com/sketch/ns">
    <!-- Generator: Sketch 3.2.2 (9983) - http://www.bohemiancoding.com/sketch -->
    <title>moto helmets</title>
    <desc>Created with Sketch.</desc>
    <defs>
        <path id="path-1" d="M38.0195312,477.476562 C38.0195326,477.476561 627.953132,635.160156 627.953132,635.160156 L658.980447,571.10155 L654.683572,553.734362 L538.449197,516.757812 C538.449197,516.757812 433.323309,492.155241 421.980478,405.902344 C413.937509,344.742187 421.980478,294.328125 454.761728,267.179687 C485.847665,239 538.449197,228.585937 538.449197,228.585937 L607.855447,209.320315 C607.855447,209.320315 602.354009,199.439142 597.308572,183.023439 C583.356973,137.630879 509.969849,59.9673195 423.951938,24.1011626 C345.453134,-9.66015552 266.129033,-0.125597086 231.804681,4.92968756 C166.75383,14.5103656 103.342448,47.2839149 43.0273436,127.589843 C-26.2475013,219.825127 -0.875436781,437.260152 38.0195312,477.476562 Z"></path>
        <path id="path-3" d="M38.0195312,477.476562 C38.0195326,477.476561 627.953132,635.160156 627.953132,635.160156 L658.980447,571.10155 L654.683572,553.734362 L538.449197,516.757812 C538.449197,516.757812 433.323309,492.155241 421.980478,405.902344 C413.937509,344.742187 421.980478,294.328125 454.761728,267.179687 C485.847665,239 538.449197,228.585937 538.449197,228.585937 L607.855447,209.320315 C607.855447,209.320315 602.354009,199.439142 597.308572,183.023439 C583.356973,137.630879 509.969849,59.9673195 423.951938,24.1011626 C345.453134,-9.66015552 266.129033,-0.125597086 231.804681,4.92968756 C166.75383,14.5103656 103.342448,47.2839149 43.0273436,127.589843 C-26.2475013,219.825127 -0.875436781,437.260152 38.0195312,477.476562 Z"></path>
        <path id="path-5" d="M38.0195312,477.476563 C38.0195326,477.476561 627.953132,635.160156 627.953132,635.160156 L658.980447,571.10155 L654.683572,553.734362 L538.449197,516.757812 C538.449197,516.757812 433.323309,492.155241 421.980478,405.902344 C413.937509,344.742187 421.980478,294.328125 454.761728,267.179687 C485.847665,239 538.449197,228.585937 538.449197,228.585937 L607.855447,209.320315 C607.855447,209.320315 602.354009,199.439142 597.308572,183.023439 C583.356973,137.630879 509.969849,59.9673195 423.951938,24.1011626 C345.453134,-9.66015552 266.129033,-0.125597086 231.804681,4.92968756 C166.75383,14.5103656 103.342448,47.2839149 43.0273436,127.589843 C-26.2475013,219.825127 -0.875436781,437.260152 38.0195312,477.476563 Z"></path>
        <path id="path-7" d="M38.0195312,477.476563 C38.0195326,477.476561 627.953132,635.160156 627.953132,635.160156 L658.980447,571.10155 L654.683572,553.734362 L538.449197,516.757812 C538.449197,516.757812 433.323309,492.155241 421.980478,405.902344 C413.937509,344.742187 421.980478,294.328125 454.761728,267.179687 C485.847665,239 538.449197,228.585937 538.449197,228.585937 L607.855447,209.320315 C607.855447,209.320315 602.354009,199.439142 597.308572,183.023439 C583.356973,137.630879 509.969849,59.9673195 423.951938,24.1011626 C345.453134,-9.66015552 266.129033,-0.125597086 231.804681,4.92968756 C166.75383,14.5103656 103.342448,47.2839149 43.0273436,127.589843 C-26.2475013,219.825127 -0.875436781,437.260152 38.0195312,477.476563 Z"></path>
        <path id="path-9" d="M38.0195312,477.476562 C38.0195326,477.476561 627.953132,635.160156 627.953132,635.160156 L658.980447,571.10155 L654.683572,553.734362 L538.449197,516.757812 C538.449197,516.757812 433.323309,492.155241 421.980478,405.902344 C413.937509,344.742187 421.980478,294.328125 454.761728,267.179687 C485.847665,239 538.449197,228.585937 538.449197,228.585937 L607.855447,209.320315 C607.855447,209.320315 602.354009,199.439142 597.308572,183.023439 C583.356973,137.630879 509.969849,59.9673195 423.951938,24.1011626 C345.453134,-9.66015552 266.129033,-0.125597086 231.804681,4.92968756 C166.75383,14.5103656 103.342448,47.2839149 43.0273436,127.589843 C-26.2475013,219.825127 -0.875436781,437.260152 38.0195312,477.476562 Z"></path>
        <path id="path-11" d="M38.0195312,477.476563 C38.0195326,477.476561 627.953132,635.160156 627.953132,635.160156 L658.980447,571.10155 L654.683572,553.734362 L538.449197,516.757812 C538.449197,516.757812 433.323309,492.155241 421.980478,405.902344 C413.937509,344.742187 421.980478,294.328125 454.761728,267.179687 C485.847665,239 538.449197,228.585937 538.449197,228.585937 L607.855447,209.320315 C607.855447,209.320315 602.354009,199.439142 597.308572,183.023439 C583.356973,137.630879 509.969849,59.9673195 423.951938,24.1011626 C345.453134,-9.66015552 266.129033,-0.125597086 231.804681,4.92968756 C166.75383,14.5103656 103.342448,47.2839149 43.0273436,127.589843 C-26.2475013,219.825127 -0.875436781,437.260152 38.0195312,477.476563 Z"></path>
        <path id="path-13" d="M38.0195312,477.476563 C38.0195326,477.476561 627.953132,635.160156 627.953132,635.160156 L658.980447,571.10155 L654.683572,553.734362 L538.449197,516.757812 C538.449197,516.757812 433.323309,492.155241 421.980478,405.902344 C413.937509,344.742187 421.980478,294.328125 454.761728,267.179687 C485.847665,239 538.449197,228.585937 538.449197,228.585937 L607.855447,209.320315 C607.855447,209.320315 602.354009,199.439142 597.308572,183.023439 C583.356973,137.630879 509.969849,59.9673195 423.951938,24.1011626 C345.453134,-9.66015552 266.129033,-0.125597086 231.804681,4.92968756 C166.75383,14.5103656 103.342448,47.2839149 43.0273436,127.589843 C-26.2475013,219.825127 -0.875436781,437.260152 38.0195312,477.476563 Z"></path>
        <path id="path-15" d="M38.0195312,477.476563 C38.0195326,477.476561 627.953132,635.160156 627.953132,635.160156 L658.980447,571.10155 L654.683572,553.734362 L538.449197,516.757812 C538.449197,516.757812 433.323309,492.155241 421.980478,405.902344 C413.937509,344.742187 421.980478,294.328125 454.761728,267.179687 C485.847665,239 538.449197,228.585937 538.449197,228.585937 L607.855447,209.320315 C607.855447,209.320315 602.354009,199.439142 597.308572,183.023439 C583.356973,137.630879 509.969849,59.9673195 423.951938,24.1011626 C345.453134,-9.66015552 266.129033,-0.125597086 231.804681,4.92968756 C166.75383,14.5103656 103.342448,47.2839149 43.0273436,127.589843 C-26.2475013,219.825127 -0.875436781,437.260152 38.0195312,477.476563 Z"></path>
        <path id="path-17" d="M38.0195312,477.476563 C38.0195326,477.476561 627.953132,635.160156 627.953132,635.160156 L658.980447,571.10155 L654.683572,553.734362 L538.449197,516.757812 C538.449197,516.757812 433.323309,492.155241 421.980478,405.902344 C413.937509,344.742187 421.980478,294.328125 454.761728,267.179687 C485.847665,239 538.449197,228.585937 538.449197,228.585937 L607.855447,209.320315 C607.855447,209.320315 602.354009,199.439142 597.308572,183.023439 C583.356973,137.630879 509.969849,59.9673195 423.951938,24.1011626 C345.453134,-9.66015552 266.129033,-0.125597086 231.804681,4.92968756 C166.75383,14.5103656 103.342448,47.2839149 43.0273436,127.589843 C-26.2475013,219.825127 -0.875436781,437.260152 38.0195312,477.476563 Z"></path>
    </defs>
    <g id="Page-1" stroke="none" stroke-width="1" fill="none" fill-rule="evenodd" sketch:type="MSPage">
        <g id="helmet-blue-6" sketch:type="MSLayerGroup" transform="translate(1605.000000, 739.000000)">
            <mask id="mask-2" sketch:name="shell" fill="white">
                <use xlink:href="#path-1"></use>
            </mask>
            <use id="shell" fill="#2E2E2E" sketch:type="MSShapeGroup" xlink:href="#path-1"></use>
            <path d="M-7.24609375,267.546875 L-23.9960938,434.554688 L31.2382812,525.445312 L580.789062,646.636719 L522.515625,608.898438 C522.515625,608.898438 163.277344,505.296875 93.5039062,440.199219 C82.34375,326.414062 -7.24609375,267.546875 -7.24609375,267.546875 Z" id="shadow" fill-opacity="0.0639436141" fill="#000000" sketch:type="MSShapeGroup" mask="url(#mask-2)"></path>
            <path d="M658.980447,571.10155 L654.683572,553.734362 L538.449197,516.757812 C538.449197,516.757812 433.323309,492.155241 421.980478,405.902344 C413.937509,344.742187 421.980478,294.328125 454.761728,267.179687 C485.847665,239 538.449197,228.585937 538.449197,228.585937 C538.449197,228.585937 575.917531,217.04354 607.855447,209.320315 L604.294911,199.101563 C604.294911,199.101563 521.578114,218.800781 476.443349,235.953125 C476.443349,235.953125 389.560536,272.171875 406.835927,380.1875 C406.835927,380.1875 400.732411,486.898438 512.24413,521.03125 L643.955068,566.46875 L658.980447,571.10155 Z" id="face-cutaway-lining" fill-opacity="0.8" fill="#2B2B2B" sketch:type="MSShapeGroup" mask="url(#mask-2)"></path>
            <circle id="mount-plate" fill="#000000" sketch:type="MSShapeGroup" cx="307" cy="285" r="119"></circle>
            <circle id="mount-under" fill="#000000" sketch:type="MSShapeGroup" cx="306.5" cy="284.5" r="46.5"></circle>
            <path d="M599.992187,186.925781 L506.058594,214.589844 C506.058594,214.589844 435.058594,239.296875 300.398437,239.296875 C300.398437,239.296875 265.044922,239.296875 260.632812,277.902344 C256.220703,316.507812 285.449219,324.625 285.449219,324.625 L397.179687,385.542969 C397.179687,385.542969 390.382938,529.05594 599.425122,548.431286 C614.557779,549.833875 630.821512,550.585938 648.300781,550.585938 C727.859375,458.601562 719.175781,300.667969 610.035156,212.976562 L599.992187,186.925781 Z" id="visor" stroke="#454545" stroke-width="6" fill="#0B0B0B" sketch:type="MSShapeGroup"></path>
            <path d="M392.464844,390.941406 C399.71875,472.292969 424.6875,526.875 578.349609,563.619141 C678.495809,638.24761 250.003899,577.121094 2.7500001,254.207031 C-6.15624955,426.117188 39.187499,477.398442 39.187499,477.398442 L588.871094,624.589844 L627.865235,635.234375 L659.169922,570.810547 L654.919922,555.720703 L648.080078,551.550781 C648.080078,551.550781 666.72461,533.470703 675.333985,512.017578 C491.650391,539.419922 467.070313,455.828125 392.464844,390.941406 Z" id="shadow" fill-opacity="0.11254529" fill="#000000" sketch:type="MSShapeGroup"></path>
            <path d="M2.05078125,254.683594 C2.05078125,254.683594 -14.2578129,404.974609 36.8515621,477.091797 C36.8515616,477.091797 628.869129,635.974609 628.869129,635.974609 L659.050769,571.833984" id="Path-8" stroke="#979797" stroke-width="6" stroke-linecap="round" sketch:type="MSShapeGroup"></path>
            <circle id="mount-over" fill="#000000" sketch:type="MSShapeGroup" cx="307" cy="285" r="27"></circle>
            <path d="M307.5,301 C316.060414,301 323,294.060414 323,285.5 C323,276.939586 316.060414,270 307.5,270 C298.939586,270 292,276.939586 292,285.5 C292,294.060414 298.939586,301 307.5,301 Z" id="mount-over-2" fill="#555555" sketch:type="MSShapeGroup"></path>
            <path d="M37.8242188,164.453126 C37.8242188,164.453126 63.203125,177.691407 83.5390625,189.539063 C98.9055985,196.783967 113.75818,218.202321 125.773438,223.867188 C153.092638,236.747448 191.328125,235.625 191.328125,235.625 C191.328125,235.625 205.019531,165.062501 290.900391,156.031251 C376.78125,147.000001 410.011719,212.476562 410.011719,212.476562 C410.011719,212.476562 442.371562,204.195358 464.644531,189.539063 C485.507812,169.492188 491.574219,160.671876 502.121094,151.453126 C512.667969,142.234376 543.976562,124.323601 543.976562,124.323601 C543.976562,124.323601 475.582031,41.8359381 358.777344,16.1718752 C358.777344,16.1718752 230.839844,-14.7675776 133.136719,52.4179687 C133.136719,52.4179687 62.6445312,99.6093774 37.8242188,164.453126 Z" id="highlight-top" fill-opacity="0.8" fill="#FFFFFF" sketch:type="MSShapeGroup"></path>
            <path d="M600.992188,239.824219 C600.992188,239.824219 694.480469,296.0625 681.542969,448.257812 C681.542969,448.257812 668.480469,438.533203 668.480469,436.457031 C674.003906,362.671875 636.367555,267.301469 575.6875,247.433594 L600.992188,239.824219 Z" id="highlight-visor" fill-opacity="0.8" fill="#FFFFFF" sketch:type="MSShapeGroup"></path>
            <path d="M670.089844,458.462891 L679.947266,463.978516 C679.947266,463.978516 677.064453,493.509766 660.689453,518.330078 C660.689453,518.330078 658.326172,508.703125 658.326172,508.703125 C672.357422,481.216797 670.089844,458.462891 670.089844,458.462891 Z" id="highlight-visor-2" fill-opacity="0.8" fill="#FFFFFF" sketch:type="MSShapeGroup"></path>
            <path d="M247.333984,259.896484 C267.607983,255.704094 267.231445,237.680662 295.890625,233.178709 C317.239258,230.931642 325.714844,235.959474 327.803711,235.959474 L338.230469,235.663576 L352.34375,241.992184 C352.34375,241.992184 362.001953,245.525387 368.765625,243.411129 C375.529297,241.296871 387.463867,240.060543 387.463867,240.060543 L392.606934,232.140871 L400.570312,231.390871 C400.570312,231.390871 402.384685,227.541453 399.283203,222.513672 C399.283203,222.513672 376.009766,184.537109 329.548828,174.226562 C329.548828,174.226562 275.287109,162.652344 235.191406,198.085938 C235.191406,198.085938 209.931641,217.934792 200.552734,249.914059 C224.347656,275.12109 223.154297,253.531735 247.333984,259.896484 Z" id="highlight-mount-plate" fill-opacity="0.8" fill="#FFFFFF" sketch:type="MSShapeGroup"></path>
        </g>
        <g id="helmet-blue/white" sketch:type="MSLayerGroup" transform="translate(804.000000, 739.000000)">
            <mask id="mask-4" sketch:name="shell" fill="white">
                <use xlink:href="#path-3"></use>
            </mask>
            <use id="shell" fill-opacity="0.8" fill="#E4E4E4" sketch:type="MSShapeGroup" xlink:href="#path-3"></use>
            <path d="M-7.24609375,267.546875 L-23.9960938,434.554688 L31.2382812,525.445312 L580.789062,646.636719 L522.515625,608.898438 C522.515625,608.898438 163.277344,505.296875 93.5039062,440.199219 C82.34375,326.414062 -7.24609375,267.546875 -7.24609375,267.546875 Z" id="shadow" fill-opacity="0.0639436141" fill="#000000" sketch:type="MSShapeGroup" mask="url(#mask-4)"></path>
            <path d="M658.980447,571.10155 L654.683572,553.734362 L538.449197,516.757812 C538.449197,516.757812 433.323309,492.155241 421.980478,405.902344 C413.937509,344.742187 421.980478,294.328125 454.761728,267.179687 C485.847665,239 538.449197,228.585937 538.449197,228.585937 C538.449197,228.585937 575.917531,217.04354 607.855447,209.320315 L604.294911,199.101563 C604.294911,199.101563 521.578114,218.800781 476.443349,235.953125 C476.443349,235.953125 389.560536,272.171875 406.835927,380.1875 C406.835927,380.1875 400.732411,486.898438 512.24413,521.03125 L643.955068,566.46875 L658.980447,571.10155 Z" id="face-cutaway-lining" fill-opacity="0.8" fill="#2B2B2B" sketch:type="MSShapeGroup" mask="url(#mask-4)"></path>
            <circle id="mount-plate" fill="#00CBFF" sketch:type="MSShapeGroup" cx="307" cy="285" r="119"></circle>
            <circle id="mount-under" fill="#00CBFF" sketch:type="MSShapeGroup" cx="306.5" cy="284.5" r="46.5"></circle>
            <path d="M599.992188,186.925781 L506.058594,214.589844 C506.058594,214.589844 435.058594,239.296875 300.398438,239.296875 C300.398437,239.296875 265.044922,239.296875 260.632812,277.902344 C256.220703,316.507812 285.449219,324.625 285.449219,324.625 L397.179688,385.542969 C397.179688,385.542969 390.382938,529.05594 599.425122,548.431286 C614.557779,549.833875 630.821512,550.585938 648.300781,550.585938 C727.859375,458.601562 719.175781,300.667969 610.035156,212.976562 L599.992188,186.925781 Z" id="visor" stroke="#B1B1B1" stroke-width="6" fill-opacity="0.7" fill="#AEAEAE" sketch:type="MSShapeGroup"></path>
            <path d="M392.464844,390.941406 C399.71875,472.292969 424.6875,526.875 578.349609,563.619141 C678.495809,638.24761 250.003899,577.121094 2.7500001,254.207031 C-6.15624955,426.117188 39.187499,477.398442 39.187499,477.398442 L588.871094,624.589844 L627.865235,635.234375 L659.169922,570.810547 L654.919922,555.720703 L648.080078,551.550781 C648.080078,551.550781 666.72461,533.470703 675.333985,512.017578 C491.650391,539.419922 467.070313,455.828125 392.464844,390.941406 Z" id="shadow" fill-opacity="0.11254529" fill="#000000" sketch:type="MSShapeGroup"></path>
            <path d="M2.05078125,254.683594 C2.05078125,254.683594 -14.2578129,404.974609 36.8515621,477.091797 C36.8515616,477.091797 628.869129,635.974609 628.869129,635.974609 L659.050769,571.833984" id="Path-8" stroke="#979797" stroke-width="6" stroke-linecap="round" sketch:type="MSShapeGroup"></path>
            <circle id="mount-over" fill="#00CBFF" sketch:type="MSShapeGroup" cx="307" cy="285" r="27"></circle>
            <path d="M307.5,301 C316.060414,301 323,294.060414 323,285.5 C323,276.939586 316.060414,270 307.5,270 C298.939586,270 292,276.939586 292,285.5 C292,294.060414 298.939586,301 307.5,301 Z" id="mount-over-2" fill="#555555" sketch:type="MSShapeGroup"></path>
            <path d="M37.8242188,164.453126 C37.8242188,164.453126 63.203125,177.691407 83.5390625,189.539063 C98.9055985,196.783967 113.75818,218.202321 125.773438,223.867188 C153.092638,236.747448 191.328125,235.625 191.328125,235.625 C191.328125,235.625 205.019531,165.062501 290.900391,156.031251 C376.78125,147.000001 410.011719,212.476562 410.011719,212.476562 C410.011719,212.476562 442.371562,204.195358 464.644531,189.539063 C485.507812,169.492188 491.574219,160.671876 502.121094,151.453126 C512.667969,142.234376 543.976562,124.323601 543.976562,124.323601 C543.976562,124.323601 475.582031,41.8359381 358.777344,16.1718752 C358.777344,16.1718752 214.347656,-2.80859375 133.136719,52.4179687 C133.136719,52.4179687 55.9296875,107.175782 37.8242188,164.453126 Z" id="highlight-top" fill-opacity="0.8" fill="#FFFFFF" sketch:type="MSShapeGroup"></path>
            <path d="M600.992188,239.824219 C600.992188,239.824219 694.480469,296.0625 681.542969,448.257812 C681.542969,448.257812 668.480469,438.533203 668.480469,436.457031 C674.003906,362.671875 636.367555,267.301469 575.6875,247.433594 L600.992188,239.824219 Z" id="highlight-visor" fill-opacity="0.8" fill="#FFFFFF" sketch:type="MSShapeGroup"></path>
            <path d="M670.089844,458.462891 L679.947266,463.978516 C679.947266,463.978516 677.064453,493.509766 660.689453,518.330078 C660.689453,518.330078 658.326172,508.703125 658.326172,508.703125 C672.357422,481.216797 670.089844,458.462891 670.089844,458.462891 Z" id="highlight-visor-2" fill-opacity="0.8" fill="#FFFFFF" sketch:type="MSShapeGroup"></path>
            <path d="M247.333984,259.896484 C267.607983,255.704094 267.231445,237.680662 295.890625,233.178709 C317.239258,230.931642 325.714844,235.959474 327.803711,235.959474 L338.230469,235.663576 L352.34375,241.992184 C352.34375,241.992184 362.001953,245.525387 368.765625,243.411129 C375.529297,241.296871 387.463867,240.060543 387.463867,240.060543 L392.606934,232.140871 L400.570312,231.390871 C400.570312,231.390871 402.384685,227.541453 399.283203,222.513672 C399.283203,222.513672 376.009766,184.537109 329.548828,174.226562 C329.548828,174.226562 275.287109,162.652344 235.191406,198.085938 C235.191406,198.085938 209.931641,217.934792 200.552734,249.914059 C224.347656,275.12109 223.154297,253.531735 247.333984,259.896484 Z" id="highlight-mount-plate" fill-opacity="0.8" fill="#FFFFFF" sketch:type="MSShapeGroup"></path>
        </g>
        <g id="helmet-green" sketch:type="MSLayerGroup" transform="translate(3.000000, 739.000000)">
            <mask id="mask-6" sketch:name="shell" fill="white">
                <use xlink:href="#path-5"></use>
            </mask>
            <use id="shell" fill-opacity="0.8" fill="#323232" sketch:type="MSShapeGroup" xlink:href="#path-5"></use>
            <path d="M-7.24609375,267.546875 L-23.9960938,434.554688 L31.2382812,525.445312 L580.789062,646.636719 L522.515625,608.898438 C522.515625,608.898438 163.277344,505.296875 93.5039062,440.199219 C82.34375,326.414062 -7.24609375,267.546875 -7.24609375,267.546875 Z" id="shadow" fill-opacity="0.0639436141" fill="#000000" sketch:type="MSShapeGroup" mask="url(#mask-6)"></path>
            <path d="M658.980447,571.10155 L654.683572,553.734362 L538.449197,516.757812 C538.449197,516.757812 433.323309,492.155241 421.980478,405.902344 C413.937509,344.742187 421.980478,294.328125 454.761728,267.179687 C485.847665,239 538.449197,228.585937 538.449197,228.585937 C538.449197,228.585937 575.917531,217.04354 607.855447,209.320315 L604.294911,199.101563 C604.294911,199.101563 521.578114,218.800781 476.443349,235.953125 C476.443349,235.953125 389.560536,272.171875 406.835927,380.1875 C406.835927,380.1875 400.732411,486.898438 512.24413,521.03125 L643.955068,566.46875 L658.980447,571.10155 Z" id="face-cutaway-lining" fill-opacity="0.8" fill="#2B2B2B" sketch:type="MSShapeGroup" mask="url(#mask-6)"></path>
            <path d="M307,404 C372.721885,404 426,350.721885 426,285 C426,219.278115 372.721885,166 307,166 C241.278115,166 188,219.278115 188,285 C188,350.721885 241.278115,404 307,404 Z" id="mount-plate" fill="#397100" sketch:type="MSShapeGroup"></path>
            <circle id="mount-under" fill="#A9FF00" sketch:type="MSShapeGroup" cx="306.5" cy="284.5" r="46.5"></circle>
            <path d="M599.992188,186.925781 L506.058594,214.589844 C506.058594,214.589844 435.058594,239.296875 300.398438,239.296875 C300.398437,239.296875 265.044922,239.296875 260.632812,277.902344 C256.220703,316.507812 285.449219,324.625 285.449219,324.625 L397.179688,385.542969 C397.179688,385.542969 390.382938,529.05594 599.425122,548.431286 C614.557779,549.833875 630.821512,550.585938 648.300781,550.585938 C727.859375,458.601562 719.175781,300.667969 610.035156,212.976562 L599.992188,186.925781 Z" id="visor" stroke="#89DA31" stroke-width="6" fill-opacity="0.7" fill="#C3DEA4" sketch:type="MSShapeGroup"></path>
            <path d="M392.464844,390.941406 C399.71875,472.292969 424.6875,526.875 578.349609,563.619141 C678.495809,638.24761 250.003899,577.121094 2.7500001,254.207031 C-6.15624955,426.117188 39.187499,477.398442 39.187499,477.398442 L588.871094,624.589844 L627.865235,635.234375 L659.169922,570.810547 L654.919922,555.720703 L648.080078,551.550781 C648.080078,551.550781 666.72461,533.470703 675.333985,512.017578 C491.650391,539.419922 467.070313,455.828125 392.464844,390.941406 Z" id="shadow" fill-opacity="0.11254529" fill="#000000" sketch:type="MSShapeGroup"></path>
            <path d="M2.05078125,254.683594 C2.05078125,254.683594 -14.2578129,404.974609 36.8515621,477.091797 C36.8515616,477.091797 628.869129,635.974609 628.869129,635.974609 L659.050769,571.833984" id="Path-8" stroke="#979797" stroke-width="6" stroke-linecap="round" sketch:type="MSShapeGroup"></path>
            <circle id="mount-over" fill="#A9FF00" sketch:type="MSShapeGroup" cx="307" cy="285" r="27"></circle>
            <path d="M307.5,301 C316.060414,301 323,294.060414 323,285.5 C323,276.939586 316.060414,270 307.5,270 C298.939586,270 292,276.939586 292,285.5 C292,294.060414 298.939586,301 307.5,301 Z" id="mount-over-2" fill="#555555" sketch:type="MSShapeGroup"></path>
            <path d="M37.8242188,164.453126 C37.8242188,164.453126 63.203125,177.691407 83.5390625,189.539063 C98.9055985,196.783967 113.75818,218.202321 125.773438,223.867188 C153.092638,236.747448 191.328125,235.625 191.328125,235.625 C191.328125,235.625 205.019531,165.062501 290.900391,156.031251 C376.78125,147.000001 410.011719,212.476562 410.011719,212.476562 C410.011719,212.476562 442.371562,204.195358 464.644531,189.539063 C485.507812,169.492188 491.574219,160.671876 502.121094,151.453126 C512.667969,142.234376 543.976562,124.323601 543.976562,124.323601 C543.976562,124.323601 475.582031,41.8359381 358.777344,16.1718752 C358.777344,16.1718752 214.347656,-2.80859375 133.136719,52.4179687 C133.136719,52.4179687 55.9296875,107.175782 37.8242188,164.453126 Z" id="highlight-top" fill-opacity="0.8" fill="#FFFFFF" sketch:type="MSShapeGroup"></path>
            <path d="M600.992188,239.824219 C600.992188,239.824219 694.480469,296.0625 681.542969,448.257812 C681.542969,448.257812 668.480469,438.533203 668.480469,436.457031 C674.003906,362.671875 636.367555,267.301469 575.6875,247.433594 L600.992188,239.824219 Z" id="highlight-visor" fill-opacity="0.8" fill="#FFFFFF" sketch:type="MSShapeGroup"></path>
            <path d="M670.089844,458.462891 L679.947266,463.978516 C679.947266,463.978516 677.064453,493.509766 660.689453,518.330078 C660.689453,518.330078 658.326172,508.703125 658.326172,508.703125 C672.357422,481.216797 670.089844,458.462891 670.089844,458.462891 Z" id="highlight-visor-2" fill-opacity="0.8" fill="#FFFFFF" sketch:type="MSShapeGroup"></path>
            <path d="M247.333984,259.896484 C267.607983,255.704094 267.231445,237.680662 295.890625,233.178709 C317.239258,230.931642 325.714844,235.959474 327.803711,235.959474 L338.230469,235.663576 L352.34375,241.992184 C352.34375,241.992184 362.001953,245.525387 368.765625,243.411129 C375.529297,241.296871 387.463867,240.060543 387.463867,240.060543 L392.606934,232.140871 L400.570312,231.390871 C400.570312,231.390871 402.384685,227.541453 399.283203,222.513672 C399.283203,222.513672 376.009766,184.537109 329.548828,174.226562 C329.548828,174.226562 275.287109,162.652344 235.191406,198.085938 C235.191406,198.085938 209.931641,217.934792 200.552734,249.914059 C224.347656,275.12109 223.154297,253.531735 247.333984,259.896484 Z" id="highlight-mount-plate" fill-opacity="0.8" fill="#FFFFFF" sketch:type="MSShapeGroup"></path>
        </g>
        <g id="helmet-aqua" sketch:type="MSLayerGroup" transform="translate(1605.000000, 1475.000000)">
            <mask id="mask-8" sketch:name="shell" fill="white">
                <use xlink:href="#path-7"></use>
            </mask>
            <use id="shell" fill-opacity="0.8" fill="#232323" sketch:type="MSShapeGroup" xlink:href="#path-7"></use>
            <path d="M-7.24609375,267.546875 L-23.9960938,434.554688 L31.2382812,525.445312 L580.789062,646.636719 L522.515625,608.898438 C522.515625,608.898438 163.277344,505.296875 93.5039062,440.199219 C82.34375,326.414062 -7.24609375,267.546875 -7.24609375,267.546875 Z" id="shadow" fill-opacity="0.0639436141" fill="#000000" sketch:type="MSShapeGroup" mask="url(#mask-8)"></path>
            <path d="M658.980447,571.10155 L654.683572,553.734362 L538.449197,516.757812 C538.449197,516.757812 433.323309,492.155241 421.980478,405.902344 C413.937509,344.742187 421.980478,294.328125 454.761728,267.179687 C485.847665,239 538.449197,228.585937 538.449197,228.585937 C538.449197,228.585937 575.917531,217.04354 607.855447,209.320315 L604.294911,199.101563 C604.294911,199.101563 521.578114,218.800781 476.443349,235.953125 C476.443349,235.953125 389.560536,272.171875 406.835927,380.1875 C406.835927,380.1875 400.732411,486.898438 512.24413,521.03125 L643.955068,566.46875 L658.980447,571.10155 Z" id="face-cutaway-lining" fill-opacity="0.8" fill="#2B2B2B" sketch:type="MSShapeGroup" mask="url(#mask-8)"></path>
            <path d="M307,404 C372.721885,404 426,350.721885 426,285 C426,219.278115 372.721885,166 307,166 C241.278115,166 188,219.278115 188,285 C188,350.721885 241.278115,404 307,404 Z" id="mount-plate" fill="#2BD3E4" sketch:type="MSShapeGroup"></path>
            <circle id="mount-under" fill="#00F2E7" sketch:type="MSShapeGroup" cx="306.5" cy="284.5" r="46.5"></circle>
            <path d="M599.992187,186.925781 L506.058594,214.589844 C506.058594,214.589844 435.058594,239.296875 300.398437,239.296875 C300.398437,239.296875 265.044922,239.296875 260.632812,277.902344 C256.220703,316.507812 285.449219,324.625 285.449219,324.625 L397.179687,385.542969 C397.179687,385.542969 390.382938,529.05594 599.425122,548.431286 C614.557779,549.833875 630.821512,550.585938 648.300781,550.585938 C727.859375,458.601562 719.175781,300.667969 610.035156,212.976562 L599.992187,186.925781 Z" id="visor" stroke="#62D8E4" stroke-width="6" fill-opacity="0.7" fill="#AEE1E6" sketch:type="MSShapeGroup"></path>
            <path d="M392.464844,390.941406 C399.71875,472.292969 424.6875,526.875 578.349609,563.619141 C678.495809,638.24761 250.003899,577.121094 2.7500001,254.207031 C-6.15624955,426.117188 39.187499,477.398442 39.187499,477.398442 L588.871094,624.589844 L627.865235,635.234375 L659.169922,570.810547 L654.919922,555.720703 L648.080078,551.550781 C648.080078,551.550781 666.72461,533.470703 675.333985,512.017578 C491.650391,539.419922 467.070313,455.828125 392.464844,390.941406 Z" id="shadow" fill-opacity="0.11254529" fill="#000000" sketch:type="MSShapeGroup"></path>
            <path d="M2.05078125,254.683594 C2.05078125,254.683594 -14.2578129,404.974609 36.8515621,477.091797 C36.8515616,477.091797 628.869129,635.974609 628.869129,635.974609 L659.050769,571.833984" id="Path-8" stroke="#979797" stroke-width="6" stroke-linecap="round" sketch:type="MSShapeGroup"></path>
            <circle id="mount-over" fill="#00F2E7" sketch:type="MSShapeGroup" cx="307" cy="285" r="27"></circle>
            <path d="M307.5,301 C316.060414,301 323,294.060414 323,285.5 C323,276.939586 316.060414,270 307.5,270 C298.939586,270 292,276.939586 292,285.5 C292,294.060414 298.939586,301 307.5,301 Z" id="mount-over-2" fill="#555555" sketch:type="MSShapeGroup"></path>
            <path d="M37.8242188,164.453126 C37.8242188,164.453126 63.203125,177.691407 83.5390625,189.539063 C98.9055985,196.783967 113.75818,218.202321 125.773438,223.867188 C153.092638,236.747448 191.328125,235.625 191.328125,235.625 C191.328125,235.625 205.019531,165.062501 290.900391,156.031251 C376.78125,147.000001 410.011719,212.476562 410.011719,212.476562 C410.011719,212.476562 442.371562,204.195358 464.644531,189.539063 C485.507812,169.492188 491.574219,160.671876 502.121094,151.453126 C512.667969,142.234376 543.976562,124.323601 543.976562,124.323601 C543.976562,124.323601 475.582031,41.8359381 358.777344,16.1718752 C358.777344,16.1718752 214.347656,-2.80859375 133.136719,52.4179687 C133.136719,52.4179687 55.9296875,107.175782 37.8242188,164.453126 Z" id="highlight-top" fill-opacity="0.8" fill="#FFFFFF" sketch:type="MSShapeGroup"></path>
            <path d="M600.992188,239.824219 C600.992188,239.824219 694.480469,296.0625 681.542969,448.257812 C681.542969,448.257812 668.480469,438.533203 668.480469,436.457031 C674.003906,362.671875 636.367555,267.301469 575.6875,247.433594 L600.992188,239.824219 Z" id="highlight-visor" fill-opacity="0.8" fill="#FFFFFF" sketch:type="MSShapeGroup"></path>
            <path d="M670.089844,458.462891 L679.947266,463.978516 C679.947266,463.978516 677.064453,493.509766 660.689453,518.330078 C660.689453,518.330078 658.326172,508.703125 658.326172,508.703125 C672.357422,481.216797 670.089844,458.462891 670.089844,458.462891 Z" id="highlight-visor-2" fill-opacity="0.8" fill="#FFFFFF" sketch:type="MSShapeGroup"></path>
            <path d="M247.333984,259.896484 C267.607983,255.704094 267.231445,237.680662 295.890625,233.178709 C317.239258,230.931642 325.714844,235.959474 327.803711,235.959474 L338.230469,235.663576 L352.34375,241.992184 C352.34375,241.992184 362.001953,245.525387 368.765625,243.411129 C375.529297,241.296871 387.463867,240.060543 387.463867,240.060543 L392.606934,232.140871 L400.570312,231.390871 C400.570312,231.390871 402.384685,227.541453 399.283203,222.513672 C399.283203,222.513672 376.009766,184.537109 329.548828,174.226562 C329.548828,174.226562 275.287109,162.652344 235.191406,198.085938 C235.191406,198.085938 209.931641,217.934792 200.552734,249.914059 C224.347656,275.12109 223.154297,253.531735 247.333984,259.896484 Z" id="highlight-mount-plate" fill-opacity="0.8" fill="#FFFFFF" sketch:type="MSShapeGroup"></path>
        </g>
        <g id="helmet-rasta" sketch:type="MSLayerGroup" transform="translate(804.000000, 1475.000000)">
            <mask id="mask-10" sketch:name="shell" fill="white">
                <use xlink:href="#path-9"></use>
            </mask>
            <use id="shell" fill="#81D828" sketch:type="MSShapeGroup" xlink:href="#path-9"></use>
            <path d="M-7.24609375,267.546875 L-23.9960938,434.554688 L31.2382812,525.445312 L580.789062,646.636719 L522.515625,608.898438 C522.515625,608.898438 163.277344,505.296875 93.5039062,440.199219 C82.34375,326.414062 -7.24609375,267.546875 -7.24609375,267.546875 Z" id="shadow" fill-opacity="0.0639436141" fill="#000000" sketch:type="MSShapeGroup" mask="url(#mask-10)"></path>
            <path d="M658.980447,571.10155 L654.683572,553.734362 L538.449197,516.757812 C538.449197,516.757812 433.323309,492.155241 421.980478,405.902344 C413.937509,344.742187 421.980478,294.328125 454.761728,267.179687 C485.847665,239 538.449197,228.585937 538.449197,228.585937 C538.449197,228.585937 575.917531,217.04354 607.855447,209.320315 L604.294911,199.101563 C604.294911,199.101563 521.578114,218.800781 476.443349,235.953125 C476.443349,235.953125 389.560536,272.171875 406.835927,380.1875 C406.835927,380.1875 400.732411,486.898438 512.24413,521.03125 L643.955068,566.46875 L658.980447,571.10155 Z" id="face-cutaway-lining" fill-opacity="0.8" fill="#2B2B2B" sketch:type="MSShapeGroup" mask="url(#mask-10)"></path>
            <path d="M307,404 C372.721885,404 426,350.721885 426,285 C426,219.278115 372.721885,166 307,166 C241.278115,166 188,219.278115 188,285 C188,350.721885 241.278115,404 307,404 Z" id="mount-plate" fill="#F0D118" sketch:type="MSShapeGroup"></path>
            <circle id="mount-under" fill="#FFED00" sketch:type="MSShapeGroup" cx="306.5" cy="284.5" r="46.5"></circle>
            <path d="M599.992188,186.925781 L506.058594,214.589844 C506.058594,214.589844 435.058594,239.296875 300.398438,239.296875 C300.398437,239.296875 265.044922,239.296875 260.632812,277.902344 C256.220703,316.507812 285.449219,324.625 285.449219,324.625 L397.179688,385.542969 C397.179688,385.542969 390.382938,529.05594 599.425122,548.431286 C614.557779,549.833875 630.821512,550.585938 648.300781,550.585938 C727.859375,458.601562 719.175781,300.667969 610.035156,212.976562 L599.992188,186.925781 Z" id="visor" stroke="#B1B1B1" stroke-width="6" fill-opacity="0.7" fill="#000000" sketch:type="MSShapeGroup"></path>
            <path d="M392.464844,390.941406 C399.71875,472.292969 424.6875,526.875 578.349609,563.619141 C678.495809,638.24761 250.003899,577.121094 2.7500001,254.207031 C-6.15624955,426.117188 39.187499,477.398442 39.187499,477.398442 L588.871094,624.589844 L627.865235,635.234375 L659.169922,570.810547 L654.919922,555.720703 L648.080078,551.550781 C648.080078,551.550781 666.72461,533.470703 675.333985,512.017578 C491.650391,539.419922 467.070313,455.828125 392.464844,390.941406 Z" id="shadow" fill-opacity="0.11254529" fill="#000000" sketch:type="MSShapeGroup"></path>
            <path d="M2.05078125,254.683594 C2.05078125,254.683594 -14.2578129,404.974609 36.8515621,477.091797 C36.8515616,477.091797 628.869129,635.974609 628.869129,635.974609 L659.050769,571.833984" id="Path-8" stroke="#979797" stroke-width="6" stroke-linecap="round" sketch:type="MSShapeGroup"></path>
            <circle id="mount-over" fill="#D0011B" sketch:type="MSShapeGroup" cx="307" cy="285" r="27"></circle>
            <path d="M307.5,301 C316.060414,301 323,294.060414 323,285.5 C323,276.939586 316.060414,270 307.5,270 C298.939586,270 292,276.939586 292,285.5 C292,294.060414 298.939586,301 307.5,301 Z" id="mount-over-2" fill="#555555" sketch:type="MSShapeGroup"></path>
            <path d="M37.8242188,164.453126 C37.8242188,164.453126 63.203125,177.691407 83.5390625,189.539063 C98.9055985,196.783967 113.75818,218.202321 125.773438,223.867188 C153.092638,236.747448 191.328125,235.625 191.328125,235.625 C191.328125,235.625 205.019531,165.062501 290.900391,156.031251 C376.78125,147.000001 410.011719,212.476562 410.011719,212.476562 C410.011719,212.476562 442.371562,204.195358 464.644531,189.539063 C485.507812,169.492188 491.574219,160.671876 502.121094,151.453126 C512.667969,142.234376 543.976562,124.323601 543.976562,124.323601 C543.976562,124.323601 475.582031,41.8359381 358.777344,16.1718752 C358.777344,16.1718752 214.347656,-2.80859375 133.136719,52.4179687 C133.136719,52.4179687 55.9296875,107.175782 37.8242188,164.453126 Z" id="highlight-top" fill-opacity="0.8" fill="#FFFFFF" sketch:type="MSShapeGroup"></path>
            <path d="M600.992188,239.824219 C600.992188,239.824219 694.480469,296.0625 681.542969,448.257812 C681.542969,448.257812 668.480469,438.533203 668.480469,436.457031 C674.003906,362.671875 636.367555,267.301469 575.6875,247.433594 L600.992188,239.824219 Z" id="highlight-visor" fill-opacity="0.8" fill="#FFFFFF" sketch:type="MSShapeGroup"></path>
            <path d="M670.089844,458.462891 L679.947266,463.978516 C679.947266,463.978516 677.064453,493.509766 660.689453,518.330078 C660.689453,518.330078 658.326172,508.703125 658.326172,508.703125 C672.357422,481.216797 670.089844,458.462891 670.089844,458.462891 Z" id="highlight-visor-2" fill-opacity="0.8" fill="#FFFFFF" sketch:type="MSShapeGroup"></path>
            <path d="M247.333984,259.896484 C267.607983,255.704094 267.231445,237.680662 295.890625,233.178709 C317.239258,230.931642 325.714844,235.959474 327.803711,235.959474 L338.230469,235.663576 L352.34375,241.992184 C352.34375,241.992184 362.001953,245.525387 368.765625,243.411129 C375.529297,241.296871 387.463867,240.060543 387.463867,240.060543 L392.606934,232.140871 L400.570312,231.390871 C400.570312,231.390871 402.384685,227.541453 399.283203,222.513672 C399.283203,222.513672 376.009766,184.537109 329.548828,174.226562 C329.548828,174.226562 275.287109,162.652344 235.191406,198.085938 C235.191406,198.085938 209.931641,217.934792 200.552734,249.914059 C224.347656,275.12109 223.154297,253.531735 247.333984,259.896484 Z" id="highlight-mount-plate" fill-opacity="0.8" fill="#FFFFFF" sketch:type="MSShapeGroup"></path>
        </g>
        <g id="helmet-red" sketch:type="MSLayerGroup" transform="translate(3.000000, 1475.000000)">
            <mask id="mask-12" sketch:name="shell" fill="white">
                <use xlink:href="#path-11"></use>
            </mask>
            <use id="shell" fill-opacity="0.8" fill="#EA0000" sketch:type="MSShapeGroup" xlink:href="#path-11"></use>
            <path d="M-7.24609375,267.546875 L-23.9960938,434.554688 L31.2382812,525.445312 L580.789062,646.636719 L522.515625,608.898438 C522.515625,608.898438 163.277344,505.296875 93.5039062,440.199219 C82.34375,326.414062 -7.24609375,267.546875 -7.24609375,267.546875 Z" id="shadow" fill-opacity="0.0639436141" fill="#000000" sketch:type="MSShapeGroup" mask="url(#mask-12)"></path>
            <path d="M658.980447,571.10155 L654.683572,553.734362 L538.449197,516.757812 C538.449197,516.757812 433.323309,492.155241 421.980478,405.902344 C413.937509,344.742187 421.980478,294.328125 454.761728,267.179687 C485.847665,239 538.449197,228.585937 538.449197,228.585937 C538.449197,228.585937 575.917531,217.04354 607.855447,209.320315 L604.294911,199.101563 C604.294911,199.101563 521.578114,218.800781 476.443349,235.953125 C476.443349,235.953125 389.560536,272.171875 406.835927,380.1875 C406.835927,380.1875 400.732411,486.898438 512.24413,521.03125 L643.955068,566.46875 L658.980447,571.10155 Z" id="face-cutaway-lining" fill-opacity="0.8" fill="#2B2B2B" sketch:type="MSShapeGroup" mask="url(#mask-12)"></path>
            <path d="M307,404 C372.721885,404 426,350.721885 426,285 C426,219.278115 372.721885,166 307,166 C241.278115,166 188,219.278115 188,285 C188,350.721885 241.278115,404 307,404 Z" id="mount-plate" fill="#DADADA" sketch:type="MSShapeGroup"></path>
            <circle id="mount-under" fill="#FFFFFF" sketch:type="MSShapeGroup" cx="306.5" cy="284.5" r="46.5"></circle>
            <path d="M599.992188,186.925781 L506.058594,214.589844 C506.058594,214.589844 435.058594,239.296875 300.398438,239.296875 C300.398437,239.296875 265.044922,239.296875 260.632812,277.902344 C256.220703,316.507812 285.449219,324.625 285.449219,324.625 L397.179688,385.542969 C397.179688,385.542969 390.382938,529.05594 599.425122,548.431286 C614.557779,549.833875 630.821512,550.585938 648.300781,550.585938 C727.859375,458.601562 719.175781,300.667969 610.035156,212.976562 L599.992188,186.925781 Z" id="visor" stroke="#B1B1B1" stroke-width="6" fill-opacity="0.7" fill="#E1E1E1" sketch:type="MSShapeGroup"></path>
            <path d="M392.464844,390.941406 C399.71875,472.292969 424.6875,526.875 578.349609,563.619141 C678.495809,638.24761 250.003899,577.121094 2.7500001,254.207031 C-6.15624955,426.117188 39.187499,477.398442 39.187499,477.398442 L588.871094,624.589844 L627.865235,635.234375 L659.169922,570.810547 L654.919922,555.720703 L648.080078,551.550781 C648.080078,551.550781 666.72461,533.470703 675.333985,512.017578 C491.650391,539.419922 467.070313,455.828125 392.464844,390.941406 Z" id="shadow" fill-opacity="0.11254529" fill="#000000" sketch:type="MSShapeGroup"></path>
            <path d="M2.05078125,254.683594 C2.05078125,254.683594 -14.2578129,404.974609 36.8515621,477.091797 C36.8515616,477.091797 628.869129,635.974609 628.869129,635.974609 L659.050769,571.833984" id="Path-8" stroke="#979797" stroke-width="6" stroke-linecap="round" sketch:type="MSShapeGroup"></path>
            <circle id="mount-over" fill="#FFFFFF" sketch:type="MSShapeGroup" cx="307" cy="285" r="27"></circle>
            <path d="M307.5,301 C316.060414,301 323,294.060414 323,285.5 C323,276.939586 316.060414,270 307.5,270 C298.939586,270 292,276.939586 292,285.5 C292,294.060414 298.939586,301 307.5,301 Z" id="mount-over-2" fill="#555555" sketch:type="MSShapeGroup"></path>
            <path d="M37.8242188,164.453126 C37.8242188,164.453126 63.203125,177.691407 83.5390625,189.539063 C98.9055985,196.783967 113.75818,218.202321 125.773438,223.867188 C153.092638,236.747448 191.328125,235.625 191.328125,235.625 C191.328125,235.625 205.019531,165.062501 290.900391,156.031251 C376.78125,147.000001 410.011719,212.476562 410.011719,212.476562 C410.011719,212.476562 442.371562,204.195358 464.644531,189.539063 C485.507812,169.492188 491.574219,160.671876 502.121094,151.453126 C512.667969,142.234376 543.976562,124.323601 543.976562,124.323601 C543.976562,124.323601 475.582031,41.8359381 358.777344,16.1718752 C358.777344,16.1718752 214.347656,-2.80859375 133.136719,52.4179687 C133.136719,52.4179687 55.9296875,107.175782 37.8242188,164.453126 Z" id="highlight-top" fill-opacity="0.8" fill="#FFFFFF" sketch:type="MSShapeGroup"></path>
            <path d="M600.992188,239.824219 C600.992188,239.824219 694.480469,296.0625 681.542969,448.257812 C681.542969,448.257812 668.480469,438.533203 668.480469,436.457031 C674.003906,362.671875 636.367555,267.301469 575.6875,247.433594 L600.992188,239.824219 Z" id="highlight-visor" fill-opacity="0.8" fill="#FFFFFF" sketch:type="MSShapeGroup"></path>
            <path d="M670.089844,458.462891 L679.947266,463.978516 C679.947266,463.978516 677.064453,493.509766 660.689453,518.330078 C660.689453,518.330078 658.326172,508.703125 658.326172,508.703125 C672.357422,481.216797 670.089844,458.462891 670.089844,458.462891 Z" id="highlight-visor-2" fill-opacity="0.8" fill="#FFFFFF" sketch:type="MSShapeGroup"></path>
            <path d="M247.333984,259.896484 C267.607983,255.704094 267.231445,237.680662 295.890625,233.178709 C317.239258,230.931642 325.714844,235.959474 327.803711,235.959474 L338.230469,235.663576 L352.34375,241.992184 C352.34375,241.992184 362.001953,245.525387 368.765625,243.411129 C375.529297,241.296871 387.463867,240.060543 387.463867,240.060543 L392.606934,232.140871 L400.570312,231.390871 C400.570312,231.390871 402.384685,227.541453 399.283203,222.513672 C399.283203,222.513672 376.009766,184.537109 329.548828,174.226562 C329.548828,174.226562 275.287109,162.652344 235.191406,198.085938 C235.191406,198.085938 209.931641,217.934792 200.552734,249.914059 C224.347656,275.12109 223.154297,253.531735 247.333984,259.896484 Z" id="highlight-mount-plate" fill-opacity="0.8" fill="#FFFFFF" sketch:type="MSShapeGroup"></path>
        </g>
        <g id="helmet-pink/purple" sketch:type="MSLayerGroup" transform="translate(1605.000000, 3.000000)">
            <mask id="mask-14" sketch:name="shell" fill="white">
                <use xlink:href="#path-13"></use>
            </mask>
            <use id="shell" fill="#705995" sketch:type="MSShapeGroup" xlink:href="#path-13"></use>
            <path d="M-7.24609375,267.546875 L-23.9960938,434.554688 L31.2382812,525.445312 L580.789062,646.636719 L522.515625,608.898438 C522.515625,608.898438 163.277344,505.296875 93.5039062,440.199219 C82.34375,326.414062 -7.24609375,267.546875 -7.24609375,267.546875 Z" id="shadow" fill-opacity="0.0639436141" fill="#000000" sketch:type="MSShapeGroup" mask="url(#mask-14)"></path>
            <path d="M658.980447,571.10155 L654.683572,553.734362 L538.449197,516.757812 C538.449197,516.757812 433.323309,492.155241 421.980478,405.902344 C413.937509,344.742187 421.980478,294.328125 454.761728,267.179687 C485.847665,239 538.449197,228.585937 538.449197,228.585937 C538.449197,228.585937 575.917531,217.04354 607.855447,209.320315 L604.294911,199.101563 C604.294911,199.101563 521.578114,218.800781 476.443349,235.953125 C476.443349,235.953125 389.560536,272.171875 406.835927,380.1875 C406.835927,380.1875 400.732411,486.898438 512.24413,521.03125 L643.955068,566.46875 L658.980447,571.10155 Z" id="face-cutaway-lining" fill-opacity="0.8" fill="#2B2B2B" sketch:type="MSShapeGroup" mask="url(#mask-14)"></path>
            <circle id="mount-plate" fill="#ED00BF" sketch:type="MSShapeGroup" cx="307" cy="285" r="119"></circle>
            <circle id="mount-under" fill="#E24AD7" sketch:type="MSShapeGroup" cx="306.5" cy="284.5" r="46.5"></circle>
            <path d="M599.992188,186.925781 L506.058594,214.589844 C506.058594,214.589844 435.058594,239.296875 300.398438,239.296875 C300.398437,239.296875 265.044922,239.296875 260.632812,277.902344 C256.220703,316.507812 285.449219,324.625 285.449219,324.625 L397.179688,385.542969 C397.179688,385.542969 390.382938,529.05594 599.425122,548.431286 C614.557779,549.833875 630.821512,550.585938 648.300781,550.585938 C727.859375,458.601562 719.175781,300.667969 610.035156,212.976562 L599.992188,186.925781 Z" id="visor" stroke="#AA88A9" stroke-width="6" fill-opacity="0.7" fill="#AC84AB" sketch:type="MSShapeGroup"></path>
            <path d="M392.464844,390.941406 C399.71875,472.292969 424.6875,526.875 578.349609,563.619141 C678.495809,638.24761 250.003899,577.121094 2.7500001,254.207031 C-6.15624955,426.117188 39.187499,477.398442 39.187499,477.398442 L588.871094,624.589844 L627.865235,635.234375 L659.169922,570.810547 L654.919922,555.720703 L648.080078,551.550781 C648.080078,551.550781 666.72461,533.470703 675.333985,512.017578 C491.650391,539.419922 467.070313,455.828125 392.464844,390.941406 Z" id="shadow" fill-opacity="0.11254529" fill="#000000" sketch:type="MSShapeGroup"></path>
            <path d="M2.05078125,254.683594 C2.05078125,254.683594 -14.2578129,404.974609 36.8515621,477.091797 C36.8515616,477.091797 628.869129,635.974609 628.869129,635.974609 L659.050769,571.833984" id="Path-8" stroke="#979797" stroke-width="6" stroke-linecap="round" sketch:type="MSShapeGroup"></path>
            <circle id="mount-over" fill="#E24AD7" sketch:type="MSShapeGroup" cx="307" cy="285" r="27"></circle>
            <path d="M307.5,301 C316.060414,301 323,294.060414 323,285.5 C323,276.939586 316.060414,270 307.5,270 C298.939586,270 292,276.939586 292,285.5 C292,294.060414 298.939586,301 307.5,301 Z" id="mount-over-2" fill="#555555" sketch:type="MSShapeGroup"></path>
            <path d="M37.8242188,164.453126 C37.8242188,164.453126 63.203125,177.691407 83.5390625,189.539063 C98.9055985,196.783967 113.75818,218.202321 125.773438,223.867188 C153.092638,236.747448 191.328125,235.625 191.328125,235.625 C191.328125,235.625 205.019531,165.062501 290.900391,156.031251 C376.78125,147.000001 410.011719,212.476562 410.011719,212.476562 C410.011719,212.476562 442.371562,204.195358 464.644531,189.539063 C485.507812,169.492188 491.574219,160.671876 502.121094,151.453126 C512.667969,142.234376 543.976562,124.323601 543.976562,124.323601 C543.976562,124.323601 475.582031,41.8359381 358.777344,16.1718752 C358.777344,16.1718752 214.347656,-2.80859375 133.136719,52.4179687 C133.136719,52.4179687 55.9296875,107.175782 37.8242188,164.453126 Z" id="highlight-top" fill-opacity="0.8" fill="#FFFFFF" sketch:type="MSShapeGroup"></path>
            <path d="M600.992188,239.824219 C600.992188,239.824219 694.480469,296.0625 681.542969,448.257812 C681.542969,448.257812 668.480469,438.533203 668.480469,436.457031 C674.003906,362.671875 636.367555,267.301469 575.6875,247.433594 L600.992188,239.824219 Z" id="highlight-visor" fill-opacity="0.8" fill="#FFFFFF" sketch:type="MSShapeGroup"></path>
            <path d="M670.089844,458.462891 L679.947266,463.978516 C679.947266,463.978516 677.064453,493.509766 660.689453,518.330078 C660.689453,518.330078 658.326172,508.703125 658.326172,508.703125 C672.357422,481.216797 670.089844,458.462891 670.089844,458.462891 Z" id="highlight-visor-2" fill-opacity="0.8" fill="#FFFFFF" sketch:type="MSShapeGroup"></path>
            <path d="M247.333984,259.896484 C267.607983,255.704094 267.231445,237.680662 295.890625,233.178709 C317.239258,230.931642 325.714844,235.959474 327.803711,235.959474 L338.230469,235.663576 L352.34375,241.992184 C352.34375,241.992184 362.001953,245.525387 368.765625,243.411129 C375.529297,241.296871 387.463867,240.060543 387.463867,240.060543 L392.606934,232.140871 L400.570312,231.390871 C400.570312,231.390871 402.384685,227.541453 399.283203,222.513672 C399.283203,222.513672 376.009766,184.537109 329.548828,174.226562 C329.548828,174.226562 275.287109,162.652344 235.191406,198.085938 C235.191406,198.085938 209.931641,217.934792 200.552734,249.914059 C224.347656,275.12109 223.154297,253.531735 247.333984,259.896484 Z" id="highlight-mount-plate" fill-opacity="0.8" fill="#FFFFFF" sketch:type="MSShapeGroup"></path>
        </g>
        <g id="helmet-orange" sketch:type="MSLayerGroup" transform="translate(804.000000, 3.000000)">
            <mask id="mask-16" sketch:name="shell" fill="white">
                <use xlink:href="#path-15"></use>
            </mask>
            <use id="shell" fill-opacity="0.8" fill="#8F8F8F" sketch:type="MSShapeGroup" xlink:href="#path-15"></use>
            <path d="M-7.24609375,267.546875 L-23.9960938,434.554688 L31.2382812,525.445312 L580.789062,646.636719 L522.515625,608.898438 C522.515625,608.898438 163.277344,505.296875 93.5039062,440.199219 C82.34375,326.414062 -7.24609375,267.546875 -7.24609375,267.546875 Z" id="shadow" fill-opacity="0.0639436141" fill="#000000" sketch:type="MSShapeGroup" mask="url(#mask-16)"></path>
            <path d="M658.980447,571.10155 L654.683572,553.734362 L538.449197,516.757812 C538.449197,516.757812 433.323309,492.155241 421.980478,405.902344 C413.937509,344.742187 421.980478,294.328125 454.761728,267.179687 C485.847665,239 538.449197,228.585937 538.449197,228.585937 C538.449197,228.585937 575.917531,217.04354 607.855447,209.320315 L604.294911,199.101563 C604.294911,199.101563 521.578114,218.800781 476.443349,235.953125 C476.443349,235.953125 389.560536,272.171875 406.835927,380.1875 C406.835927,380.1875 400.732411,486.898438 512.24413,521.03125 L643.955068,566.46875 L658.980447,571.10155 Z" id="face-cutaway-lining" fill-opacity="0.8" fill="#2B2B2B" sketch:type="MSShapeGroup" mask="url(#mask-16)"></path>
            <circle id="mount-plate" fill="#ED9500" sketch:type="MSShapeGroup" cx="307" cy="285" r="119"></circle>
            <circle id="mount-under" fill="#FF8A00" sketch:type="MSShapeGroup" cx="306.5" cy="284.5" r="46.5"></circle>
            <path d="M599.992188,186.925781 L506.058594,214.589844 C506.058594,214.589844 435.058594,239.296875 300.398438,239.296875 C300.398437,239.296875 265.044922,239.296875 260.632812,277.902344 C256.220703,316.507812 285.449219,324.625 285.449219,324.625 L397.179688,385.542969 C397.179688,385.542969 390.382938,529.05594 599.425122,548.431286 C614.557779,549.833875 630.821512,550.585938 648.300781,550.585938 C727.859375,458.601562 719.175781,300.667969 610.035156,212.976562 L599.992188,186.925781 Z" id="visor" stroke="#D35C00" stroke-width="6" fill-opacity="0.7" fill="#F3CB88" sketch:type="MSShapeGroup"></path>
            <path d="M392.464844,390.941406 C399.71875,472.292969 424.6875,526.875 578.349609,563.619141 C678.495809,638.24761 250.003899,577.121094 2.7500001,254.207031 C-6.15624955,426.117188 39.187499,477.398442 39.187499,477.398442 L588.871094,624.589844 L627.865235,635.234375 L659.169922,570.810547 L654.919922,555.720703 L648.080078,551.550781 C648.080078,551.550781 666.72461,533.470703 675.333985,512.017578 C491.650391,539.419922 467.070313,455.828125 392.464844,390.941406 Z" id="shadow" fill-opacity="0.11254529" fill="#000000" sketch:type="MSShapeGroup"></path>
            <path d="M2.05078125,254.683594 C2.05078125,254.683594 -14.2578129,404.974609 36.8515621,477.091797 C36.8515616,477.091797 628.869129,635.974609 628.869129,635.974609 L659.050769,571.833984" id="Path-8" stroke="#979797" stroke-width="6" stroke-linecap="round" sketch:type="MSShapeGroup"></path>
            <circle id="mount-over" fill="#FF8A00" sketch:type="MSShapeGroup" cx="307" cy="285" r="27"></circle>
            <path d="M307.5,301 C316.060414,301 323,294.060414 323,285.5 C323,276.939586 316.060414,270 307.5,270 C298.939586,270 292,276.939586 292,285.5 C292,294.060414 298.939586,301 307.5,301 Z" id="mount-over-2" fill="#555555" sketch:type="MSShapeGroup"></path>
            <path d="M37.8242188,164.453126 C37.8242188,164.453126 63.203125,177.691407 83.5390625,189.539063 C98.9055985,196.783967 113.75818,218.202321 125.773438,223.867188 C153.092638,236.747448 191.328125,235.625 191.328125,235.625 C191.328125,235.625 205.019531,165.062501 290.900391,156.031251 C376.78125,147.000001 410.011719,212.476562 410.011719,212.476562 C410.011719,212.476562 442.371562,204.195358 464.644531,189.539063 C485.507812,169.492188 491.574219,160.671876 502.121094,151.453126 C512.667969,142.234376 543.976562,124.323601 543.976562,124.323601 C543.976562,124.323601 475.582031,41.8359381 358.777344,16.1718752 C358.777344,16.1718752 214.347656,-2.80859375 133.136719,52.4179687 C133.136719,52.4179687 55.9296875,107.175782 37.8242188,164.453126 Z" id="highlight-top" fill-opacity="0.8" fill="#FFFFFF" sketch:type="MSShapeGroup"></path>
            <path d="M600.992188,239.824219 C600.992188,239.824219 694.480469,296.0625 681.542969,448.257812 C681.542969,448.257812 668.480469,438.533203 668.480469,436.457031 C674.003906,362.671875 636.367555,267.301469 575.6875,247.433594 L600.992188,239.824219 Z" id="highlight-visor" fill-opacity="0.8" fill="#FFFFFF" sketch:type="MSShapeGroup"></path>
            <path d="M670.089844,458.462891 L679.947266,463.978516 C679.947266,463.978516 677.064453,493.509766 660.689453,518.330078 C660.689453,518.330078 658.326172,508.703125 658.326172,508.703125 C672.357422,481.216797 670.089844,458.462891 670.089844,458.462891 Z" id="highlight-visor-2" fill-opacity="0.8" fill="#FFFFFF" sketch:type="MSShapeGroup"></path>
            <path d="M247.333984,259.896484 C267.607983,255.704094 267.231445,237.680662 295.890625,233.178709 C317.239258,230.931642 325.714844,235.959474 327.803711,235.959474 L338.230469,235.663576 L352.34375,241.992184 C352.34375,241.992184 362.001953,245.525387 368.765625,243.411129 C375.529297,241.296871 387.463867,240.060543 387.463867,240.060543 L392.606934,232.140871 L400.570312,231.390871 C400.570312,231.390871 402.384685,227.541453 399.283203,222.513672 C399.283203,222.513672 376.009766,184.537109 329.548828,174.226562 C329.548828,174.226562 275.287109,162.652344 235.191406,198.085938 C235.191406,198.085938 209.931641,217.934792 200.552734,249.914059 C224.347656,275.12109 223.154297,253.531735 247.333984,259.896484 Z" id="highlight-mount-plate" fill-opacity="0.8" fill="#FFFFFF" sketch:type="MSShapeGroup"></path>
        </g>
        <g id="helmet-blue" sketch:type="MSLayerGroup" transform="translate(3.000000, 3.000000)">
            <mask id="mask-18" sketch:name="shell" fill="white">
                <use xlink:href="#path-17"></use>
            </mask>
            <use id="shell" fill-opacity="0.8" fill="#353535" sketch:type="MSShapeGroup" xlink:href="#path-17"></use>
            <path d="M-7.24609375,267.546875 L-23.9960938,434.554688 L31.2382812,525.445312 L580.789062,646.636719 L522.515625,608.898438 C522.515625,608.898438 163.277344,505.296875 93.5039062,440.199219 C82.34375,326.414062 -7.24609375,267.546875 -7.24609375,267.546875 Z" id="shadow" fill-opacity="0.0639436141" fill="#000000" sketch:type="MSShapeGroup" mask="url(#mask-18)"></path>
            <path d="M658.980447,571.10155 L654.683572,553.734362 L538.449197,516.757812 C538.449197,516.757812 433.323309,492.155241 421.980478,405.902344 C413.937509,344.742187 421.980478,294.328125 454.761728,267.179687 C485.847665,239 538.449197,228.585937 538.449197,228.585937 C538.449197,228.585937 575.917531,217.04354 607.855447,209.320315 L604.294911,199.101563 C604.294911,199.101563 521.578114,218.800781 476.443349,235.953125 C476.443349,235.953125 389.560536,272.171875 406.835927,380.1875 C406.835927,380.1875 400.732411,486.898438 512.24413,521.03125 L643.955068,566.46875 L658.980447,571.10155 Z" id="face-cutaway-lining" fill-opacity="0.8" fill="#2B2B2B" sketch:type="MSShapeGroup" mask="url(#mask-18)"></path>
            <circle id="mount-plate" fill="#00ADFF" sketch:type="MSShapeGroup" cx="307" cy="285" r="119"></circle>
            <circle id="mount-under" fill="#00D4FF" sketch:type="MSShapeGroup" cx="306.5" cy="284.5" r="46.5"></circle>
            <path d="M599.992188,186.925781 L506.058594,214.589844 C506.058594,214.589844 435.058594,239.296875 300.398438,239.296875 C300.398437,239.296875 265.044922,239.296875 260.632812,277.902344 C256.220703,316.507812 285.449219,324.625 285.449219,324.625 L397.179688,385.542969 C397.179688,385.542969 390.382938,529.05594 599.425122,548.431286 C614.557779,549.833875 630.821512,550.585938 648.300781,550.585938 C727.859375,458.601562 719.175781,300.667969 610.035156,212.976562 L599.992188,186.925781 Z" id="visor" stroke="#B1B1B1" stroke-width="6" fill-opacity="0.7" fill="#393939" sketch:type="MSShapeGroup"></path>
            <path d="M392.464844,390.941406 C399.71875,472.292969 424.6875,526.875 578.349609,563.619141 C678.495809,638.24761 250.003899,577.121094 2.7500001,254.207031 C-6.15624955,426.117188 39.187499,477.398442 39.187499,477.398442 L588.871094,624.589844 L627.865235,635.234375 L659.169922,570.810547 L654.919922,555.720703 L648.080078,551.550781 C648.080078,551.550781 666.72461,533.470703 675.333985,512.017578 C491.650391,539.419922 467.070313,455.828125 392.464844,390.941406 Z" id="shadow" fill-opacity="0.11254529" fill="#000000" sketch:type="MSShapeGroup"></path>
            <path d="M2.05078125,254.683594 C2.05078125,254.683594 -14.2578129,404.974609 36.8515621,477.091797 C36.8515616,477.091797 628.869129,635.974609 628.869129,635.974609 L659.050769,571.833984" id="Path-8" stroke="#979797" stroke-width="6" stroke-linecap="round" sketch:type="MSShapeGroup"></path>
            <circle id="mount-over" fill="#00C8FF" sketch:type="MSShapeGroup" cx="307" cy="285" r="27"></circle>
            <path d="M307.5,301 C316.060414,301 323,294.060414 323,285.5 C323,276.939586 316.060414,270 307.5,270 C298.939586,270 292,276.939586 292,285.5 C292,294.060414 298.939586,301 307.5,301 Z" id="mount-over-2" fill="#555555" sketch:type="MSShapeGroup"></path>
            <path d="M37.8242188,164.453126 C37.8242188,164.453126 63.203125,177.691407 83.5390625,189.539063 C98.9055985,196.783967 113.75818,218.202321 125.773438,223.867188 C153.092638,236.747448 191.328125,235.625 191.328125,235.625 C191.328125,235.625 205.019531,165.062501 290.900391,156.031251 C376.78125,147.000001 410.011719,212.476562 410.011719,212.476562 C410.011719,212.476562 442.371562,204.195358 464.644531,189.539063 C485.507812,169.492188 491.574219,160.671876 502.121094,151.453126 C512.667969,142.234376 543.976562,124.323601 543.976562,124.323601 C543.976562,124.323601 475.582031,41.8359381 358.777344,16.1718752 C358.777344,16.1718752 214.347656,-2.80859375 133.136719,52.4179687 C133.136719,52.4179687 55.9296875,107.175782 37.8242188,164.453126 Z" id="highlight-top" fill-opacity="0.8" fill="#FFFFFF" sketch:type="MSShapeGroup"></path>
            <path d="M600.992188,239.824219 C600.992188,239.824219 694.480469,296.0625 681.542969,448.257812 C681.542969,448.257812 668.480469,438.533203 668.480469,436.457031 C674.003906,362.671875 636.367555,267.301469 575.6875,247.433594 L600.992188,239.824219 Z" id="highlight-visor" fill-opacity="0.8" fill="#FFFFFF" sketch:type="MSShapeGroup"></path>
            <path d="M670.089844,458.462891 L679.947266,463.978516 C679.947266,463.978516 677.064453,493.509766 660.689453,518.330078 C660.689453,518.330078 658.326172,508.703125 658.326172,508.703125 C672.357422,481.216797 670.089844,458.462891 670.089844,458.462891 Z" id="highlight-visor-2" fill-opacity="0.8" fill="#FFFFFF" sketch:type="MSShapeGroup"></path>
            <path d="M247.333984,259.896484 C267.607983,255.704094 267.231445,237.680662 295.890625,233.178709 C317.239258,230.931642 325.714844,235.959474 327.803711,235.959474 L338.230469,235.663576 L352.34375,241.992184 C352.34375,241.992184 362.001953,245.525387 368.765625,243.411129 C375.529297,241.296871 387.463867,240.060543 387.463867,240.060543 L392.606934,232.140871 L400.570312,231.390871 C400.570312,231.390871 402.384685,227.541453 399.283203,222.513672 C399.283203,222.513672 376.009766,184.537109 329.548828,174.226562 C329.548828,174.226562 275.287109,162.652344 235.191406,198.085938 C235.191406,198.085938 209.931641,217.934792 200.552734,249.914059 C224.347656,275.12109 223.154297,253.531735 247.333984,259.896484 Z" id="highlight-mount-plate" fill-opacity="0.8" fill="#FFFFFF" sketch:type="MSShapeGroup"></path>
        </g>
    </g>
</svg>