<svg width="2309" height="2111" xmlns="http://www.w3.org/2000/svg" xmlns:xlink="http://www.w3.org/1999/xlink"><defs><path id="a" d="M38.02 477.477L627.953 635.16l31.027-64.058-4.296-17.368-116.235-36.976S433.323 492.155 421.98 405.902c-8.042-61.16 0-111.574 32.782-138.722 31.086-28.18 83.687-38.594 83.687-38.594l69.406-19.266s-5.501-9.88-10.546-26.297c-13.952-45.392-87.34-123.056-173.357-158.922C345.453-9.66 266.129-.126 231.805 4.93c-65.051 9.58-128.463 42.354-188.778 122.66-69.275 92.235-43.902 309.67-5.007 349.887z"/><path id="c" d="M38.02 477.477L627.953 635.16l31.027-64.058-4.296-17.368-116.235-36.976S433.323 492.155 421.98 405.902c-8.042-61.16 0-111.574 32.782-138.722 31.086-28.18 83.687-38.594 83.687-38.594l69.406-19.266s-5.501-9.88-10.546-26.297c-13.952-45.392-87.34-123.056-173.357-158.922C345.453-9.66 266.129-.126 231.805 4.93c-65.051 9.58-128.463 42.354-188.778 122.66-69.275 92.235-43.902 309.67-5.007 349.887z"/><path id="e" d="M38.02 477.477L627.953 635.16l31.027-64.058-4.296-17.368-116.235-36.976S433.323 492.155 421.98 405.902c-8.042-61.16 0-111.574 32.782-138.722 31.086-28.18 83.687-38.594 83.687-38.594l69.406-19.266s-5.501-9.88-10.546-26.297c-13.952-45.392-87.34-123.056-173.357-158.922C345.453-9.66 266.129-.126 231.805 4.93c-65.051 9.58-128.463 42.354-188.778 122.66-69.275 92.235-43.902 309.67-5.007 349.887z"/><path id="g" d="M38.02 477.477L627.953 635.16l31.027-64.058-4.296-17.368-116.235-36.976S433.323 492.155 421.98 405.902c-8.042-61.16 0-111.574 32.782-138.722 31.086-28.18 83.687-38.594 83.687-38.594l69.406-19.266s-5.501-9.88-10.546-26.297c-13.952-45.392-87.34-123.056-173.357-158.922C345.453-9.66 266.129-.126 231.805 4.93c-65.051 9.58-128.463 42.354-188.778 122.66-69.275 92.235-43.902 309.67-5.007 349.887z"/><path id="i" d="M38.02 477.477L627.953 635.16l31.027-64.058-4.296-17.368-116.235-36.976S433.323 492.155 421.98 405.902c-8.042-61.16 0-111.574 32.782-138.722 31.086-28.18 83.687-38.594 83.687-38.594l69.406-19.266s-5.501-9.88-10.546-26.297c-13.952-45.392-87.34-123.056-173.357-158.922C345.453-9.66 266.129-.126 231.805 4.93c-65.051 9.58-128.463 42.354-188.778 122.66-69.275 92.235-43.902 309.67-5.007 349.887z"/><path id="k" d="M38.02 477.477L627.953 635.16l31.027-64.058-4.296-17.368-116.235-36.976S433.323 492.155 421.98 405.902c-8.042-61.16 0-111.574 32.782-138.722 31.086-28.18 83.687-38.594 83.687-38.594l69.406-19.266s-5.501-9.88-10.546-26.297c-13.952-45.392-87.34-123.056-173.357-158.922C345.453-9.66 266.129-.126 231.805 4.93c-65.051 9.58-128.463 42.354-188.778 122.66-69.275 92.235-43.902 309.67-5.007 349.887z"/><path id="m" d="M38.02 477.477L627.953 635.16l31.027-64.058-4.296-17.368-116.235-36.976S433.323 492.155 421.98 405.902c-8.042-61.16 0-111.574 32.782-138.722 31.086-28.18 83.687-38.594 83.687-38.594l69.406-19.266s-5.501-9.88-10.546-26.297c-13.952-45.392-87.34-123.056-173.357-158.922C345.453-9.66 266.129-.126 231.805 4.93c-65.051 9.58-128.463 42.354-188.778 122.66-69.275 92.235-43.902 309.67-5.007 349.887z"/><path id="o" d="M38.02 477.477L627.953 635.16l31.027-64.058-4.296-17.368-116.235-36.976S433.323 492.155 421.98 405.902c-8.042-61.16 0-111.574 32.782-138.722 31.086-28.18 83.687-38.594 83.687-38.594l69.406-19.266s-5.501-9.88-10.546-26.297c-13.952-45.392-87.34-123.056-173.357-158.922C345.453-9.66 266.129-.126 231.805 4.93c-65.051 9.58-128.463 42.354-188.778 122.66-69.275 92.235-43.902 309.67-5.007 349.887z"/><path id="q" d="M38.02 477.477L627.953 635.16l31.027-64.058-4.296-17.368-116.235-36.976S433.323 492.155 421.98 405.902c-8.042-61.16 0-111.574 32.782-138.722 31.086-28.18 83.687-38.594 83.687-38.594l69.406-19.266s-5.501-9.88-10.546-26.297c-13.952-45.392-87.34-123.056-173.357-158.922C345.453-9.66 266.129-.126 231.805 4.93c-65.051 9.58-128.463 42.354-188.778 122.66-69.275 92.235-43.902 309.67-5.007 349.887z"/></defs><g fill="none" fill-rule="evenodd"><g transform="translate(1605 739)"><mask id="b" fill="#fff"><use xlink:href="#a"/></mask><use fill="#2E2E2E" xlink:href="#a"/><path d="M-7.246 267.547l-16.75 167.008 55.234 90.89L580.79 646.637l-58.273-37.739S163.277 505.297 93.504 440.2C82.344 326.414-7.246 267.547-7.246 267.547z" fill-opacity=".064" fill="#000" mask="url(#b)"/><path d="M658.98 571.102l-4.296-17.368-116.235-36.976S433.323 492.155 421.98 405.902c-8.042-61.16 0-111.574 32.782-138.722 31.086-28.18 83.687-38.594 83.687-38.594s37.469-11.542 69.406-19.266l-3.56-10.218s-82.717 19.699-127.852 36.851c0 0-86.882 36.219-69.607 144.234 0 0-6.104 106.711 105.408 140.844l131.711 45.438 15.025 4.633z" fill-opacity=".8" fill="#2B2B2B" mask="url(#b)"/><circle fill="#000" cx="307" cy="285" r="119"/><circle fill="#000" cx="306.5" cy="284.5" r="46.5"/><path d="M599.992 186.926L506.06 214.59s-71 24.707-205.66 24.707c0 0-35.354 0-39.766 38.605-4.412 38.606 24.816 46.723 24.816 46.723l111.73 60.918s-6.796 143.513 202.246 162.888c15.133 1.403 31.397 2.155 48.876 2.155 79.558-91.984 70.875-249.918-38.266-337.61l-10.043-26.05z" stroke="#454545" stroke-width="6" fill="#0B0B0B"/><path d="M392.465 390.941c7.254 81.352 32.223 135.934 185.885 172.678 100.146 74.629-328.346 13.502-575.6-309.412-8.906 171.91 36.437 223.191 36.437 223.191L588.871 624.59l38.994 10.644 31.305-64.423-4.25-15.09-6.84-4.17s18.645-18.08 27.254-39.533C491.65 539.42 467.07 455.828 392.464 390.94z" fill-opacity=".113" fill="#000"/><path d="M2.05 254.684s-16.308 150.29 34.802 222.408l592.017 158.883 30.182-64.141" stroke="#979797" stroke-width="6" stroke-linecap="round"/><circle fill="#000" cx="307" cy="285" r="27"/><path d="M307.5 301c8.56 0 15.5-6.94 15.5-15.5 0-8.56-6.94-15.5-15.5-15.5-8.56 0-15.5 6.94-15.5 15.5 0 8.56 6.94 15.5 15.5 15.5z" fill="#555"/><path d="M37.824 164.453s25.38 13.238 45.715 25.086c15.367 7.245 30.22 28.663 42.234 34.328 27.32 12.88 65.555 11.758 65.555 11.758s13.692-70.562 99.572-79.594c85.881-9.031 119.112 56.446 119.112 56.446s32.36-8.282 54.633-22.938c20.863-20.047 26.93-28.867 37.476-38.086 10.547-9.219 41.856-27.13 41.856-27.13s-68.395-82.487-185.2-108.151c0 0-127.937-30.94-225.64 36.246 0 0-70.492 47.191-95.313 112.035zm563.168 75.371s93.488 56.238 80.551 208.434c0 0-13.063-9.725-13.063-11.801 5.524-73.785-32.112-169.156-92.793-189.023l25.305-7.61zm69.098 218.639l9.857 5.516s-2.883 29.53-19.258 54.351l-2.363-9.627c14.031-27.486 11.764-50.24 11.764-50.24z" fill-opacity=".8" fill="#FFF"/><path d="M247.334 259.896c20.274-4.192 19.897-22.215 48.557-26.717 21.348-2.247 29.824 2.78 31.913 2.78l10.426-.295 14.114 6.328s9.658 3.533 16.422 1.42c6.763-2.115 18.698-3.351 18.698-3.351l5.143-7.92 7.963-.75s1.815-3.85-1.287-8.877c0 0-23.273-37.977-69.734-48.287 0 0-54.262-11.575-94.358 23.859 0 0-25.26 19.849-34.638 51.828 23.795 25.207 22.601 3.618 46.781 9.982z" fill-opacity=".8" fill="#FFF"/></g><g transform="translate(804 739)"><mask id="d" fill="#fff"><use xlink:href="#c"/></mask><use fill-opacity=".8" fill="#E4E4E4" xlink:href="#c"/><path d="M-7.246 267.547l-16.75 167.008 55.234 90.89L580.79 646.637l-58.273-37.739S163.277 505.297 93.504 440.2C82.344 326.414-7.246 267.547-7.246 267.547z" fill-opacity=".064" fill="#000" mask="url(#d)"/><path d="M658.98 571.102l-4.296-17.368-116.235-36.976S433.323 492.155 421.98 405.902c-8.042-61.16 0-111.574 32.782-138.722 31.086-28.18 83.687-38.594 83.687-38.594s37.469-11.542 69.406-19.266l-3.56-10.218s-82.717 19.699-127.852 36.851c0 0-86.882 36.219-69.607 144.234 0 0-6.104 106.711 105.408 140.844l131.711 45.438 15.025 4.633z" fill-opacity=".8" fill="#2B2B2B" mask="url(#d)"/><circle fill="#00CBFF" cx="307" cy="285" r="119"/><circle fill="#00CBFF" cx="306.5" cy="284.5" r="46.5"/><path d="M599.992 186.926L506.06 214.59s-71 24.707-205.66 24.707c0 0-35.354 0-39.766 38.605-4.412 38.606 24.816 46.723 24.816 46.723l111.73 60.918s-6.796 143.513 202.246 162.888c15.133 1.403 31.397 2.155 48.876 2.155 79.558-91.984 70.875-249.918-38.266-337.61l-10.043-26.05z" stroke="#B1B1B1" stroke-width="6" fill-opacity=".7" fill="#AEAEAE"/><path d="M392.465 390.941c7.254 81.352 32.223 135.934 185.885 172.678 100.146 74.629-328.346 13.502-575.6-309.412-8.906 171.91 36.437 223.191 36.437 223.191L588.871 624.59l38.994 10.644 31.305-64.423-4.25-15.09-6.84-4.17s18.645-18.08 27.254-39.533C491.65 539.42 467.07 455.828 392.464 390.94z" fill-opacity=".113" fill="#000"/><path d="M2.05 254.684s-16.308 150.29 34.802 222.408l592.017 158.883 30.182-64.141" stroke="#979797" stroke-width="6" stroke-linecap="round"/><circle fill="#00CBFF" cx="307" cy="285" r="27"/><path d="M307.5 301c8.56 0 15.5-6.94 15.5-15.5 0-8.56-6.94-15.5-15.5-15.5-8.56 0-15.5 6.94-15.5 15.5 0 8.56 6.94 15.5 15.5 15.5z" fill="#555"/><path d="M37.824 164.453s25.38 13.238 45.715 25.086c15.367 7.245 30.22 28.663 42.234 34.328 27.32 12.88 65.555 11.758 65.555 11.758s13.692-70.562 99.572-79.594c85.881-9.031 119.112 56.446 119.112 56.446s32.36-8.282 54.633-22.938c20.863-20.047 26.93-28.867 37.476-38.086 10.547-9.219 41.856-27.13 41.856-27.13s-68.395-82.487-185.2-108.151c0 0-144.43-18.98-225.64 36.246 0 0-77.207 54.758-95.313 112.035zm563.168 75.371s93.488 56.238 80.551 208.434c0 0-13.063-9.725-13.063-11.801 5.524-73.785-32.112-169.156-92.793-189.023l25.305-7.61zm69.098 218.639l9.857 5.516s-2.883 29.53-19.258 54.351l-2.363-9.627c14.031-27.486 11.764-50.24 11.764-50.24z" fill-opacity=".8" fill="#FFF"/><path d="M247.334 259.896c20.274-4.192 19.897-22.215 48.557-26.717 21.348-2.247 29.824 2.78 31.913 2.78l10.426-.295 14.114 6.328s9.658 3.533 16.422 1.42c6.763-2.115 18.698-3.351 18.698-3.351l5.143-7.92 7.963-.75s1.815-3.85-1.287-8.877c0 0-23.273-37.977-69.734-48.287 0 0-54.262-11.575-94.358 23.859 0 0-25.26 19.849-34.638 51.828 23.795 25.207 22.601 3.618 46.781 9.982z" fill-opacity=".8" fill="#FFF"/></g><g transform="translate(3 739)"><mask id="f" fill="#fff"><use xlink:href="#e"/></mask><use fill-opacity=".8" fill="#323232" xlink:href="#e"/><path d="M-7.246 267.547l-16.75 167.008 55.234 90.89L580.79 646.637l-58.273-37.739S163.277 505.297 93.504 440.2C82.344 326.414-7.246 267.547-7.246 267.547z" fill-opacity=".064" fill="#000" mask="url(#f)"/><path d="M658.98 571.102l-4.296-17.368-116.235-36.976S433.323 492.155 421.98 405.902c-8.042-61.16 0-111.574 32.782-138.722 31.086-28.18 83.687-38.594 83.687-38.594s37.469-11.542 69.406-19.266l-3.56-10.218s-82.717 19.699-127.852 36.851c0 0-86.882 36.219-69.607 144.234 0 0-6.104 106.711 105.408 140.844l131.711 45.438 15.025 4.633z" fill-opacity=".8" fill="#2B2B2B" mask="url(#f)"/><path d="M307 404c65.722 0 119-53.278 119-119 0-65.722-53.278-119-119-119-65.722 0-119 53.278-119 119 0 65.722 53.278 119 119 119z" fill="#397100"/><circle fill="#A9FF00" cx="306.5" cy="284.5" r="46.5"/><path d="M599.992 186.926L506.06 214.59s-71 24.707-205.66 24.707c0 0-35.354 0-39.766 38.605-4.412 38.606 24.816 46.723 24.816 46.723l111.73 60.918s-6.796 143.513 202.246 162.888c15.133 1.403 31.397 2.155 48.876 2.155 79.558-91.984 70.875-249.918-38.266-337.61l-10.043-26.05z" stroke="#89DA31" stroke-width="6" fill-opacity=".7" fill="#C3DEA4"/><path d="M392.465 390.941c7.254 81.352 32.223 135.934 185.885 172.678 100.146 74.629-328.346 13.502-575.6-309.412-8.906 171.91 36.437 223.191 36.437 223.191L588.871 624.59l38.994 10.644 31.305-64.423-4.25-15.09-6.84-4.17s18.645-18.08 27.254-39.533C491.65 539.42 467.07 455.828 392.464 390.94z" fill-opacity=".113" fill="#000"/><path d="M2.05 254.684s-16.308 150.29 34.802 222.408l592.017 158.883 30.182-64.141" stroke="#979797" stroke-width="6" stroke-linecap="round"/><circle fill="#A9FF00" cx="307" cy="285" r="27"/><path d="M307.5 301c8.56 0 15.5-6.94 15.5-15.5 0-8.56-6.94-15.5-15.5-15.5-8.56 0-15.5 6.94-15.5 15.5 0 8.56 6.94 15.5 15.5 15.5z" fill="#555"/><path d="M37.824 164.453s25.38 13.238 45.715 25.086c15.367 7.245 30.22 28.663 42.234 34.328 27.32 12.88 65.555 11.758 65.555 11.758s13.692-70.562 99.572-79.594c85.881-9.031 119.112 56.446 119.112 56.446s32.36-8.282 54.633-22.938c20.863-20.047 26.93-28.867 37.476-38.086 10.547-9.219 41.856-27.13 41.856-27.13s-68.395-82.487-185.2-108.151c0 0-144.43-18.98-225.64 36.246 0 0-77.207 54.758-95.313 112.035zm563.168 75.371s93.488 56.238 80.551 208.434c0 0-13.063-9.725-13.063-11.801 5.524-73.785-32.112-169.156-92.793-189.023l25.305-7.61zm69.098 218.639l9.857 5.516s-2.883 29.53-19.258 54.351l-2.363-9.627c14.031-27.486 11.764-50.24 11.764-50.24z" fill-opacity=".8" fill="#FFF"/><path d="M247.334 259.896c20.274-4.192 19.897-22.215 48.557-26.717 21.348-2.247 29.824 2.78 31.913 2.78l10.426-.295 14.114 6.328s9.658 3.533 16.422 1.42c6.763-2.115 18.698-3.351 18.698-3.351l5.143-7.92 7.963-.75s1.815-3.85-1.287-8.877c0 0-23.273-37.977-69.734-48.287 0 0-54.262-11.575-94.358 23.859 0 0-25.26 19.849-34.638 51.828 23.795 25.207 22.601 3.618 46.781 9.982z" fill-opacity=".8" fill="#FFF"/></g><g transform="translate(1605 1475)"><mask id="h" fill="#fff"><use xlink:href="#g"/></mask><use fill-opacity=".8" fill="#232323" xlink:href="#g"/><path d="M-7.246 267.547l-16.75 167.008 55.234 90.89L580.79 646.637l-58.273-37.739S163.277 505.297 93.504 440.2C82.344 326.414-7.246 267.547-7.246 267.547z" fill-opacity=".064" fill="#000" mask="url(#h)"/><path d="M658.98 571.102l-4.296-17.368-116.235-36.976S433.323 492.155 421.98 405.902c-8.042-61.16 0-111.574 32.782-138.722 31.086-28.18 83.687-38.594 83.687-38.594s37.469-11.542 69.406-19.266l-3.56-10.218s-82.717 19.699-127.852 36.851c0 0-86.882 36.219-69.607 144.234 0 0-6.104 106.711 105.408 140.844l131.711 45.438 15.025 4.633z" fill-opacity=".8" fill="#2B2B2B" mask="url(#h)"/><path d="M307 404c65.722 0 119-53.278 119-119 0-65.722-53.278-119-119-119-65.722 0-119 53.278-119 119 0 65.722 53.278 119 119 119z" fill="#2BD3E4"/><circle fill="#00F2E7" cx="306.5" cy="284.5" r="46.5"/><path d="M599.992 186.926L506.06 214.59s-71 24.707-205.66 24.707c0 0-35.354 0-39.766 38.605-4.412 38.606 24.816 46.723 24.816 46.723l111.73 60.918s-6.796 143.513 202.246 162.888c15.133 1.403 31.397 2.155 48.876 2.155 79.558-91.984 70.875-249.918-38.266-337.61l-10.043-26.05z" stroke="#62D8E4" stroke-width="6" fill-opacity=".7" fill="#AEE1E6"/><path d="M392.465 390.941c7.254 81.352 32.223 135.934 185.885 172.678 100.146 74.629-328.346 13.502-575.6-309.412-8.906 171.91 36.437 223.191 36.437 223.191L588.871 624.59l38.994 10.644 31.305-64.423-4.25-15.09-6.84-4.17s18.645-18.08 27.254-39.533C491.65 539.42 467.07 455.828 392.464 390.94z" fill-opacity=".113" fill="#000"/><path d="M2.05 254.684s-16.308 150.29 34.802 222.408l592.017 158.883 30.182-64.141" stroke="#979797" stroke-width="6" stroke-linecap="round"/><circle fill="#00F2E7" cx="307" cy="285" r="27"/><path d="M307.5 301c8.56 0 15.5-6.94 15.5-15.5 0-8.56-6.94-15.5-15.5-15.5-8.56 0-15.5 6.94-15.5 15.5 0 8.56 6.94 15.5 15.5 15.5z" fill="#555"/><path d="M37.824 164.453s25.38 13.238 45.715 25.086c15.367 7.245 30.22 28.663 42.234 34.328 27.32 12.88 65.555 11.758 65.555 11.758s13.692-70.562 99.572-79.594c85.881-9.031 119.112 56.446 119.112 56.446s32.36-8.282 54.633-22.938c20.863-20.047 26.93-28.867 37.476-38.086 10.547-9.219 41.856-27.13 41.856-27.13s-68.395-82.487-185.2-108.151c0 0-144.43-18.98-225.64 36.246 0 0-77.207 54.758-95.313 112.035zm563.168 75.371s93.488 56.238 80.551 208.434c0 0-13.063-9.725-13.063-11.801 5.524-73.785-32.112-169.156-92.793-189.023l25.305-7.61zm69.098 218.639l9.857 5.516s-2.883 29.53-19.258 54.351l-2.363-9.627c14.031-27.486 11.764-50.24 11.764-50.24z" fill-opacity=".8" fill="#FFF"/><path d="M247.334 259.896c20.274-4.192 19.897-22.215 48.557-26.717 21.348-2.247 29.824 2.78 31.913 2.78l10.426-.295 14.114 6.328s9.658 3.533 16.422 1.42c6.763-2.115 18.698-3.351 18.698-3.351l5.143-7.92 7.963-.75s1.815-3.85-1.287-8.877c0 0-23.273-37.977-69.734-48.287 0 0-54.262-11.575-94.358 23.859 0 0-25.26 19.849-34.638 51.828 23.795 25.207 22.601 3.618 46.781 9.982z" fill-opacity=".8" fill="#FFF"/></g><g transform="translate(804 1475)"><mask id="j" fill="#fff"><use xlink:href="#i"/></mask><use fill="#81D828" xlink:href="#i"/><path d="M-7.246 267.547l-16.75 167.008 55.234 90.89L580.79 646.637l-58.273-37.739S163.277 505.297 93.504 440.2C82.344 326.414-7.246 267.547-7.246 267.547z" fill-opacity=".064" fill="#000" mask="url(#j)"/><path d="M658.98 571.102l-4.296-17.368-116.235-36.976S433.323 492.155 421.98 405.902c-8.042-61.16 0-111.574 32.782-138.722 31.086-28.18 83.687-38.594 83.687-38.594s37.469-11.542 69.406-19.266l-3.56-10.218s-82.717 19.699-127.852 36.851c0 0-86.882 36.219-69.607 144.234 0 0-6.104 106.711 105.408 140.844l131.711 45.438 15.025 4.633z" fill-opacity=".8" fill="#2B2B2B" mask="url(#j)"/><path d="M307 404c65.722 0 119-53.278 119-119 0-65.722-53.278-119-119-119-65.722 0-119 53.278-119 119 0 65.722 53.278 119 119 119z" fill="#F0D118"/><circle fill="#FFED00" cx="306.5" cy="284.5" r="46.5"/><path d="M599.992 186.926L506.06 214.59s-71 24.707-205.66 24.707c0 0-35.354 0-39.766 38.605-4.412 38.606 24.816 46.723 24.816 46.723l111.73 60.918s-6.796 143.513 202.246 162.888c15.133 1.403 31.397 2.155 48.876 2.155 79.558-91.984 70.875-249.918-38.266-337.61l-10.043-26.05z" stroke="#B1B1B1" stroke-width="6" fill-opacity=".7" fill="#000"/><path d="M392.465 390.941c7.254 81.352 32.223 135.934 185.885 172.678 100.146 74.629-328.346 13.502-575.6-309.412-8.906 171.91 36.437 223.191 36.437 223.191L588.871 624.59l38.994 10.644 31.305-64.423-4.25-15.09-6.84-4.17s18.645-18.08 27.254-39.533C491.65 539.42 467.07 455.828 392.464 390.94z" fill-opacity=".113" fill="#000"/><path d="M2.05 254.684s-16.308 150.29 34.802 222.408l592.017 158.883 30.182-64.141" stroke="#979797" stroke-width="6" stroke-linecap="round"/><circle fill="#D0011B" cx="307" cy="285" r="27"/><path d="M307.5 301c8.56 0 15.5-6.94 15.5-15.5 0-8.56-6.94-15.5-15.5-15.5-8.56 0-15.5 6.94-15.5 15.5 0 8.56 6.94 15.5 15.5 15.5z" fill="#555"/><path d="M37.824 164.453s25.38 13.238 45.715 25.086c15.367 7.245 30.22 28.663 42.234 34.328 27.32 12.88 65.555 11.758 65.555 11.758s13.692-70.562 99.572-79.594c85.881-9.031 119.112 56.446 119.112 56.446s32.36-8.282 54.633-22.938c20.863-20.047 26.93-28.867 37.476-38.086 10.547-9.219 41.856-27.13 41.856-27.13s-68.395-82.487-185.2-108.151c0 0-144.43-18.98-225.64 36.246 0 0-77.207 54.758-95.313 112.035zm563.168 75.371s93.488 56.238 80.551 208.434c0 0-13.063-9.725-13.063-11.801 5.524-73.785-32.112-169.156-92.793-189.023l25.305-7.61zm69.098 218.639l9.857 5.516s-2.883 29.53-19.258 54.351l-2.363-9.627c14.031-27.486 11.764-50.24 11.764-50.24z" fill-opacity=".8" fill="#FFF"/><path d="M247.334 259.896c20.274-4.192 19.897-22.215 48.557-26.717 21.348-2.247 29.824 2.78 31.913 2.78l10.426-.295 14.114 6.328s9.658 3.533 16.422 1.42c6.763-2.115 18.698-3.351 18.698-3.351l5.143-7.92 7.963-.75s1.815-3.85-1.287-8.877c0 0-23.273-37.977-69.734-48.287 0 0-54.262-11.575-94.358 23.859 0 0-25.26 19.849-34.638 51.828 23.795 25.207 22.601 3.618 46.781 9.982z" fill-opacity=".8" fill="#FFF"/></g><g transform="translate(3 1475)"><mask id="l" fill="#fff"><use xlink:href="#k"/></mask><use fill-opacity=".8" fill="#EA0000" xlink:href="#k"/><path d="M-7.246 267.547l-16.75 167.008 55.234 90.89L580.79 646.637l-58.273-37.739S163.277 505.297 93.504 440.2C82.344 326.414-7.246 267.547-7.246 267.547z" fill-opacity=".064" fill="#000" mask="url(#l)"/><path d="M658.98 571.102l-4.296-17.368-116.235-36.976S433.323 492.155 421.98 405.902c-8.042-61.16 0-111.574 32.782-138.722 31.086-28.18 83.687-38.594 83.687-38.594s37.469-11.542 69.406-19.266l-3.56-10.218s-82.717 19.699-127.852 36.851c0 0-86.882 36.219-69.607 144.234 0 0-6.104 106.711 105.408 140.844l131.711 45.438 15.025 4.633z" fill-opacity=".8" fill="#2B2B2B" mask="url(#l)"/><path d="M307 404c65.722 0 119-53.278 119-119 0-65.722-53.278-119-119-119-65.722 0-119 53.278-119 119 0 65.722 53.278 119 119 119z" fill="#DADADA"/><circle fill="#FFF" cx="306.5" cy="284.5" r="46.5"/><path d="M599.992 186.926L506.06 214.59s-71 24.707-205.66 24.707c0 0-35.354 0-39.766 38.605-4.412 38.606 24.816 46.723 24.816 46.723l111.73 60.918s-6.796 143.513 202.246 162.888c15.133 1.403 31.397 2.155 48.876 2.155 79.558-91.984 70.875-249.918-38.266-337.61l-10.043-26.05z" stroke="#B1B1B1" stroke-width="6" fill-opacity=".7" fill="#E1E1E1"/><path d="M392.465 390.941c7.254 81.352 32.223 135.934 185.885 172.678 100.146 74.629-328.346 13.502-575.6-309.412-8.906 171.91 36.437 223.191 36.437 223.191L588.871 624.59l38.994 10.644 31.305-64.423-4.25-15.09-6.84-4.17s18.645-18.08 27.254-39.533C491.65 539.42 467.07 455.828 392.464 390.94z" fill-opacity=".113" fill="#000"/><path d="M2.05 254.684s-16.308 150.29 34.802 222.408l592.017 158.883 30.182-64.141" stroke="#979797" stroke-width="6" stroke-linecap="round"/><circle fill="#FFF" cx="307" cy="285" r="27"/><path d="M307.5 301c8.56 0 15.5-6.94 15.5-15.5 0-8.56-6.94-15.5-15.5-15.5-8.56 0-15.5 6.94-15.5 15.5 0 8.56 6.94 15.5 15.5 15.5z" fill="#555"/><path d="M37.824 164.453s25.38 13.238 45.715 25.086c15.367 7.245 30.22 28.663 42.234 34.328 27.32 12.88 65.555 11.758 65.555 11.758s13.692-70.562 99.572-79.594c85.881-9.031 119.112 56.446 119.112 56.446s32.36-8.282 54.633-22.938c20.863-20.047 26.93-28.867 37.476-38.086 10.547-9.219 41.856-27.13 41.856-27.13s-68.395-82.487-185.2-108.151c0 0-144.43-18.98-225.64 36.246 0 0-77.207 54.758-95.313 112.035zm563.168 75.371s93.488 56.238 80.551 208.434c0 0-13.063-9.725-13.063-11.801 5.524-73.785-32.112-169.156-92.793-189.023l25.305-7.61zm69.098 218.639l9.857 5.516s-2.883 29.53-19.258 54.351l-2.363-9.627c14.031-27.486 11.764-50.24 11.764-50.24z" fill-opacity=".8" fill="#FFF"/><path d="M247.334 259.896c20.274-4.192 19.897-22.215 48.557-26.717 21.348-2.247 29.824 2.78 31.913 2.78l10.426-.295 14.114 6.328s9.658 3.533 16.422 1.42c6.763-2.115 18.698-3.351 18.698-3.351l5.143-7.92 7.963-.75s1.815-3.85-1.287-8.877c0 0-23.273-37.977-69.734-48.287 0 0-54.262-11.575-94.358 23.859 0 0-25.26 19.849-34.638 51.828 23.795 25.207 22.601 3.618 46.781 9.982z" fill-opacity=".8" fill="#FFF"/></g><g transform="translate(1605 3)"><mask id="n" fill="#fff"><use xlink:href="#m"/></mask><use fill="#705995" xlink:href="#m"/><path d="M-7.246 267.547l-16.75 167.008 55.234 90.89L580.79 646.637l-58.273-37.739S163.277 505.297 93.504 440.2C82.344 326.414-7.246 267.547-7.246 267.547z" fill-opacity=".064" fill="#000" mask="url(#n)"/><path d="M658.98 571.102l-4.296-17.368-116.235-36.976S433.323 492.155 421.98 405.902c-8.042-61.16 0-111.574 32.782-138.722 31.086-28.18 83.687-38.594 83.687-38.594s37.469-11.542 69.406-19.266l-3.56-10.218s-82.717 19.699-127.852 36.851c0 0-86.882 36.219-69.607 144.234 0 0-6.104 106.711 105.408 140.844l131.711 45.438 15.025 4.633z" fill-opacity=".8" fill="#2B2B2B" mask="url(#n)"/><circle fill="#ED00BF" cx="307" cy="285" r="119"/><circle fill="#E24AD7" cx="306.5" cy="284.5" r="46.5"/><path d="M599.992 186.926L506.06 214.59s-71 24.707-205.66 24.707c0 0-35.354 0-39.766 38.605-4.412 38.606 24.816 46.723 24.816 46.723l111.73 60.918s-6.796 143.513 202.246 162.888c15.133 1.403 31.397 2.155 48.876 2.155 79.558-91.984 70.875-249.918-38.266-337.61l-10.043-26.05z" stroke="#AA88A9" stroke-width="6" fill-opacity=".7" fill="#AC84AB"/><path d="M392.465 390.941c7.254 81.352 32.223 135.934 185.885 172.678 100.146 74.629-328.346 13.502-575.6-309.412-8.906 171.91 36.437 223.191 36.437 223.191L588.871 624.59l38.994 10.644 31.305-64.423-4.25-15.09-6.84-4.17s18.645-18.08 27.254-39.533C491.65 539.42 467.07 455.828 392.464 390.94z" fill-opacity=".113" fill="#000"/><path d="M2.05 254.684s-16.308 150.29 34.802 222.408l592.017 158.883 30.182-64.141" stroke="#979797" stroke-width="6" stroke-linecap="round"/><circle fill="#E24AD7" cx="307" cy="285" r="27"/><path d="M307.5 301c8.56 0 15.5-6.94 15.5-15.5 0-8.56-6.94-15.5-15.5-15.5-8.56 0-15.5 6.94-15.5 15.5 0 8.56 6.94 15.5 15.5 15.5z" fill="#555"/><path d="M37.824 164.453s25.38 13.238 45.715 25.086c15.367 7.245 30.22 28.663 42.234 34.328 27.32 12.88 65.555 11.758 65.555 11.758s13.692-70.562 99.572-79.594c85.881-9.031 119.112 56.446 119.112 56.446s32.36-8.282 54.633-22.938c20.863-20.047 26.93-28.867 37.476-38.086 10.547-9.219 41.856-27.13 41.856-27.13s-68.395-82.487-185.2-108.151c0 0-144.43-18.98-225.64 36.246 0 0-77.207 54.758-95.313 112.035zm563.168 75.371s93.488 56.238 80.551 208.434c0 0-13.063-9.725-13.063-11.801 5.524-73.785-32.112-169.156-92.793-189.023l25.305-7.61zm69.098 218.639l9.857 5.516s-2.883 29.53-19.258 54.351l-2.363-9.627c14.031-27.486 11.764-50.24 11.764-50.24z" fill-opacity=".8" fill="#FFF"/><path d="M247.334 259.896c20.274-4.192 19.897-22.215 48.557-26.717 21.348-2.247 29.824 2.78 31.913 2.78l10.426-.295 14.114 6.328s9.658 3.533 16.422 1.42c6.763-2.115 18.698-3.351 18.698-3.351l5.143-7.92 7.963-.75s1.815-3.85-1.287-8.877c0 0-23.273-37.977-69.734-48.287 0 0-54.262-11.575-94.358 23.859 0 0-25.26 19.849-34.638 51.828 23.795 25.207 22.601 3.618 46.781 9.982z" fill-opacity=".8" fill="#FFF"/></g><g transform="translate(804 3)"><mask id="p" fill="#fff"><use xlink:href="#o"/></mask><use fill-opacity=".8" fill="#8F8F8F" xlink:href="#o"/><path d="M-7.246 267.547l-16.75 167.008 55.234 90.89L580.79 646.637l-58.273-37.739S163.277 505.297 93.504 440.2C82.344 326.414-7.246 267.547-7.246 267.547z" fill-opacity=".064" fill="#000" mask="url(#p)"/><path d="M658.98 571.102l-4.296-17.368-116.235-36.976S433.323 492.155 421.98 405.902c-8.042-61.16 0-111.574 32.782-138.722 31.086-28.18 83.687-38.594 83.687-38.594s37.469-11.542 69.406-19.266l-3.56-10.218s-82.717 19.699-127.852 36.851c0 0-86.882 36.219-69.607 144.234 0 0-6.104 106.711 105.408 140.844l131.711 45.438 15.025 4.633z" fill-opacity=".8" fill="#2B2B2B" mask="url(#p)"/><circle fill="#ED9500" cx="307" cy="285" r="119"/><circle fill="#FF8A00" cx="306.5" cy="284.5" r="46.5"/><path d="M599.992 186.926L506.06 214.59s-71 24.707-205.66 24.707c0 0-35.354 0-39.766 38.605-4.412 38.606 24.816 46.723 24.816 46.723l111.73 60.918s-6.796 143.513 202.246 162.888c15.133 1.403 31.397 2.155 48.876 2.155 79.558-91.984 70.875-249.918-38.266-337.61l-10.043-26.05z" stroke="#D35C00" stroke-width="6" fill-opacity=".7" fill="#F3CB88"/><path d="M392.465 390.941c7.254 81.352 32.223 135.934 185.885 172.678 100.146 74.629-328.346 13.502-575.6-309.412-8.906 171.91 36.437 223.191 36.437 223.191L588.871 624.59l38.994 10.644 31.305-64.423-4.25-15.09-6.84-4.17s18.645-18.08 27.254-39.533C491.65 539.42 467.07 455.828 392.464 390.94z" fill-opacity=".113" fill="#000"/><path d="M2.05 254.684s-16.308 150.29 34.802 222.408l592.017 158.883 30.182-64.141" stroke="#979797" stroke-width="6" stroke-linecap="round"/><circle fill="#FF8A00" cx="307" cy="285" r="27"/><path d="M307.5 301c8.56 0 15.5-6.94 15.5-15.5 0-8.56-6.94-15.5-15.5-15.5-8.56 0-15.5 6.94-15.5 15.5 0 8.56 6.94 15.5 15.5 15.5z" fill="#555"/><path d="M37.824 164.453s25.38 13.238 45.715 25.086c15.367 7.245 30.22 28.663 42.234 34.328 27.32 12.88 65.555 11.758 65.555 11.758s13.692-70.562 99.572-79.594c85.881-9.031 119.112 56.446 119.112 56.446s32.36-8.282 54.633-22.938c20.863-20.047 26.93-28.867 37.476-38.086 10.547-9.219 41.856-27.13 41.856-27.13s-68.395-82.487-185.2-108.151c0 0-144.43-18.98-225.64 36.246 0 0-77.207 54.758-95.313 112.035zm563.168 75.371s93.488 56.238 80.551 208.434c0 0-13.063-9.725-13.063-11.801 5.524-73.785-32.112-169.156-92.793-189.023l25.305-7.61zm69.098 218.639l9.857 5.516s-2.883 29.53-19.258 54.351l-2.363-9.627c14.031-27.486 11.764-50.24 11.764-50.24z" fill-opacity=".8" fill="#FFF"/><path d="M247.334 259.896c20.274-4.192 19.897-22.215 48.557-26.717 21.348-2.247 29.824 2.78 31.913 2.78l10.426-.295 14.114 6.328s9.658 3.533 16.422 1.42c6.763-2.115 18.698-3.351 18.698-3.351l5.143-7.92 7.963-.75s1.815-3.85-1.287-8.877c0 0-23.273-37.977-69.734-48.287 0 0-54.262-11.575-94.358 23.859 0 0-25.26 19.849-34.638 51.828 23.795 25.207 22.601 3.618 46.781 9.982z" fill-opacity=".8" fill="#FFF"/></g><g transform="translate(3 3)"><mask id="r" fill="#fff"><use xlink:href="#q"/></mask><use fill-opacity=".8" fill="#353535" xlink:href="#q"/><path d="M-7.246 267.547l-16.75 167.008 55.234 90.89L580.79 646.637l-58.273-37.739S163.277 505.297 93.504 440.2C82.344 326.414-7.246 267.547-7.246 267.547z" fill-opacity=".064" fill="#000" mask="url(#r)"/><path d="M658.98 571.102l-4.296-17.368-116.235-36.976S433.323 492.155 421.98 405.902c-8.042-61.16 0-111.574 32.782-138.722 31.086-28.18 83.687-38.594 83.687-38.594s37.469-11.542 69.406-19.266l-3.56-10.218s-82.717 19.699-127.852 36.851c0 0-86.882 36.219-69.607 144.234 0 0-6.104 106.711 105.408 140.844l131.711 45.438 15.025 4.633z" fill-opacity=".8" fill="#2B2B2B" mask="url(#r)"/><circle fill="#00ADFF" cx="307" cy="285" r="119"/><circle fill="#00D4FF" cx="306.5" cy="284.5" r="46.5"/><path d="M599.992 186.926L506.06 214.59s-71 24.707-205.66 24.707c0 0-35.354 0-39.766 38.605-4.412 38.606 24.816 46.723 24.816 46.723l111.73 60.918s-6.796 143.513 202.246 162.888c15.133 1.403 31.397 2.155 48.876 2.155 79.558-91.984 70.875-249.918-38.266-337.61l-10.043-26.05z" stroke="#B1B1B1" stroke-width="6" fill-opacity=".7" fill="#393939"/><path d="M392.465 390.941c7.254 81.352 32.223 135.934 185.885 172.678 100.146 74.629-328.346 13.502-575.6-309.412-8.906 171.91 36.437 223.191 36.437 223.191L588.871 624.59l38.994 10.644 31.305-64.423-4.25-15.09-6.84-4.17s18.645-18.08 27.254-39.533C491.65 539.42 467.07 455.828 392.464 390.94z" fill-opacity=".113" fill="#000"/><path d="M2.05 254.684s-16.308 150.29 34.802 222.408l592.017 158.883 30.182-64.141" stroke="#979797" stroke-width="6" stroke-linecap="round"/><circle fill="#00C8FF" cx="307" cy="285" r="27"/><path d="M307.5 301c8.56 0 15.5-6.94 15.5-15.5 0-8.56-6.94-15.5-15.5-15.5-8.56 0-15.5 6.94-15.5 15.5 0 8.56 6.94 15.5 15.5 15.5z" fill="#555"/><path d="M37.824 164.453s25.38 13.238 45.715 25.086c15.367 7.245 30.22 28.663 42.234 34.328 27.32 12.88 65.555 11.758 65.555 11.758s13.692-70.562 99.572-79.594c85.881-9.031 119.112 56.446 119.112 56.446s32.36-8.282 54.633-22.938c20.863-20.047 26.93-28.867 37.476-38.086 10.547-9.219 41.856-27.13 41.856-27.13s-68.395-82.487-185.2-108.151c0 0-144.43-18.98-225.64 36.246 0 0-77.207 54.758-95.313 112.035zm563.168 75.371s93.488 56.238 80.551 208.434c0 0-13.063-9.725-13.063-11.801 5.524-73.785-32.112-169.156-92.793-189.023l25.305-7.61zm69.098 218.639l9.857 5.516s-2.883 29.53-19.258 54.351l-2.363-9.627c14.031-27.486 11.764-50.24 11.764-50.24z" fill-opacity=".8" fill="#FFF"/><path d="M247.334 259.896c20.274-4.192 19.897-22.215 48.557-26.717 21.348-2.247 29.824 2.78 31.913 2.78l10.426-.295 14.114 6.328s9.658 3.533 16.422 1.42c6.763-2.115 18.698-3.351 18.698-3.351l5.143-7.92 7.963-.75s1.815-3.85-1.287-8.877c0 0-23.273-37.977-69.734-48.287 0 0-54.262-11.575-94.358 23.859 0 0-25.26 19.849-34.638 51.828 23.795 25.207 22.601 3.618 46.781 9.982z" fill-opacity=".8" fill="#FFF"/></g></g></svg>