<svg width="2167" height="1440" xmlns="http://www.w3.org/2000/svg" xmlns:xlink="http://www.w3.org/1999/xlink"><defs><radialGradient fx="50%" fy="50%" id="b"><stop stop-color="#FFF" stop-opacity="0" offset="0%"/><stop stop-color="#7E7E7E" stop-opacity="0" offset="82.318%"/><stop stop-opacity=".204" offset="100%"/></radialGradient><circle id="a" cx="200" cy="200" r="200"/><path d="M402.08 138.884l249.154-92.969-42.472 86.59 53.52 60.191-43.328 62.235 43.328 72.89-261.536-62.42C373.163 350.761 293.04 412.5 198.5 412.5c-93.21 0-172.403-60.012-201.049-143.506l-231.269 78.642 30.522-65.49-58.627-67.076 48.777-57.206-48.777-75.368 256.242 58.43C19.912 52.308 101.638-12.5 198.5-12.5c96.116 0 177.328 63.813 203.58 151.384z" id="c"/><path d="M645.071 148.115c40.271-13.97 100.996-42.643 173.015-101.162 39.988-28.18 74.168-20.535 74.168-20.535l-28.05 42.937L897.233 79l-33.03 35.527 33.03 21.528-24.976 25.125 34.445 22.692-42.5 25.417 20.672 22.313-20.672 15.414 33.031 26.921-24.976 11.524 34.445 49.793s-34.445 19.36-82.715 0c-59.908-49.262-130.04-61.694-177.32-63.634C621.058 360.216 539.345 425 442.5 425c-95.533 0-176.342-63.041-203.096-149.793-46.29 24.02-131.902 70.005-153.896 92.54-31.328 13.37-57.383-4.864-57.383-4.864l12.617-26.453c20.586-19.282-24.976-51.485-24.976-51.485l24.976-25.125-34.445-22.692 42.5-25.417-20.672-22.313 20.672-15.414-33.031-26.921 24.976-11.524L.02 97.742s15.746-12.851 66.433-12.851c59.59 47.895 133.337 63.205 171.999 68.077C264.195 64.584 345.805 0 442.5 0c94.916 0 175.298 62.23 202.571 148.115z" id="e"/><radialGradient fx="50%" fy="50%" id="h"><stop stop-color="#FFF" stop-opacity="0" offset="0%"/><stop stop-color="#7E7E7E" stop-opacity="0" offset="76.204%"/><stop stop-color="#003E87" stop-opacity=".2" offset="100%"/></radialGradient><circle id="g" cx="200" cy="200" r="200"/><radialGradient fx="50%" fy="50%" r="20.82%" id="i"><stop stop-color="#0076FF" stop-opacity=".06" offset="0%"/><stop stop-color="#D0011B" stop-opacity="0" offset="30.301%"/><stop stop-color="#D0011B" stop-opacity=".048" offset="31.407%"/><stop stop-color="#E43958" offset="100%"/></radialGradient><linearGradient x1="371.334%" y1="100%" x2="-9.402%" y2="182.437%" id="k"><stop stop-color="#0076FF" stop-opacity=".12" offset="0%"/><stop stop-color="#0076FF" stop-opacity="0" offset="34.694%"/><stop stop-color="#0076FF" stop-opacity="0" offset="41.239%"/><stop stop-color="#0076FF" stop-opacity=".12" offset="100%"/></linearGradient><path id="l" d="M204.508 119.793c-29.077.42-89.214-6.413-199.39-51.574C-9.1 62.39 27.356 105.678 206.36 116.638c6.827.418 20.977-.102 26.62-45.55-2.975 40.408-12.02 48.468-28.473 48.705z"/><path id="m" d="M13.283 118.127c-12.06-6.461 51.564 44.448 198.493 33.437 123.26-9.237-95.061 21.971-198.493-33.437z"/><path id="n" d="M199.906 171.434c-34.997 6.879-117.14 26.022-198.5 89.066 0 5.534-6.491-32.169 195.322-87.707 6.582-1.812 42.568-18.49 40.749 56.328 1.82-56.328-24.999-60.158-37.571-57.687z"/><path id="o" d="M198.396 138.714c-34.838 13.045-129.683 43.347-194.08 75.44 66.14-38.587 110.119-56.233 191.612-77.884 5.076-1.348 52.53 2.982 52.53 71.855-7.066-58.51-40.404-73.028-50.062-69.411z"/><path id="p" d="M202.36 132.244c-28.78-.043-122.382-2.087-188.704-25.494 0 0 63.48 35.484 184.576 26.538 4.226-.312 32.57.304 39.086-29.84-3.62 20.632-29.346 28.805-34.958 28.796z"/><path id="q" d="M621.844 184.064c-12.395.256-27.324 10.309-38.157 30.33 15.96-20.021 26.745-27.444 38.135-26.953 106.067 4.574 128.822 19.303 228.297 33.745 0 0-110.948-39.543-228.275-37.122z"/><path id="r" d="M608.447 163.666c-12.884 1.065-24.554 9.8-24.554 36.875 5.459-23.447 12.574-32.2 24.926-32.025 106.206 1.503 140.304.6 237.052 11.297 0 0-93.785-28.014-237.424-16.147z"/><path id="s" d="M612.658 145.193c-17.722 1.379-18.118 4.666-37.092 6.832 19.574-.885 19.77-3.241 36.907-3.96 92.457-3.883 153.603-5.27 228.398-3.252 0 0-94.455-10.022-228.213.38z"/><path id="t" d="M609.927 131.72c-13.467.72-16.1 3.406-39.915-5.083 27.625 9.886 27.018 8.445 39.845 8.49 110.623.384 156.568-39.457 236.014-37.315 0 0-101.755 26.735-235.944 33.908z"/><path id="u" d="M607.32 121.602c-19.089 3.264-35.39 8.171-40.329-28.554 3.073 40.842 24.06 32.118 41.27 30.207 140.856-15.64 133.426-41.157 222.61-73.443 0 0-106.01 51.69-223.55 71.79z"/><path id="v" d="M612.573 109.78c-9.328 2.568-32.67 4.09-25.475-28.9-2.801 24.826 13.73 31.333 21.768 28.893C758.516 64.333 790.254 16.767 830.87-.187c0 0-74.435 70.35-218.298 109.967z"/><linearGradient x1="47.069%" y1="68.767%" x2="57.496%" y2="2.638%" id="x"><stop stop-color="#0076FF" stop-opacity=".035" offset="0%"/><stop stop-color="#0076FF" stop-opacity="0" offset="100%"/></linearGradient><path d="M645.071 148.115c40.271-13.97 100.996-42.643 173.015-101.162 39.988-28.18 74.168-20.535 74.168-20.535l-28.05 42.937L897.233 79l-33.03 35.527 33.03 21.528-24.976 25.125 34.445 22.692-42.5 25.417 20.672 22.313-20.672 15.414 33.031 26.921-24.976 11.524 34.445 49.793s-34.445 19.36-82.715 0c-59.908-49.262-130.04-61.694-177.32-63.634C621.058 360.216 539.345 425 442.5 425c-95.533 0-176.342-63.041-203.096-149.793-46.29 24.02-131.902 70.005-153.896 92.54-31.328 13.37-57.383-4.864-57.383-4.864l12.617-26.453c20.586-19.282-24.976-51.485-24.976-51.485l24.976-25.125-34.445-22.692 42.5-25.417-20.672-22.313 20.672-15.414-33.031-26.921 24.976-11.524L.02 97.742s15.746-12.851 66.433-12.851c59.59 47.895 133.337 63.205 171.999 68.077C264.195 64.584 345.805 0 442.5 0c94.916 0 175.298 62.23 202.571 148.115z" id="w"/><path d="M665.88 157.747L908.253 38.418l-27.082 70.204 36.825 17.719-21.59 44.77 27.875 34.085-36.024 27.055 24.976 40.508-32.062 22.715 32.062 59.807-251.276-74.992C633.664 364.409 554.158 425 460.5 425c-97.631 0-179.885-65.84-204.78-155.543l-227.538 90.68 20.672-55.21-33.031-25.094 33.03-43.16L.078 202.321l48.777-31.957-33.031-28.097L.077 94.996l256.242 58.43C281.912 64.808 363.638 0 460.5 0c98.43 0 181.228 66.921 205.38 157.747z" id="y"/><circle id="A" cx="200" cy="200" r="200"/><path d="M664.08 151.384l249.154-92.969-42.472 86.59 53.52 60.191-43.328 62.235 43.328 72.89-261.536-62.42C635.163 363.261 555.04 425 460.5 425c-93.21 0-172.403-60.012-201.049-143.506L28.182 360.136l30.522-65.49L.077 227.57l48.777-57.206L.077 94.996l256.242 58.43C281.912 64.808 363.638 0 460.5 0c96.116 0 177.328 63.813 203.58 151.384z" id="C"/><circle id="E" cx="200" cy="200" r="200"/><path d="M659.907 138.894L910.254 26.418l-28.05 42.937L915.233 79l-33.03 35.527 33.03 21.528-24.976 25.125 34.445 22.692-42.5 25.417 20.672 22.313-20.672 15.414 33.031 26.921-24.976 11.524 24.976 57.82-251.612-68.158C636.894 361.918 556.064 425 460.5 425c-97.305 0-179.334-65.401-204.529-154.643l-227.789 90.78 20.672-25.39L15.823 283.2l24.976-25.125L6.354 235.38l42.5-25.417-20.672-22.312 20.672-15.414-33.031-26.922 24.976-11.524L.077 95.996l255.973 58.37C281.336 65.266 363.296 0 460.5 0c91.485 0 169.467 57.811 199.407 138.894z" id="G"/><circle id="I" cx="200" cy="200" r="200"/></defs><g fill="none" fill-rule="evenodd"><g transform="translate(1486 216)"><use fill="#FFF" xlink:href="#a"/><use fill="url(#b)" xlink:href="#a"/><mask id="d" fill="#fff"><use xlink:href="#c"/></mask><use stroke-opacity=".36" stroke="#0076FF" stroke-width="3" fill-opacity=".055" fill="#0076FF" transform="rotate(-25 200 200)" xlink:href="#c"/><path d="M180-3h40l-10 80h-20L180-3zm104.078 17.17l34.64 20-48.66 64.282-17.32-10 31.34-74.282zm81.55 66.908l20 34.64-74.283 31.34-10-17.32 64.282-48.66zm37.169 98.719v40l-80-10v-20l80-10zm-17.17 104.078l-20 34.64-64.282-48.66 10-17.32 74.282 31.34zm-66.908 81.55l-34.641 20-31.34-74.283 17.32-10 48.66 64.282zM220 402.593h-40l10-80h20l10 80zm-104.078-17.17l-34.64-20 48.66-64.282 17.32 10-31.34 74.282zm-81.55-66.908l-20-34.641 74.283-31.34 10 17.32-64.282 48.66zm-37.169-98.72v-40l80 10v20l-80 10zm17.17-104.077l20-34.641 64.282 48.66-10 17.32-74.282-31.34zm66.908-81.55l34.641-20 31.34 74.283-17.32 10-48.66-64.282z" fill="#FF4063" mask="url(#d)"/></g><g transform="translate(19 3.804)"><mask id="f" fill="#fff"><use xlink:href="#e"/></mask><use stroke-opacity=".18" stroke="#0076FF" stroke-width="3" fill-opacity=".025" fill="#0076FF" xlink:href="#e"/><g mask="url(#f)"><g transform="translate(243 12)"><mask id="j" fill="#fff"><use xlink:href="#g"/></mask><use fill="#FFF" xlink:href="#g"/><use fill="url(#h)" xlink:href="#g"/><path d="M200.787 204.728c-.365.234-.71.448-1.031.641 5.843 5.247 14.048 8.42 20.789-4.898 11.89-23.492 27.601-56.165-15.23-88.28-42.83-32.116-85.862-102.73-85.862-102.73l53.264-16.967s9.266 83.911 40.491 114.062c18.058 17.436 23.79 38.696 21.968 58.064-.864 9.182-4.13 17.638-7.637 25.38-1.887 4.167-3.793 8.037-5.993 11.535-8.502 13.523-16.85 9.866-22.454 4.227-.992.576-1.617.886-1.617.886s.589-.348 1.524-.98a31.257 31.257 0 0 1-1.288-1.393c-.433.02-.84.033-1.213.04 2.436 7.465 7.956 14.315 20.452 6.152 22.044-14.4 51.987-34.84 30.952-84.067C226.866 77.17 224.907-5.498 224.907-5.498L279.518 6.44s-33.93 77.303-21.964 119.026c6.92 24.13 1.255 45.407-10.007 61.27-5.339 7.519-12.396 13.209-19.304 18.16-3.718 2.666-7.304 5.064-10.957 6.994-14.125 7.46-19.526.119-21.56-7.566a31.184 31.184 0 0 1-1.844-.042s.685-.007 1.81-.087a31.462 31.462 0 0 1-.419-1.85 46.557 46.557 0 0 1-1.07-.572c-1.622 7.683-.268 16.376 14.636 15.554 26.29-1.448 62.441-4.178 68.839-57.329 6.397-53.15 46.035-125.724 46.035-125.724l41.325 37.645s-68.036 49.98-78.534 92.097c-6.072 24.357-21.617 39.951-39.301 48.057-8.384 3.843-17.34 5.242-25.8 6.076-4.551.45-8.856.734-12.985.578-15.962-.603-16.969-9.66-14.888-17.332-.995-.572-1.576-.958-1.576-.958s.597.336 1.611.83c.17-.615.36-1.221.562-1.812-.233-.365-.447-.71-.64-1.031-5.247 5.843-8.42 14.048 4.898 20.789 23.492 11.89 56.165 27.601 88.28-15.23 32.115-42.83 102.73-85.862 102.73-85.862l16.966 53.264s-83.91 9.266-114.061 40.491c-17.437 18.058-38.697 23.79-58.065 21.968-9.181-.864-17.637-4.13-25.38-7.637-4.167-1.887-8.037-3.793-11.535-5.993-13.522-8.503-9.865-16.85-4.227-22.454a31.184 31.184 0 0 1-.886-1.617s.348.589.98 1.524c.455-.448.922-.878 1.393-1.288-.02-.433-.032-.84-.04-1.213-7.465 2.436-14.315 7.956-6.152 20.452 14.4 22.044 34.84 51.987 84.068 30.951 49.228-21.035 131.897-22.994 131.897-22.994l-11.938 54.611s-77.302-33.93-119.026-21.964c-24.129 6.92-45.407 1.255-61.269-10.007-7.52-5.339-13.21-12.396-18.161-19.304-2.665-3.718-5.064-7.304-6.993-10.957-7.46-14.125-.119-19.526 7.566-21.56-.003-1.147.041-1.844.041-1.844s.007.685.087 1.81c.618-.16 1.237-.299 1.85-.419.2-.384.392-.743.572-1.07-7.683-1.622-16.375-.268-15.554 14.636 1.449 26.29 4.179 62.441 57.33 68.838 53.15 6.398 125.723 46.036 125.723 46.036l-37.644 41.325s-49.981-68.036-92.098-78.534c-24.356-6.072-39.95-21.617-48.057-39.302-3.842-8.383-5.241-17.34-6.076-25.798-.449-4.552-.733-8.857-.577-12.986.602-15.962 9.66-16.969 17.332-14.888.571-.995.958-1.576.958-1.576s-.337.597-.83 1.611c.615.17 1.22.36 1.812.562.364-.233.71-.447 1.03-.64-5.842-5.247-14.048-8.42-20.788 4.898-11.891 23.492-27.602 56.165 15.23 88.28 42.83 32.115 85.861 102.73 85.861 102.73l-53.263 16.966s-9.267-83.91-40.492-114.061c-18.057-17.437-23.79-38.697-21.968-58.065.864-9.181 4.13-17.637 7.637-25.38 1.887-4.167 3.794-8.037 5.993-11.535 8.503-13.522 16.85-9.865 22.454-4.227a31.183 31.183 0 0 1 1.618-.886s-.59.348-1.524.98c.447.455.877.922 1.288 1.393.432-.02.839-.032 1.213-.04-2.437-7.465-7.956-14.315-20.453-6.152-22.044 14.4-51.986 34.84-30.951 84.068 21.035 49.228 22.994 131.897 22.994 131.897l-54.61-11.938s33.93-77.302 21.963-119.026c-6.92-24.129-1.254-45.407 10.008-61.269 5.338-7.52 12.396-13.21 19.304-18.161 3.717-2.665 7.303-5.064 10.957-6.993 14.125-7.46 19.526-.12 21.56 7.566 1.147-.003 1.843.041 1.843.041s-.684.007-1.81.087c.16.618.3 1.237.42 1.85.384.2.742.392 1.07.572 1.622-7.683.267-16.375-14.637-15.554-26.29 1.449-62.44 4.179-68.838 57.33-6.397 53.15-46.035 125.723-46.035 125.723l-41.326-37.644s68.036-49.981 78.535-92.098c6.071-24.356 21.617-39.95 39.301-48.057 8.383-3.843 17.34-5.241 25.799-6.076 4.551-.45 8.856-.733 12.985-.578 15.962.603 16.97 9.66 14.888 17.333.995.571 1.576.958 1.576.958s-.596-.337-1.61-.83c-.17.615-.36 1.22-.563 1.812.234.364.448.71.641 1.03 5.247-5.843 8.42-14.048-4.898-20.788-23.492-11.891-56.165-27.602-88.28 15.229-32.116 42.831-102.73 85.862-102.73 85.862L-6.174 226.14s83.911-9.267 114.062-40.492c17.436-18.057 38.696-23.79 58.064-21.968 9.182.864 17.638 4.13 25.38 7.637 4.167 1.887 8.037 3.794 11.535 5.993 13.523 8.503 9.866 16.85 4.227 22.454.576.993.886 1.618.886 1.618s-.348-.59-.98-1.524c-.455.447-.922.877-1.393 1.288.02.432.033.839.04 1.213 7.465-2.437 14.315-7.956 6.152-20.453-14.4-22.044-34.84-51.986-84.067-30.951C78.504 171.989-4.166 173.948-4.166 173.948l11.938-54.61s77.303 33.93 119.026 21.963c24.13-6.92 45.407-1.254 61.27 10.008 7.519 5.338 13.209 12.396 18.161 19.304 2.665 3.717 5.063 7.303 6.993 10.957 7.46 14.125.119 19.526-7.566 21.56.002 1.147-.042 1.843-.042 1.843s-.007-.684-.087-1.81c-.617.16-1.237.3-1.85.42-.199.384-.391.742-.572 1.07 7.683 1.622 16.376.267 15.554-14.637-1.448-26.29-4.178-62.441-57.329-68.838-53.15-6.397-125.723-46.035-125.723-46.035L73.25 33.817s49.98 68.036 92.097 78.535c24.357 6.071 39.951 21.617 48.057 39.301 3.843 8.383 5.242 17.34 6.076 25.799.45 4.551.734 8.856.578 12.985-.603 15.962-9.66 16.97-17.332 14.888-.572.995-.958 1.576-.958 1.576s.336-.596.83-1.611c-.615-.17-1.221-.36-1.812-.562zm.705-.46c.2-.134.403-.272.61-.414.415-.063.835-.133 1.26-.212-.153.347-.301.671-.441.971a32.353 32.353 0 0 1-1.429-.346zm-7.25-2.679c.105-.482.221-.959.346-1.429.133.2.271.403.414.61.062.415.132.835.211 1.26a52.48 52.48 0 0 1-.97-.441zm2.446 1.458c.261.328.532.657.813.985-.376.041-.732.075-1.061.104-.15-.47-.288-.94-.415-1.41.215.106.436.213.663.32zm-.453-.58a40.908 40.908 0 0 1-.42-.56c.034.143.07.286.107.428l.313.131zm4.248 2.155a44.95 44.95 0 0 1-.867.621 32.03 32.03 0 0 1-1.064-1.014c.24-.016.484-.033.735-.054.39.154.79.304 1.196.447zm.62-.46l.27-.206c-.235.03-.466.059-.694.085l.424.12zm-3.142-.536c.101.106.203.211.307.316.11-.013.223-.028.336-.043-.218-.09-.432-.181-.643-.273zm-.697-.747a43.601 43.601 0 0 1-1.68-1.967 43.601 43.601 0 0 1-.47-2.542c.274-.857.568-1.675.863-2.438a43.6 43.6 0 0 1 1.966-1.68c.879-.19 1.735-.345 2.543-.47.856.274 1.675.568 2.437.863.605.665 1.167 1.33 1.68 1.966.19.879.345 1.735.47 2.543a43.601 43.601 0 0 1-.862 2.437 43.602 43.602 0 0 1-1.967 1.68c-.878.19-1.734.345-2.542.47a43.601 43.601 0 0 1-2.438-.862zm8.204-.463a49.28 49.28 0 0 0-.104-1.061c-.328.28-.657.551-.985.812-.108.227-.215.449-.322.664.47-.127.942-.265 1.411-.415zm-1.8.517l.13-.312a40.92 40.92 0 0 1-.558.42c.142-.035.285-.07.427-.108zm1.29-2.038c.092-.211.183-.426.273-.643.015.113.03.225.043.336l-.316.307zm.603-.591a45.15 45.15 0 0 0-.053-.735c.153-.39.303-.79.446-1.197.224.306.431.596.621.867-.332.365-.67.72-1.014 1.065zm.384-4.37c-.3-.14-.624-.287-.97-.44.078.424.148.845.21 1.26.143.206.281.41.414.61.125-.47.242-.948.346-1.43zm-.452 1.819a48.913 48.913 0 0 0-.205-.27c.03.234.059.465.085.694l.12-.424zm-1.12-2.137a40.92 40.92 0 0 0-.42-.559l.312.131.108.428zm-.21-.818a45.16 45.16 0 0 0-.664-.321 36.483 36.483 0 0 0-.812-.986 49.28 49.28 0 0 1 1.06-.104c.15.47.289.941.416 1.411zm-3.592-2.518c-.271.19-.561.397-.867.621.407.144.806.293 1.197.447.25-.02.495-.038.735-.053-.345-.344-.7-.683-1.065-1.015zm1.349 1.301l-.336.043c.217.09.432.182.643.274a36.422 36.422 0 0 0-.307-.317zm-2.411-.098c-.229.026-.46.054-.694.085.09-.07.18-.139.27-.206l.424.12zm-.814-.227a56.25 56.25 0 0 0-.61.414c-.414.062-.835.132-1.259.211.153-.346.3-.671.44-.97.482.104.96.22 1.43.345zm-3.976 1.852c.03.33.063.684.104 1.06.328-.28.658-.55.986-.812.107-.227.215-.448.321-.663-.47.127-.941.265-1.41.415zm1.801-.518l-.13.313c.187-.144.373-.284.558-.42-.142.034-.285.07-.428.107zm-1.29 2.039c-.092.21-.183.425-.274.643-.015-.114-.03-.226-.043-.336.105-.104.21-.206.317-.307zm-.603.59c.015.24.033.485.053.736-.154.39-.303.79-.447 1.196-.224-.305-.43-.595-.62-.867.331-.364.67-.72 1.014-1.064zm.067 2.552l.206.27c-.031-.235-.06-.466-.085-.694-.041.14-.081.282-.12.424z" fill="url(#i)" mask="url(#j)"/></g></g><g mask="url(#f)"><g transform="translate(38 67)"><use fill="url(#k)" xlink:href="#l"/><use xlink:href="#l"/></g><g transform="translate(38 67)"><use fill="url(#k)" transform="rotate(-11 130.166 135.408)" xlink:href="#m"/><use xlink:href="#m"/></g><g transform="translate(38 67)"><use fill="url(#k)" xlink:href="#n"/><use xlink:href="#n"/></g><g transform="translate(38 67)"><use fill="url(#k)" transform="rotate(9 126.46 174.87)" xlink:href="#o"/><use xlink:href="#o"/></g><g transform="translate(38 67)"><use fill="url(#k)" xlink:href="#p"/><use xlink:href="#p"/></g><g transform="translate(38 67)"><use fill="url(#k)" xlink:href="#q"/><use xlink:href="#q"/></g><g transform="translate(38 67)"><use fill="url(#k)" xlink:href="#r"/><use xlink:href="#r"/></g><g transform="translate(38 67)"><use fill="url(#k)" xlink:href="#s"/><use xlink:href="#s"/></g><g transform="translate(38 67)"><use fill="url(#k)" xlink:href="#t"/><use xlink:href="#t"/></g><g transform="translate(38 67)"><use fill="url(#k)" xlink:href="#u"/><use xlink:href="#u"/></g><g transform="translate(38 67)"><use fill="url(#k)" xlink:href="#v"/><use xlink:href="#v"/></g></g><use stroke-opacity=".18" stroke="#0076FF" stroke-width="3" fill-opacity=".025" fill="#0076FF" xlink:href="#w"/><use fill="url(#x)" xlink:href="#w"/></g><g transform="translate(10.843 507.804)"><mask id="z" fill="#fff"><use xlink:href="#y"/></mask><use stroke-opacity=".36" stroke="#0076FF" stroke-width="3" fill-opacity=".055" fill="#0076FF" xlink:href="#y"/><g mask="url(#z)"><g transform="translate(261 12)"><mask id="B" fill="#fff"><use xlink:href="#A"/></mask><use fill="#FFF" xlink:href="#A"/><use fill="url(#h)" xlink:href="#A"/><path d="M200.132 199.912l-.098.055-.11-.03a65.135 65.135 0 0 1-.055-.099l.03-.109.099-.056.109.03.056.1-.03.109zm12.029-8.583a91.609 91.609 0 0 0 6.872-6.651c21.758-23.31 15.785-82.444-6.763-119.944-22.55-37.5-35.561-96.605-35.561-96.605l107.932 15.89s-16.35 46.338-19.137 104.122c-2.787 57.783-5.994 71.117-25.402 96.955-6.62 8.811-16.002 14.128-25.495 17.308a91.6 91.6 0 0 0 9.564.156c31.868-1.098 69.458-47.134 80.03-89.595 10.572-42.461 43.165-93.456 43.165-93.456l65.083 87.556s-44.327 21.204-87.157 60.093-54.526 46.049-86.52 50.595c-10.91 1.55-21.304-1.325-30.265-5.788a91.609 91.609 0 0 0 6.651 6.873c23.31 21.758 82.444 15.785 119.944-6.764s96.605-35.56 96.605-35.56l-15.89 107.931s-46.338-16.35-104.122-19.136c-57.783-2.787-71.117-5.995-96.955-25.403-8.811-6.618-14.128-16.002-17.308-25.494a91.608 91.608 0 0 0-.156 9.563c1.098 31.868 47.134 69.458 89.595 80.03 42.46 10.572 93.455 43.166 93.455 43.166l-87.555 65.082s-21.204-44.327-60.093-87.156c-38.889-42.83-46.05-54.526-50.596-86.52-1.55-10.91 1.326-21.305 5.789-30.266a91.608 91.608 0 0 0-6.873 6.652c-21.758 23.31-15.785 82.443 6.764 119.943s35.56 96.606 35.56 96.606l-107.931-15.89s16.35-46.339 19.136-104.122c2.787-57.783 5.994-71.117 25.403-96.955 6.618-8.812 16.002-14.128 25.494-17.308a91.609 91.609 0 0 0-9.563-.157c-31.868 1.098-69.458 47.135-80.03 89.596-10.572 42.46-43.166 93.455-43.166 93.455l-65.082-87.555s44.327-21.205 87.156-60.093c42.83-38.89 54.526-46.05 86.52-50.596 10.91-1.55 21.305 1.325 30.266 5.788a91.609 91.609 0 0 0-6.652-6.872c-23.31-21.758-82.443-15.785-119.943 6.763-37.5 22.55-96.606 35.561-96.606 35.561l15.89-107.932s46.339 16.35 104.122 19.137c57.783 2.787 71.117 5.994 96.955 25.402 8.811 6.62 14.128 16.002 17.308 25.495.21-2.979.274-6.164.157-9.564-1.098-31.868-47.135-69.458-89.596-80.03C70.7 85.063 19.705 52.47 19.705 52.47l87.555-65.083s21.205 44.327 60.093 87.157c38.889 42.829 46.05 54.526 50.596 86.52 1.55 10.91-1.325 21.304-5.788 30.265z" fill="#FF3F63" mask="url(#B)"/></g></g></g><g transform="rotate(-25 2876.713 -2148.402)"><mask id="D" fill="#fff"><use xlink:href="#C"/></mask><use stroke-opacity=".36" stroke="#0076FF" stroke-width="3" fill-opacity=".055" fill="#0076FF" xlink:href="#C"/><g mask="url(#D)"><g transform="translate(261 12)"><mask id="F" fill="#fff"><use xlink:href="#E"/></mask><use fill="#FFF" xlink:href="#E"/><use fill="url(#h)" xlink:href="#E"/><path d="M200.132 199.912l-.098.055-.11-.03a65.135 65.135 0 0 1-.055-.099l.03-.109.099-.056.109.03.056.1-.03.109zm12.029-8.583a91.609 91.609 0 0 0 6.872-6.651c21.758-23.31 15.785-82.444-6.763-119.944-22.55-37.5-35.561-96.605-35.561-96.605l107.932 15.89s-16.35 46.338-19.137 104.122c-2.787 57.783-5.994 71.117-25.402 96.955-6.62 8.811-16.002 14.128-25.495 17.308a91.6 91.6 0 0 0 9.564.156c31.868-1.098 69.458-47.134 80.03-89.595 10.572-42.461 43.165-93.456 43.165-93.456l65.083 87.556s-44.327 21.204-87.157 60.093-54.526 46.049-86.52 50.595c-10.91 1.55-21.304-1.325-30.265-5.788a91.609 91.609 0 0 0 6.651 6.873c23.31 21.758 82.444 15.785 119.944-6.764s96.605-35.56 96.605-35.56l-15.89 107.931s-46.338-16.35-104.122-19.136c-57.783-2.787-71.117-5.995-96.955-25.403-8.811-6.618-14.128-16.002-17.308-25.494a91.608 91.608 0 0 0-.156 9.563c1.098 31.868 47.134 69.458 89.595 80.03 42.46 10.572 93.455 43.166 93.455 43.166l-87.555 65.082s-21.204-44.327-60.093-87.156c-38.889-42.83-46.05-54.526-50.596-86.52-1.55-10.91 1.326-21.305 5.789-30.266a91.608 91.608 0 0 0-6.873 6.652c-21.758 23.31-15.785 82.443 6.764 119.943s35.56 96.606 35.56 96.606l-107.931-15.89s16.35-46.339 19.136-104.122c2.787-57.783 5.994-71.117 25.403-96.955 6.618-8.812 16.002-14.128 25.494-17.308a91.609 91.609 0 0 0-9.563-.157c-31.868 1.098-69.458 47.135-80.03 89.596-10.572 42.46-43.166 93.455-43.166 93.455l-65.082-87.555s44.327-21.205 87.156-60.093c42.83-38.89 54.526-46.05 86.52-50.596 10.91-1.55 21.305 1.325 30.266 5.788a91.609 91.609 0 0 0-6.652-6.872c-23.31-21.758-82.443-15.785-119.943 6.763-37.5 22.55-96.606 35.561-96.606 35.561l15.89-107.932s46.339 16.35 104.122 19.137c57.783 2.787 71.117 5.994 96.955 25.402 8.811 6.62 14.128 16.002 17.308 25.495.21-2.979.274-6.164.157-9.564-1.098-31.868-47.135-69.458-89.596-80.03C70.7 85.063 19.705 52.47 19.705 52.47l87.555-65.083s21.205 44.327 60.093 87.157c38.889 42.829 46.05 54.526 50.596 86.52 1.55 10.91-1.325 21.304-5.788 30.265z" fill="#FF4063" mask="url(#F)"/></g></g></g><g transform="translate(10.843 1011.804)"><mask id="H" fill="#fff"><use xlink:href="#G"/></mask><use stroke-opacity=".36" stroke="#0076FF" stroke-width="3" fill-opacity=".055" fill="#0076FF" xlink:href="#G"/><g mask="url(#H)"><g transform="translate(261 12)"><mask id="J" fill="#fff"><use xlink:href="#I"/></mask><use fill="#FFF" xlink:href="#I"/><use fill="url(#h)" xlink:href="#I"/><path d="M200.132 199.912l-.098.055-.11-.03a65.135 65.135 0 0 1-.055-.099l.03-.109.099-.056.109.03.056.1-.03.109zm12.029-8.583a91.609 91.609 0 0 0 6.872-6.651c21.758-23.31 15.785-82.444-6.763-119.944-22.55-37.5-35.561-96.605-35.561-96.605l107.932 15.89s-16.35 46.338-19.137 104.122c-2.787 57.783-5.994 71.117-25.402 96.955-6.62 8.811-16.002 14.128-25.495 17.308a91.6 91.6 0 0 0 9.564.156c31.868-1.098 69.458-47.134 80.03-89.595 10.572-42.461 43.165-93.456 43.165-93.456l65.083 87.556s-44.327 21.204-87.157 60.093-54.526 46.049-86.52 50.595c-10.91 1.55-21.304-1.325-30.265-5.788a91.609 91.609 0 0 0 6.651 6.873c23.31 21.758 82.444 15.785 119.944-6.764s96.605-35.56 96.605-35.56l-15.89 107.931s-46.338-16.35-104.122-19.136c-57.783-2.787-71.117-5.995-96.955-25.403-8.811-6.618-14.128-16.002-17.308-25.494a91.608 91.608 0 0 0-.156 9.563c1.098 31.868 47.134 69.458 89.595 80.03 42.46 10.572 93.455 43.166 93.455 43.166l-87.555 65.082s-21.204-44.327-60.093-87.156c-38.889-42.83-46.05-54.526-50.596-86.52-1.55-10.91 1.326-21.305 5.789-30.266a91.608 91.608 0 0 0-6.873 6.652c-21.758 23.31-15.785 82.443 6.764 119.943s35.56 96.606 35.56 96.606l-107.931-15.89s16.35-46.339 19.136-104.122c2.787-57.783 5.994-71.117 25.403-96.955 6.618-8.812 16.002-14.128 25.494-17.308a91.609 91.609 0 0 0-9.563-.157c-31.868 1.098-69.458 47.135-80.03 89.596-10.572 42.46-43.166 93.455-43.166 93.455l-65.082-87.555s44.327-21.205 87.156-60.093c42.83-38.89 54.526-46.05 86.52-50.596 10.91-1.55 21.305 1.325 30.266 5.788a91.609 91.609 0 0 0-6.652-6.872c-23.31-21.758-82.443-15.785-119.943 6.763-37.5 22.55-96.606 35.561-96.606 35.561l15.89-107.932s46.339 16.35 104.122 19.137c57.783 2.787 71.117 5.994 96.955 25.402 8.811 6.62 14.128 16.002 17.308 25.495.21-2.979.274-6.164.157-9.564-1.098-31.868-47.135-69.458-89.596-80.03C70.7 85.063 19.705 52.47 19.705 52.47l87.555-65.083s21.205 44.327 60.093 87.157c38.889 42.829 46.05 54.526 50.596 86.52 1.55 10.91-1.325 21.304-5.788 30.265z" fill="#FF3F63" mask="url(#J)"/></g></g></g></g></svg>