<?xml version="1.0" encoding="UTF-8"?>
<svg width="274px" height="274px" viewBox="0 0 274 274" version="1.1" xmlns="http://www.w3.org/2000/svg" xmlns:xlink="http://www.w3.org/1999/xlink">
    <!-- Generator: Sketch 47.1 (45422) - http://www.bohemiancoding.com/sketch -->
    <title>dribbble-ball</title>
    <desc>Created with Sketch.</desc>
    <defs></defs>
    <g id="Page-1" stroke="none" stroke-width="1" fill="none" fill-rule="evenodd">
        <g id="dribbble-ball">
            <path d="M137.176699,0.668829011 C61.9095899,0.668829011 0.676006504,61.9022829 0.676006504,137.168434 C0.676006504,212.435444 61.9095899,273.668829 137.176699,273.668829 C212.442378,273.668829 273.676007,212.435444 273.676007,137.168434 C273.676007,61.9022829 212.442378,0.668829011 137.176699,0.668829011 Z" id="bg" fill="#C32361"></path>
            <path d="M251.952508,118.473251 C247.969042,119.732363 215.912946,129.304478 179.427183,123.457237 C194.656065,81.5550311 200.853412,47.4276523 202.046453,40.3354165 C228.167786,58.020411 246.762681,86.0352768 251.952508,118.473251 Z" id="6" fill="#EA4C89"></path>
            <path d="M157.633718,118.070717 C157.377795,117.982961 157.121871,117.899974 156.865947,117.81031 C91.1928109,94.8973284 67.6180608,49.296194 65.5224366,45.007486 C85.2645166,29.5931859 110.073789,20.3968972 136.991434,20.3968972 C153.12033,20.3968972 168.492871,23.7000637 182.472579,29.6620555 C180.7401,39.8905301 173.980482,75.53781 157.633718,118.070717 Z" id="5" fill="#EA4C89"></path>
            <path d="M50.4890654,59.0291316 C53.1265056,63.5491537 85.0816597,116.526397 145.131517,135.960603 C146.648982,136.451848 148.178816,136.913522 149.720066,137.347534 C146.796448,143.971228 143.613101,150.601599 140.279434,157.132766 C82.1334959,139.709324 25.710523,140.437129 20.6165016,140.541101 C20.5804439,139.358299 20.5566592,138.171681 20.5566592,136.97934 C20.5566592,107.036315 31.8931235,79.6967913 50.4890654,59.0291316 Z" id="4" fill="#EA4C89"></path>
            <path d="M23.0165703,160.856686 C28.2242826,160.788007 76.1939752,160.579109 130.658038,175.060808 C111.365775,209.399279 90.5588054,238.269196 87.4895298,242.48436 C54.9152118,227.100298 30.5663166,197.03327 23.0165703,160.856686 Z" id="3" fill="#EA4C89"></path>
            <path d="M109.705601,250.320426 C112.92415,246.006059 134.07067,217.171435 153.150774,182.071774 C194.553315,197.609409 212.080752,221.198686 214.174759,224.184309 C193.612391,242.450021 166.575822,253.561686 136.991434,253.561686 C127.596469,253.561686 118.461233,252.433255 109.705601,250.320426 Z" id="2" fill="#EA4C89"></path>
            <path d="M227.118404,210.703223 C224.663821,207.378976 205.152738,182.335042 162.103343,164.736087 C164.811947,159.183593 167.409239,153.534758 169.827669,147.849675 C170.683919,145.834142 171.519239,143.829101 172.33553,141.832645 C211.077988,146.710751 249.572133,138.893762 253.410987,138.080109 C253.155063,165.597435 243.334827,190.864574 227.118404,210.703223 Z" id="1" fill="#EA4C89"></path>
        </g>
    </g>
</svg>