<?xml version="1.0" encoding="UTF-8"?>
<svg width="256px" height="256px" viewBox="0 0 256 256" version="1.1" xmlns="http://www.w3.org/2000/svg" xmlns:xlink="http://www.w3.org/1999/xlink">
    <!-- Generator: Sketch 47.1 (45422) - http://www.bohemiancoding.com/sketch -->
    <title>github</title>
    <desc>Created with Sketch.</desc>
    <defs>
        <circle id="path-1" cx="128" cy="128" r="128"></circle>
    </defs>
    <g id="Page-1" stroke="none" stroke-width="1" fill="none" fill-rule="evenodd">
        <g id="github">
            <mask id="mask-2" fill="white">
                <use xlink:href="#path-1"></use>
            </mask>
            <use id="bg" fill="#FFFFFF" fill-rule="nonzero" xlink:href="#path-1"></use>
            <path d="M93.839807,255.474312 C93.839807,252.217312 93.722807,243.572312 93.654807,232.109312 C55.547807,240.409312 47.507807,213.689312 47.507807,213.689312 C41.277807,197.815312 32.294807,193.589312 32.294807,193.589312 C19.854807,185.071312 33.236807,185.239312 33.236807,185.239312 C46.986807,186.209312 54.218807,199.401312 54.218807,199.401312 C66.438807,220.394312 86.288807,214.331312 94.092807,210.813312 C95.336807,201.940312 98.877807,195.883312 102.788807,192.451312 C72.368807,188.985312 40.383807,177.193312 40.383807,124.546312 C40.383807,109.549312 45.723807,97.2763122 54.487807,87.6793122 C53.075807,84.2043122 48.374807,70.2293122 55.834807,51.3193122 C55.834807,51.3193122 67.331807,47.6243122 93.504807,65.4043122 C104.429807,62.3513122 116.154807,60.8323122 127.801807,60.7743122 C139.441807,60.8323122 151.157807,62.3513122 162.099807,65.4043122 C188.255807,47.6243122 199.735807,51.3183122 199.735807,51.3183122 C207.211807,70.2283122 202.510807,84.2043122 201.105807,87.6783122 C209.885807,97.2783122 215.185807,109.548312 215.185807,124.545312 C215.185807,177.325312 183.150807,188.941312 152.637807,192.340312 C157.549807,196.582312 161.930807,204.966312 161.930807,217.786312 C161.930807,236.149312 161.762807,250.968312 161.762807,255.472312 C161.762807,259.149312 93.839807,259.116312 93.839807,255.474312 Z" id="Shape" fill="#B03AD3" fill-rule="nonzero" mask="url(#mask-2)"></path>
        </g>
    </g>
</svg>
