<?xml version="1.0" encoding="UTF-8"?>
<svg width="274px" height="274px" viewBox="0 0 274 274" version="1.1" xmlns="http://www.w3.org/2000/svg" xmlns:xlink="http://www.w3.org/1999/xlink">
    <!-- Generator: Sketch 47.1 (45422) - http://www.bohemiancoding.com/sketch -->
    <title>spotify</title>
    <desc>Created with Sketch.</desc>
    <defs></defs>
    <g id="Page-1" stroke="none" stroke-width="1" fill="none" fill-rule="evenodd">
        <g id="spotify" fill-rule="nonzero">
            <path d="M0,137 C0,212.35 61.65,274 137,274 C212.35,274 274,212.35 274,137 C274,61.65 213.035,0 137,0 C61.65,0 0,61.65 0,137 L0,137 Z" id="Shape" fill="#A2E40A"></path>
            <path d="M200.02,197.965 C197.28,202.075 192.485,203.445 188.375,200.705 C156.18,180.84 115.765,176.73 67.815,187.69 C63.02,189.06 58.91,185.635 57.54,181.525 C56.17,176.73 59.595,172.62 63.705,171.25 C115.765,159.605 160.975,164.4 196.595,186.32 C201.39,188.375 202.075,193.855 200.02,197.965 L200.02,197.965 Z M216.46,160.29 C213.035,165.085 206.87,167.14 202.075,163.715 C165.085,141.11 108.915,134.26 65.76,147.96 C60.28,149.33 54.115,146.59 52.745,141.11 C51.375,135.63 54.115,129.465 59.595,128.095 C109.6,113.025 171.25,120.56 213.72,146.59 C217.83,148.645 219.885,155.495 216.46,160.29 L216.46,160.29 Z M217.83,121.93 C173.99,95.9 100.695,93.16 58.91,106.175 C52.06,108.23 45.21,104.12 43.155,97.955 C41.1,91.105 45.21,84.255 51.375,82.2 C100.01,67.815 180.155,70.555 230.845,100.695 C237.01,104.12 239.065,112.34 235.64,118.505 C232.215,123.3 223.995,125.355 217.83,121.93 L217.83,121.93 Z" id="Shape" fill="#222222"></path>
        </g>
    </g>
</svg>