<?xml version="1.0" encoding="UTF-8"?>
<svg width="256px" height="256px" viewBox="0 0 256 256" version="1.1" xmlns="http://www.w3.org/2000/svg" xmlns:xlink="http://www.w3.org/1999/xlink">
    <!-- Generator: Sketch 47.1 (45422) - http://www.bohemiancoding.com/sketch -->
    <title>favicon.svg</title>
    <desc>Created with Sketch.</desc>
    <defs></defs>
    <g id="Page-1" stroke="none" stroke-width="1" fill="none" fill-rule="evenodd">
        <g id="favicon.svg">
            <rect id="Rectangle" fill="#0099FF" x="0" y="0" width="256" height="256"></rect>
            <path d="M188.125589,208 L160.914704,208 L134.959707,118.533516 C133.843357,114.634727 132.447941,109.008929 130.773417,101.655951 C129.098893,94.3029728 128.087216,89.1901648 127.738357,86.3173735 C127.040638,90.6949603 125.906863,96.3720581 124.336996,103.348837 C122.76713,110.325616 121.458927,115.523923 120.41235,118.943912 L95.0852957,208 L67.8744113,208 L48.0941915,132.897401 L28,58 L53.5363684,58 L75.4097331,145.414501 C78.8285536,159.436459 81.2705317,171.816636 82.7357405,182.555404 C83.5032308,176.741421 84.654449,170.243538 86.1894296,163.06156 C87.7244103,155.879581 89.1198263,150.065686 90.3757195,145.619699 L115.284144,58 L140.087912,58 L165.62428,146.030096 C168.066295,154.169671 170.647815,166.344652 173.368917,182.555404 C174.415495,172.774233 176.927243,160.325657 180.904239,145.209302 L202.672946,58 L228,58 L188.125589,208 Z" id="open-sans-semibold" fill="#FFFFFF"></path>
        </g>
    </g>
</svg>
