<?xml version="1.0" encoding="UTF-8" standalone="no"?>
<svg width="1096px" height="274px" viewBox="0 0 1096 274" version="1.1" xmlns="http://www.w3.org/2000/svg" xmlns:xlink="http://www.w3.org/1999/xlink" xmlns:sketch="http://www.bohemiancoding.com/sketch/ns">
    <!-- Generator: Sketch 3.2.2 (9983) - http://www.bohemiancoding.com/sketch -->
    <title>iconSprite</title>
    <desc>Created with Sketch.</desc>
    <defs></defs>
    <g id="Page-1" stroke="none" stroke-width="1" fill="none" fill-rule="evenodd" sketch:type="MSPage">
        <g id="iconSprite" sketch:type="MSLayerGroup">
            <g id="Group" sketch:type="MSShapeGroup">
                <g id="external-link-arrow" transform="translate(822.000000, 0.000000)" stroke="#4A4A4A" stroke-width="10" fill="#4A4A4A">
                    <path d="M173.410364,30.5790666 C167.892468,30.5790666 163.419899,26.1019141 163.419899,20.5790666 C163.419899,15.0550048 167.89708,10.5790666 173.419963,10.5790666 L253.419835,10.5790666 C258.945166,10.5790666 263.419899,15.0562477 263.419899,20.5791304 L263.419899,100.579003 C263.419899,106.104334 258.942747,110.579067 253.419899,110.579067 C247.895837,110.579067 243.419899,106.106183 243.419899,100.588602 L243.419899,44.7212022 L132.072154,156.068947 C128.165507,159.975595 121.833577,159.977592 117.927475,156.071491 C114.022232,152.166248 114.025271,145.831559 117.930019,141.926811 L229.277763,30.5790666 L173.410364,30.5790666 Z" id="arrow"></path>
                    <path d="M30,233.991283 C30,239.518945 34.467352,244 40.0087166,244 L179.991283,244 C185.518945,244 190,239.525267 190,233.999936 L190,154.000064 C190,148.477181 194.475938,144 200,144 L200,144 C205.522847,144 210,148.485131 210,153.999057 L210,254.000943 C210,259.52327 205.51855,264 199.996403,264 L20.0035975,264 C14.4787632,264 10,259.51855 10,253.996403 L10,74.0035975 C10,68.4787632 14.4851311,64 19.9990573,64 L120.000943,64 C125.52327,64 130,68.4759382 130,74 L130,74 C130,79.5228475 125.525267,84 119.999936,84 L40.0000638,84 C34.4771811,84 30,88.467352 30,94.0087166 L30,233.991283 Z" id="document"></path>
                </g>
                <g id="email" transform="translate(548.000000, 33.000000)">
                    <rect id="bg" fill="#FFFFFF" x="0" y="0" width="274" height="209" rx="20"></rect>
                    <path d="M20,28.9417989 L108.369087,118.765746 C124.181591,134.83863 149.813803,134.843101 165.630913,118.765746 L254,28.9417989 L254,171.125344 C254,180.99709 245.757488,189 235.577567,189 L38.4224331,189 C28.2480394,189 20,180.994407 20,171.125344 L20,28.9417989 L20,28.9417989 Z" id="Shape" fill="#FF5252"></path>
                    <path d="M156.005591,101.559937 C145.509677,112.319603 128.487559,112.316921 117.994409,101.559937 L38.4251969,20 L235.574803,20 L156.005591,101.559937 Z" id="Shape" fill="#FF5252"></path>
                </g>
                <g id="spotify" transform="translate(274.000000, 0.000000)">
                    <path d="M0,137 C0,212.35 61.65,274 137,274 C212.35,274 274,212.35 274,137 C274,61.65 213.035,0 137,0 C61.65,0 0,61.65 0,137 L0,137 Z" id="Shape" fill="#A2E40A"></path>
                    <path d="M200.02,197.965 C197.28,202.075 192.485,203.445 188.375,200.705 C156.18,180.84 115.765,176.73 67.815,187.69 C63.02,189.06 58.91,185.635 57.54,181.525 C56.17,176.73 59.595,172.62 63.705,171.25 C115.765,159.605 160.975,164.4 196.595,186.32 C201.39,188.375 202.075,193.855 200.02,197.965 L200.02,197.965 Z M216.46,160.29 C213.035,165.085 206.87,167.14 202.075,163.715 C165.085,141.11 108.915,134.26 65.76,147.96 C60.28,149.33 54.115,146.59 52.745,141.11 C51.375,135.63 54.115,129.465 59.595,128.095 C109.6,113.025 171.25,120.56 213.72,146.59 C217.83,148.645 219.885,155.495 216.46,160.29 L216.46,160.29 Z M217.83,121.93 C173.99,95.9 100.695,93.16 58.91,106.175 C52.06,108.23 45.21,104.12 43.155,97.955 C41.1,91.105 45.21,84.255 51.375,82.2 C100.01,67.815 180.155,70.555 230.845,100.695 C237.01,104.12 239.065,112.34 235.64,118.505 C232.215,123.3 223.995,125.355 217.83,121.93 L217.83,121.93 Z" id="Shape" fill="#222222"></path>
                </g>
                <g id="github">
                    <circle id="bg" fill="#FFFFFF" cx="137" cy="137" r="137"></circle>
                    <path d="M136.987,0 C61.345,0 0,61.512 0,137.395 C0,198.097 39.25,249.589 93.69,267.757 C100.545,269.022 103.043,264.779 103.043,261.137 C103.043,257.88 102.926,249.235 102.858,237.772 C64.751,246.072 56.711,219.352 56.711,219.352 C50.481,203.478 41.498,199.252 41.498,199.252 C29.058,190.734 42.44,190.902 42.44,190.902 C56.19,191.872 63.422,205.064 63.422,205.064 C75.642,226.057 95.492,219.994 103.296,216.476 C104.54,207.603 108.081,201.546 111.992,198.114 C81.572,194.648 49.587,182.856 49.587,130.209 C49.587,115.212 54.927,102.939 63.691,93.342 C62.279,89.867 57.578,75.892 65.038,56.982 C65.038,56.982 76.535,53.287 102.708,71.067 C113.633,68.014 125.358,66.495 137.005,66.437 C148.645,66.495 160.361,68.014 171.303,71.067 C197.459,53.287 208.939,56.981 208.939,56.981 C216.415,75.891 211.714,89.867 210.309,93.341 C219.089,102.941 224.389,115.211 224.389,130.208 C224.389,182.988 192.354,194.604 161.841,198.003 C166.753,202.245 171.134,210.629 171.134,223.449 C171.134,241.812 170.966,256.631 170.966,261.135 C170.966,264.812 173.439,269.088 180.386,267.747 C234.783,249.538 274,198.08 274,137.395 C274,61.512 212.655,0 136.987,0" fill="#161614"></path>
                </g>
            </g>
        </g>
    </g>
</svg>