<?xml version="1.0" encoding="UTF-8"?>
<svg width="800px" height="800px" viewBox="0 0 800 800" version="1.1" xmlns="http://www.w3.org/2000/svg" xmlns:xlink="http://www.w3.org/1999/xlink">
    <!-- Generator: Sketch 47.1 (45422) - http://www.bohemiancoding.com/sketch -->
    <title>socket</title>
    <desc>Created with Sketch.</desc>
    <defs></defs>
    <g id="Page-1" stroke="none" stroke-width="1" fill="none" fill-rule="evenodd">
        <g id="socket">
            <rect id="bg-white" fill="#FFFFFF" x="0" y="0" width="800" height="800"></rect>
            <g transform="translate(23.000000, 108.000000)" fill="#4A4A4A">
                <g id="left" transform="translate(95.000000, 0.000000)">
                    <rect id="hole" x="71" y="61" width="70" height="239" rx="10"></rect>
                </g>
                <g id="right" transform="translate(461.000000, 21.000000)">
                    <rect id="hole" x="69" y="64" width="60" height="190" rx="10"></rect>
                </g>
                <g id="bottom" transform="translate(265.000000, 403.000000)">
                    <path d="M41.0878013,165.472784 C41.0878013,170.997719 45.5737001,175.476564 51.089999,175.476564 L178.289588,175.476563 C183.813649,175.476563 188.291785,171.001995 188.291785,165.472783 L188.291785,79.0256822 C188.291785,79.0256822 188.291781,33.6523454 114.689791,33.6523454 C41.0878013,33.6523454 41.0878013,79.0256822 41.0878013,79.0256822 L41.0878013,165.472784 Z" id="hole" transform="translate(114.500000, 104.500000) scale(1, -1) translate(-114.500000, -104.500000) "></path>
                </g>
            </g>
        </g>
    </g>
</svg>