<?xml version="1.0" encoding="UTF-8" standalone="no"?>
<svg width="2167px" height="1440px" viewBox="0 0 2167 1440" version="1.1" xmlns="http://www.w3.org/2000/svg" xmlns:xlink="http://www.w3.org/1999/xlink" xmlns:sketch="http://www.bohemiancoding.com/sketch/ns">
    <!-- Generator: Sketch 3.2.2 (9983) - http://www.bohemiancoding.com/sketch -->
    <title>pepermints</title>
    <desc>Created with Sketch.</desc>
    <defs>
        <radialGradient cx="50%" cy="50%" fx="50%" fy="50%" r="50%" id="radialGradient-1">
            <stop stop-color="#FFFFFF" stop-opacity="0" offset="0%"></stop>
            <stop stop-color="#7E7E7E" stop-opacity="0" offset="82.3182398%"></stop>
            <stop stop-color="#000000" stop-opacity="0.204370471" offset="100%"></stop>
        </radialGradient>
        <circle id="path-2" cx="200" cy="200" r="200"></circle>
        <path d="M402.080088,138.88389 L651.234375,45.9151858 L608.762238,132.505028 L662.281769,192.696442 L618.953644,254.930817 L662.281769,327.821436 L400.745668,265.401062 C373.162866,350.760793 293.041415,412.5 198.5,412.5 C105.290221,412.5 26.09705,352.487764 -2.54897588,268.993827 L-233.817957,347.636149 L-203.29635,282.145651 L-261.92341,215.070311 L-213.146082,157.864409 L-261.923411,82.495525 L-5.68130733,140.926876 C19.9124463,52.3073492 101.637939,-12.5 198.5,-12.5 C294.616176,-12.5 375.828004,51.313096 402.080088,138.88389 Z" id="path-4"></path>
        <path d="M645.071205,148.11515 C685.342455,134.144239 746.067299,105.472082 818.085938,46.953125 C858.074219,18.7734375 892.253906,26.4179686 892.253906,26.4179686 L864.203125,69.3554673 L897.234375,78.9999985 L864.203125,114.527342 L897.234388,136.054692 L872.257826,161.179684 L906.703138,183.872372 L864.203138,209.289059 L884.875013,231.601559 L864.203138,247.015622 L897.234388,273.937497 L872.257826,285.460944 L906.703125,335.253904 C906.703125,335.253904 872.257812,354.613279 823.988281,335.253903 C764.079942,285.992133 693.94757,273.560177 646.667731,271.620111 C621.058664,360.215558 539.344941,425 442.5,425 C346.966825,425 266.157739,361.958684 239.403672,275.206984 C193.114838,299.226977 107.502144,345.212094 85.5078125,367.746094 C54.1796875,381.117187 28.1249847,362.882812 28.1249847,362.882812 L40.7421722,336.429689 C61.3281097,317.148439 15.7656119,284.945308 15.7656119,284.945308 L40.7421744,259.820316 L6.29686188,237.127628 L48.7968619,211.710941 L28.1249869,189.398441 L48.7968619,173.984378 L15.7656119,147.062503 L40.7421744,135.539056 L0.0195312467,97.7421887 C0.0195312467,97.7421887 15.7656097,84.8906262 66.453125,84.8906262 C126.04354,132.785624 199.79049,148.09595 238.451887,152.967638 C264.194964,64.5835456 345.805334,0 442.5,0 C537.416179,0 617.797844,62.2296475 645.071205,148.11515 Z" id="path-6"></path>
        <radialGradient cx="50%" cy="50%" fx="50%" fy="50%" r="50%" id="radialGradient-8">
            <stop stop-color="#FFFFFF" stop-opacity="0" offset="0%"></stop>
            <stop stop-color="#7E7E7E" stop-opacity="0" offset="76.2037628%"></stop>
            <stop stop-color="#003E87" stop-opacity="0.2" offset="100%"></stop>
        </radialGradient>
        <circle id="path-9" cx="200" cy="200" r="200"></circle>
        <radialGradient cx="50%" cy="50%" fx="50%" fy="50%" r="20.8196058%" id="radialGradient-11">
            <stop stop-color="#0076FF" stop-opacity="0.06" offset="0%"></stop>
            <stop stop-color="#D0011B" stop-opacity="0" offset="30.3013393%"></stop>
            <stop stop-color="#D0011B" stop-opacity="0.0483752264" offset="31.4074458%"></stop>
            <stop stop-color="#E43958" offset="100%"></stop>
        </radialGradient>
        <linearGradient x1="371.333874%" y1="100%" x2="-9.40205628%" y2="182.436899%" id="linearGradient-12">
            <stop stop-color="#0076FF" stop-opacity="0.12" offset="0%"></stop>
            <stop stop-color="#0076FF" stop-opacity="0" offset="34.6938957%"></stop>
            <stop stop-color="#0076FF" stop-opacity="0" offset="41.2388076%"></stop>
            <stop stop-color="#0076FF" stop-opacity="0.12" offset="100%"></stop>
        </linearGradient>
        <path id="path-13" d="M204.507807,119.793213 C175.43149,120.212496 115.294077,113.379898 5.1171875,68.2187502 C-9.09936642,62.3914311 27.3565951,105.677717 206.361465,116.637714 C213.188201,117.055697 227.337891,116.536149 232.98047,71.0878907 C230.00586,111.496095 220.961423,119.55595 204.507807,119.793213 Z"></path>
        <path id="path-14" d="M13.2833294,118.12652 C1.22278264,111.665582 64.8466792,162.574655 211.776022,151.564047 C335.036002,142.327176 116.714513,173.535486 13.2833294,118.12652 Z"></path>
        <path id="path-15" d="M199.905561,171.434431 C164.909128,178.312964 82.7665545,197.455894 1.40625,260.5 C1.40625,266.034345 -5.08528677,228.331465 196.728317,172.792822 C203.310317,170.981471 239.296245,154.302734 237.476558,229.121094 C239.296245,172.792822 212.478395,168.963246 199.905561,171.434431 Z"></path>
        <path id="path-16" d="M198.395636,138.713589 C163.558285,151.758992 68.7130854,182.061253 4.31678725,214.154571 C70.4559332,175.566635 114.434546,157.92149 195.928446,136.27016 C201.003926,134.921704 248.458297,139.25214 248.458297,208.125379 C241.392196,149.615579 208.054315,135.096743 198.395636,138.713589 Z"></path>
        <path id="path-17" d="M202.359761,132.244497 C173.579105,132.200649 79.9779872,130.156614 13.65625,106.75 C13.65625,106.75 77.1351986,142.234311 198.232193,133.287784 C202.45777,132.975602 230.802734,133.592472 237.318359,103.447266 C233.697266,124.080078 207.971741,132.253047 202.359761,132.244497 Z"></path>
        <path id="path-18" d="M621.843664,184.063947 C609.449315,184.319659 594.519531,194.373046 583.6875,214.394531 C599.646484,194.373046 610.43172,186.949996 621.822138,187.441134 C727.889089,192.014578 750.64352,206.7442 850.119141,221.185547 C850.119141,221.185547 739.171166,181.643325 621.843664,184.063947 Z"></path>
        <path id="path-19" d="M608.446827,163.666431 C595.563387,164.730825 583.892578,173.466797 583.892578,200.541015 C589.351562,177.09375 596.467001,168.340662 608.818985,168.515568 C715.025265,170.019462 749.123066,169.115208 845.871094,179.8125 C845.871094,179.8125 752.086036,151.799359 608.446827,163.666431 Z"></path>
        <path id="path-20" d="M612.657974,145.193322 C594.936078,146.571607 594.53988,149.859213 575.566406,152.02539 C595.14039,151.140037 595.336861,148.783889 612.473337,148.064282 C704.929894,144.181782 766.0759,142.795684 840.871094,144.8125 C840.871094,144.8125 746.415816,134.79057 612.657974,145.193322 Z"></path>
        <path id="path-21" d="M609.927343,131.720361 C596.459961,132.440271 593.826172,135.12649 570.011719,126.636719 C597.636719,136.523436 597.030356,135.081911 609.857062,135.126489 C720.479656,135.510951 766.424711,95.6702672 845.871094,97.8124995 C845.871094,97.8124995 744.115664,124.547218 609.927343,131.720361 Z"></path>
        <path id="path-22" d="M607.320812,121.601963 C588.231385,124.866433 571.930664,129.773437 566.991211,93.0478511 C570.064453,133.889648 591.051389,125.165586 608.260973,123.254824 C749.117247,107.615699 741.687338,82.0983386 830.871094,49.8124995 C830.871094,49.8124995 724.860829,101.50152 607.320812,121.601963 Z"></path>
        <path id="path-23" d="M612.572675,109.779565 C603.24482,112.348208 579.902344,113.870117 587.097656,80.8808589 C584.296875,105.706054 600.828688,112.212999 608.865659,109.772616 C758.516123,64.3320698 790.253625,16.7671834 830.871094,-0.187500458 C830.871094,-0.187500458 756.436099,70.1634133 612.572675,109.779565 Z"></path>
        <linearGradient x1="47.0688051%" y1="68.7665441%" x2="57.4963823%" y2="2.63786765%" id="linearGradient-24">
            <stop stop-color="#0076FF" stop-opacity="0.03515625" offset="0%"></stop>
            <stop stop-color="#0076FF" stop-opacity="0" offset="100%"></stop>
        </linearGradient>
        <path d="M645.071205,148.11515 C685.342455,134.144239 746.067299,105.472082 818.085938,46.953125 C858.074219,18.7734375 892.253906,26.4179686 892.253906,26.4179686 L864.203125,69.3554673 L897.234375,78.9999985 L864.203125,114.527342 L897.234388,136.054692 L872.257826,161.179684 L906.703138,183.872372 L864.203138,209.289059 L884.875013,231.601559 L864.203138,247.015622 L897.234388,273.937497 L872.257826,285.460944 L906.703125,335.253904 C906.703125,335.253904 872.257812,354.613279 823.988281,335.253903 C764.079942,285.992133 693.94757,273.560177 646.667731,271.620111 C621.058664,360.215558 539.344941,425 442.5,425 C346.966825,425 266.157739,361.958684 239.403672,275.206984 C193.114838,299.226977 107.502144,345.212094 85.5078125,367.746094 C54.1796875,381.117187 28.1249847,362.882812 28.1249847,362.882812 L40.7421722,336.429689 C61.3281097,317.148439 15.7656119,284.945308 15.7656119,284.945308 L40.7421744,259.820316 L6.29686188,237.127628 L48.7968619,211.710941 L28.1249869,189.398441 L48.7968619,173.984378 L15.7656119,147.062503 L40.7421744,135.539056 L0.0195312467,97.7421887 C0.0195312467,97.7421887 15.7656097,84.8906262 66.453125,84.8906262 C126.04354,132.785624 199.79049,148.09595 238.451887,152.967638 C264.194964,64.5835456 345.805334,0 442.5,0 C537.416179,0 617.797844,62.2296475 645.071205,148.11515 Z" id="path-25"></path>
        <path d="M665.879299,157.746731 L908.253906,38.4179686 L881.172394,108.622215 L917.996613,126.340965 L896.406769,171.110504 L924.281769,205.196442 L888.257813,232.251129 L913.234375,272.758942 L881.172394,295.473785 L913.234375,355.280792 L661.958441,280.288527 C633.663743,364.409607 554.157694,425 460.5,425 C362.868594,425 280.615161,359.159073 255.719487,269.457006 L28.1820428,360.136149 L48.8539181,304.926905 L15.8226833,279.833151 L48.8539181,236.672995 L0.0765895877,202.32144 L48.8539181,170.364409 L15.8226833,142.266753 L0.0765892966,94.995525 L256.318693,153.426876 C281.912446,64.8073492 363.637939,3.41060513e-13 460.5,3.41060513e-13 C558.929193,3.41060513e-13 641.728067,66.9213511 665.879299,157.746731 Z" id="path-27"></path>
        <circle id="path-29" cx="200" cy="200" r="200"></circle>
        <path d="M664.080088,151.38389 L913.234375,58.4151858 L870.762238,145.005028 L924.281769,205.196442 L880.953644,267.430817 L924.281769,340.321436 L662.745668,277.901062 C635.162866,363.260793 555.041415,425 460.5,425 C367.290221,425 288.09705,364.987764 259.451024,281.493827 L28.1820428,360.136149 L58.7036495,294.645651 L0.0765895877,227.570311 L48.8539181,170.364409 L0.0765892966,94.995525 L256.318693,153.426876 C281.912446,64.8073492 363.637939,2.27373675e-13 460.5,2.27373675e-13 C556.616176,2.27373675e-13 637.828004,63.813096 664.080088,151.38389 Z" id="path-31"></path>
        <circle id="path-33" cx="200" cy="200" r="200"></circle>
        <path d="M659.906651,138.894427 L910.253906,26.4179686 L882.203125,69.3554673 L915.234375,78.9999985 L882.203125,114.527342 L915.234388,136.054692 L890.257826,161.179684 L924.703138,183.872372 L882.203138,209.289059 L902.875013,231.601559 L882.203138,247.015622 L915.234388,273.937497 L890.257826,285.460944 L915.234375,343.280792 L663.622062,275.123478 C636.894112,361.918226 556.063825,425 460.5,425 C363.195274,425 281.165781,359.59895 255.971318,270.356646 L28.1820428,361.136149 L48.8539178,335.747935 L15.8226699,283.198644 L40.7992324,258.073652 L6.35391993,235.380964 L48.8539199,209.964277 L28.1820449,187.651777 L48.8539199,172.237714 L15.8226699,145.315839 L40.7992324,133.792392 L0.0765892966,95.995525 L256.04994,154.365592 C281.336054,65.2653777 363.296254,2.27373675e-13 460.5,2.27373675e-13 C551.984581,2.27373675e-13 629.966611,57.8112894 659.906651,138.894427 Z" id="path-35"></path>
        <circle id="path-37" cx="200" cy="200" r="200"></circle>
    </defs>
    <g id="Page-1" stroke="none" stroke-width="1" fill="none" fill-rule="evenodd" sketch:type="MSPage">
        <g id="export" sketch:type="MSLayerGroup" transform="translate(10.000000, 3.000000)">
            <g id="blocks" transform="translate(1476.000000, 213.000000)">
                <mask id="mask-3" sketch:name="Oval 1" fill="white">
                    <use xlink:href="#path-2"></use>
                </mask>
                <g id="Oval-1">
                    <use fill="#FFFFFF" sketch:type="MSShapeGroup" xlink:href="#path-2"></use>
                    <use fill="url(#radialGradient-1)" xlink:href="#path-2"></use>
                </g>
                <mask id="mask-5" sketch:name="wrapper simpler 2" fill="white">
                    <use xlink:href="#path-4"></use>
                </mask>
                <use id="wrapper-simpler-2" stroke-opacity="0.36" stroke="#0076FF" stroke-width="3" fill-opacity="0.0553668477" fill="#0076FF" sketch:type="MSShapeGroup" transform="translate(200.000000, 200.000000) rotate(-25.000000) translate(-200.000000, -200.000000) " xlink:href="#path-4"></use>
                <path d="M180,-3 L220,-3 L210,77 L190,77 L180,-3 Z M284.077929,14.1696294 L318.718946,34.1696294 L270.058692,98.4516617 L252.738183,88.4516617 L284.077929,14.1696294 Z M365.627246,81.0779294 L385.627246,115.718946 L311.345213,147.058692 L301.345213,129.738183 L365.627246,81.0779294 Z M402.796875,179.796875 L402.796875,219.796875 L322.796875,209.796875 L322.796875,189.796875 L402.796875,179.796875 Z M385.627246,283.874804 L365.627246,318.515821 L301.345213,269.855566 L311.345213,252.535058 L385.627246,283.874804 Z M318.718946,365.424121 L284.07793,385.424121 L252.738184,311.142088 L270.058692,301.142088 L318.718946,365.424121 Z M220,402.59375 L180,402.59375 L190,322.59375 L210,322.59375 L220,402.59375 Z M115.922071,385.424121 L81.2810545,365.424121 L129.941309,301.142088 L147.261817,311.142088 L115.922071,385.424121 Z M34.3727545,318.515821 L14.3727545,283.874805 L88.6547868,252.535059 L98.6547868,269.855567 L34.3727545,318.515821 Z M-2.796875,219.796875 L-2.796875,179.796875 L77.203125,189.796875 L77.203125,209.796875 L-2.796875,219.796875 Z M14.3727543,115.718946 L34.3727543,81.0779296 L98.6547866,129.738184 L88.6547866,147.058692 L14.3727543,115.718946 Z M81.2810542,34.1696295 L115.92207,14.1696295 L147.261816,88.4516619 L129.941308,98.4516619 L81.2810542,34.1696295 Z" id="Path-1" fill="#FF4063" sketch:type="MSShapeGroup" mask="url(#mask-5)"></path>
            </g>
            <g id="pointy" transform="translate(9.000000, 0.803564)">
                <mask id="mask-7" sketch:name="wrapper bottom" fill="white">
                    <use xlink:href="#path-6"></use>
                </mask>
                <use id="wrapper-bottom" stroke-opacity="0.18" stroke="#0076FF" stroke-width="3" fill-opacity="0.0253668446" fill="#0076FF" sketch:type="MSShapeGroup" xlink:href="#path-6"></use>
                <g id="peppermint-spiral" mask="url(#mask-7)">
                    <g transform="translate(243.000000, 12.000000)">
                        <mask id="mask-10" sketch:name="Oval 3" fill="white">
                            <use xlink:href="#path-9"></use>
                        </mask>
                        <g id="Oval-3" stroke="none" fill-rule="evenodd">
                            <use fill="#FFFFFF" sketch:type="MSShapeGroup" xlink:href="#path-9"></use>
                            <use fill="url(#radialGradient-8)" xlink:href="#path-9"></use>
                        </g>
                        <path d="M200.786773,204.728022 C200.422026,204.961602 200.076511,205.175651 199.75605,205.369178 C205.598973,210.615573 213.804141,213.788396 220.544922,200.470703 C232.435547,176.978516 248.146484,144.305664 205.31543,112.19043 C162.484375,80.0751953 119.453125,9.4609375 119.453125,9.4609375 L172.716797,-7.50585938 C172.716797,-7.50585938 181.983398,76.4052734 213.208008,106.555664 C231.265702,123.992121 236.998443,145.25219 235.17627,164.620117 C234.312453,173.801649 231.045724,182.257741 227.539062,190.000488 C225.652064,194.167001 223.745767,198.037413 221.546387,201.535156 C213.043515,215.057541 204.695827,211.400789 199.092267,205.762294 C198.099804,206.33841 197.474609,206.648438 197.474609,206.648438 C197.474609,206.648438 198.064025,206.299977 198.998824,205.667829 L198.998824,205.667829 C198.551233,205.213232 198.121436,204.746398 197.710774,204.2752 L197.710774,204.2752 C197.278104,204.295113 196.871854,204.307728 196.497564,204.315096 C198.934486,211.780069 204.453958,218.630398 216.950492,210.467329 C238.994169,196.06781 268.936666,175.627759 247.901502,126.399623 C226.866338,77.1714869 224.907311,-5.49787927 224.907311,-5.49787927 L279.518402,6.44027955 C279.518402,6.44027955 245.587948,83.742753 257.554058,125.466062 C264.474252,149.595323 258.808916,170.873454 247.546904,186.735484 C242.208051,194.255016 235.150935,199.944842 228.242703,204.896927 C224.525258,207.561734 220.93915,209.96046 217.28556,211.889904 C203.160665,219.349197 197.75973,212.008513 195.726153,204.323654 C194.578597,204.326353 193.882148,204.282247 193.882148,204.282247 C193.882148,204.282247 194.566827,204.27518 195.692461,204.195123 C195.532134,203.577635 195.393336,202.958446 195.273292,202.345046 C194.888632,202.145956 194.530502,201.953756 194.202673,201.772991 C192.580623,209.456309 193.935461,218.148604 208.839312,217.327445 C235.129456,215.878935 271.280444,213.14858 277.677525,159.998181 C284.074607,106.847783 323.712723,34.2744983 323.712723,34.2744983 L365.038236,71.9187928 C365.038236,71.9187928 297.002364,121.899472 286.503665,164.015972 C280.432098,188.372622 264.886707,203.967356 247.202504,212.073271 C238.819156,215.91595 229.862601,217.314926 221.403854,218.149441 C216.852049,218.598509 212.547026,218.882813 208.418201,218.726966 C192.456037,218.124455 191.449032,209.066769 193.530332,201.394697 C192.53517,200.823257 191.954081,200.436836 191.954081,200.436836 C191.954081,200.436836 192.550564,200.773055 193.56542,201.266541 C193.735317,200.651617 193.924708,200.045985 194.127447,199.454744 C193.893866,199.089996 193.679817,198.744481 193.486291,198.424019 C188.239896,204.266942 185.067073,212.47211 198.384766,219.212891 C221.876953,231.103516 254.549805,246.814453 286.665039,203.983398 C318.780273,161.152344 389.394531,118.121094 389.394531,118.121094 L406.361328,171.384766 C406.361328,171.384766 322.450195,180.651367 292.299805,211.875977 C274.863348,229.933671 253.603278,235.666411 234.235352,233.844238 C225.05382,232.980421 216.597728,229.713693 208.85498,226.207031 C204.688467,224.320033 200.818056,222.413736 197.320312,220.214355 C183.797928,211.711484 187.45468,203.363796 193.093174,197.760236 C192.517058,196.767772 192.207031,196.142578 192.207031,196.142578 C192.207031,196.142578 192.555491,196.731994 193.18764,197.666793 C193.642237,197.219201 194.109071,196.789404 194.580269,196.378743 C194.560355,195.946073 194.547741,195.539823 194.540373,195.165532 L194.540373,195.165532 C187.0754,197.602455 180.22507,203.121927 188.38814,215.618461 C202.787659,237.662138 223.22771,267.604635 272.455846,246.56947 C321.683982,225.534306 404.353348,223.57528 404.353348,223.57528 L392.415189,278.186371 C392.415189,278.186371 315.112716,244.255917 273.389407,256.222026 C249.260145,263.14222 227.982015,257.476884 212.119985,246.214873 C204.600453,240.876019 198.910627,233.818904 193.958542,226.910672 C191.293735,223.193227 188.895009,219.607119 186.965564,215.953528 C179.506272,201.828633 186.846956,196.427699 194.531815,194.394121 C194.529116,193.246565 194.573222,192.550117 194.573222,192.550117 C194.573222,192.550117 194.580289,193.234796 194.660346,194.36043 C195.277834,194.200103 195.897023,194.061305 196.510423,193.941261 C196.709513,193.5566 196.901713,193.198471 197.082478,192.870641 C189.39916,191.248591 180.706865,192.60343 181.528023,207.507281 C182.976534,233.797424 185.706889,269.948413 238.857287,276.345494 C292.007686,282.742576 364.58097,322.380692 364.58097,322.380692 L326.936676,363.706205 C326.936676,363.706205 276.955997,295.670333 234.839497,285.171633 C210.482847,279.100066 194.888113,263.554676 186.782198,245.870473 C182.939519,237.487124 181.540543,228.53057 180.706027,220.071823 C180.25696,215.520018 179.972656,211.214994 180.128503,207.08617 C180.731014,191.124006 189.7887,190.117001 197.460772,192.198301 C198.032212,191.203139 198.418633,190.62205 198.418633,190.62205 C198.418633,190.62205 198.082414,191.218533 197.588928,192.233389 C198.203853,192.403286 198.809485,192.592677 199.400727,192.795416 C199.765474,192.561835 200.110989,192.347786 200.43145,192.15426 L200.43145,192.15426 C194.588527,186.907865 186.383359,183.735042 179.642578,197.052734 C167.751953,220.544922 152.041016,253.217773 194.87207,285.333008 C237.703125,317.448242 280.734375,388.0625 280.734375,388.0625 L227.470703,405.029297 C227.470703,405.029297 218.204102,321.118164 186.979492,290.967773 C168.921798,273.531317 163.189057,252.271247 165.011231,232.90332 C165.875047,223.721788 169.141776,215.265696 172.648438,207.522949 C174.535436,203.356436 176.441733,199.486025 178.641113,195.988281 C187.143985,182.465897 195.491673,186.122648 201.095233,191.761143 C202.087696,191.185027 202.712891,190.875 202.712891,190.875 C202.712891,190.875 202.123475,191.22346 201.188676,191.855608 C201.636267,192.310205 202.066064,192.777039 202.476725,193.248237 C202.909396,193.228324 203.315646,193.215709 203.689936,193.208341 C201.253014,185.743368 195.733542,178.893039 183.237008,187.056109 C161.193331,201.455628 131.250834,221.895678 152.285998,271.123814 C173.321163,320.351951 175.280189,403.021317 175.280189,403.021317 L120.669098,391.083158 C120.669098,391.083158 154.599552,313.780685 142.633442,272.057376 C135.713248,247.928114 141.378584,226.649983 152.640596,210.787953 C157.979449,203.268422 165.036565,197.578596 171.944797,192.626511 C175.662242,189.961704 179.24835,187.562978 182.90194,185.633533 C197.026835,178.174241 202.42777,185.514924 204.461348,193.199784 C205.608904,193.197084 206.305352,193.24119 206.305352,193.24119 C206.305352,193.24119 205.620673,193.248258 204.495039,193.328315 C204.655366,193.945803 204.794164,194.564992 204.914208,195.178392 C205.298869,195.377482 205.656998,195.569682 205.984827,195.750446 L205.984827,195.750446 C207.606877,188.067129 206.252039,179.374833 191.348188,180.195992 C165.058044,181.644503 128.907056,184.374857 122.509975,237.525256 C116.112893,290.675655 76.474777,363.248939 76.474777,363.248939 L35.149264,325.604645 C35.149264,325.604645 103.185136,275.623966 113.683835,233.507466 C119.755402,209.150815 135.300793,193.556082 152.984996,185.450166 C161.368344,181.607488 170.324899,180.208512 178.783646,179.373996 C183.335451,178.924928 187.640474,178.640624 191.769299,178.796472 C207.731463,179.398982 208.738468,188.456668 206.657168,196.128741 C207.65233,196.700181 208.233419,197.086602 208.233419,197.086602 C208.233419,197.086602 207.636936,196.750383 206.62208,196.256897 C206.452183,196.871821 206.262791,197.477453 206.060053,198.068695 C206.293634,198.433442 206.507683,198.778957 206.701209,199.099419 C211.947604,193.256496 215.120427,185.051328 201.802734,178.310547 C178.310547,166.419922 145.637695,150.708984 113.522461,193.540039 C81.4072266,236.371094 10.7929688,279.402344 10.7929688,279.402344 L-6.1738281,226.138672 C-6.1738281,226.138672 77.7373047,216.87207 107.887695,185.647461 C125.324152,167.589767 146.584222,161.857026 165.952148,163.679199 C175.13368,164.543016 183.589772,167.809745 191.33252,171.316406 C195.499033,173.203405 199.369444,175.109702 202.867188,177.309082 C216.389572,185.811954 212.73282,194.159642 207.094326,199.763202 C207.670441,200.755665 207.980469,201.380859 207.980469,201.380859 C207.980469,201.380859 207.632009,200.791444 206.99986,199.856645 C206.545263,200.304236 206.078429,200.734033 205.607231,201.144695 C205.627145,201.577365 205.639759,201.983614 205.647127,202.357905 C213.1121,199.920983 219.96243,194.401511 211.79936,181.904977 C197.399841,159.8613 176.95979,129.918803 127.731654,150.953967 C78.5035181,171.989131 -4.16584805,173.948158 -4.16584805,173.948158 L7.77231077,119.337067 C7.77231077,119.337067 85.0747842,153.267521 126.798093,141.301411 C150.927355,134.381217 172.205485,140.046553 188.067515,151.308565 C195.587047,156.647418 201.276873,163.704534 206.228958,170.612766 C208.893765,174.330211 211.292491,177.916319 213.221936,181.569909 C220.681228,195.694804 213.340544,201.095739 205.655685,203.129316 C205.658384,204.276872 205.614279,204.97332 205.614279,204.97332 C205.614279,204.97332 205.607211,204.288642 205.527154,203.163008 C204.909666,203.323335 204.290477,203.462133 203.677077,203.582177 C203.477987,203.966837 203.285787,204.324967 203.105022,204.652796 C210.78834,206.274846 219.480635,204.920008 218.659476,190.016157 C217.210966,163.726013 214.480611,127.575025 161.330213,121.177943 C108.179814,114.780862 35.6065295,75.1427458 35.6065295,75.1427458 L73.250824,33.8172328 C73.250824,33.8172328 123.231503,101.853105 165.348003,112.351804 C189.704653,118.423371 205.299387,133.968762 213.405302,151.652965 C217.247981,160.036313 218.646957,168.992868 219.481473,177.451614 C219.93054,182.00342 220.214844,186.308443 220.058997,190.437268 C219.456486,206.399432 210.3988,207.406436 202.726728,205.325137 C202.155288,206.320299 201.768867,206.901388 201.768867,206.901388 C201.768867,206.901388 202.105086,206.304905 202.598572,205.290049 C201.983647,205.120152 201.378015,204.93076 200.786773,204.728022 Z M201.492012,204.267263 C201.691421,204.134357 201.89498,203.996417 202.101889,203.85358 C202.516689,203.791368 202.937399,203.721282 203.361515,203.642395 C203.208839,203.988787 203.061016,204.313412 202.920988,204.613337 C202.439482,204.508515 201.962287,204.392284 201.492012,204.267263 Z M194.242132,201.588957 C194.346953,201.107451 194.463184,200.630258 194.588205,200.159983 L194.588205,200.159983 C194.721112,200.359393 194.859052,200.562953 195.00189,200.769864 C195.064102,201.184662 195.134187,201.60537 195.213074,202.029484 C194.866681,201.876808 194.542057,201.728984 194.242132,201.588957 Z M196.688138,203.046749 C196.949416,203.37487 197.220467,203.704172 197.500843,204.032024 L197.500843,204.032024 C197.12452,204.073 196.769476,204.107293 196.439719,204.135988 C196.289744,203.66658 196.151806,203.195202 196.024939,202.725421 C196.239744,202.831661 196.460983,202.938979 196.688138,203.046749 Z M196.234731,202.466123 C196.091319,202.278895 195.951222,202.09257 195.814526,201.907648 C195.849369,202.049913 195.885189,202.19252 195.922013,202.335366 C196.024772,202.378752 196.129032,202.422358 196.234731,202.466123 Z M200.483379,204.622391 C200.177962,204.846038 199.887631,205.053259 199.616401,205.242988 L199.616401,205.242988 C199.251815,204.911456 198.896668,204.5722 198.551908,204.228791 L198.551908,204.228791 C198.791054,204.213395 199.036311,204.195716 199.286919,204.17547 C199.677252,204.328992 200.07664,204.478651 200.483379,204.622391 Z M201.102751,204.161373 C201.191703,204.094074 201.281597,204.025585 201.372349,203.95593 C201.138498,203.986514 200.907088,204.014679 200.678593,204.040601 C200.81922,204.081558 200.96063,204.12184 201.102751,204.161373 Z M197.960798,203.625786 C198.062106,203.731569 198.16443,203.83716 198.267744,203.942457 L198.267744,203.942457 C198.378428,203.92865 198.490522,203.914284 198.603943,203.899337 C198.386131,203.808898 198.171641,203.717584 197.960798,203.625786 Z M197.264107,202.878508 C196.659687,202.212974 196.097715,201.549203 195.584812,200.912141 L195.584812,200.912141 C195.394136,200.033562 195.23934,199.177733 195.113684,198.36957 C195.387843,197.51336 195.6817,196.694793 195.97696,195.932076 L195.97696,195.932076 C196.642495,195.327655 197.306266,194.765683 197.943328,194.252781 C198.821907,194.062105 199.677736,193.907308 200.485898,193.781652 L200.485895,193.781652 C201.342107,194.055812 202.160675,194.349669 202.923393,194.644929 C203.527813,195.310464 204.089786,195.974235 204.602688,196.611296 L204.602687,196.611293 C204.793364,197.489874 204.94816,198.345704 205.073816,199.153867 C204.799657,200.010077 204.5058,200.828645 204.21054,201.591362 C203.545006,202.195782 202.881234,202.757754 202.244173,203.270657 C201.365593,203.461333 200.509764,203.616129 199.701602,203.741785 C198.845392,203.467625 198.026824,203.173769 197.264107,202.878508 Z M205.468019,202.41575 C205.439324,202.085993 205.405031,201.730948 205.364056,201.354626 C205.036203,201.635002 204.706901,201.906053 204.37878,202.167331 C204.27101,202.394486 204.163692,202.615725 204.057452,202.830529 C204.527234,202.703663 204.998612,202.565725 205.468019,202.41575 L205.468019,202.41575 Z M203.667398,202.933456 C203.710783,202.830697 203.754389,202.726437 203.798155,202.620738 C203.610926,202.76415 203.424601,202.904247 203.23968,203.040943 C203.381946,203.006099 203.524552,202.970279 203.667398,202.933456 L203.667398,202.933456 Z M204.957817,200.894671 C205.049616,200.683828 205.140929,200.469338 205.231368,200.251525 C205.246316,200.364946 205.260681,200.477041 205.274488,200.587725 C205.169191,200.691039 205.063601,200.793363 204.957817,200.894671 L204.957817,200.894671 Z M205.560822,200.303561 C205.545427,200.064415 205.527747,199.819158 205.507501,199.56855 C205.661024,199.178215 205.810682,198.778828 205.954422,198.372089 C206.178069,198.677507 206.38529,198.967838 206.575019,199.239068 C206.243488,199.603654 205.904232,199.958801 205.560822,200.303561 L205.560822,200.303561 Z M205.945368,195.934481 C205.645443,195.794453 205.320819,195.646629 204.974426,195.493954 C205.053313,195.918069 205.123399,196.338778 205.185611,196.753577 C205.328448,196.960487 205.466388,197.164047 205.599295,197.363456 C205.724316,196.893181 205.840547,196.415987 205.945368,195.934481 L205.945368,195.934481 Z M205.493404,197.752718 C205.426105,197.663766 205.357616,197.573872 205.287961,197.48312 C205.318545,197.716971 205.34671,197.948381 205.372632,198.176876 C205.413589,198.036249 205.453871,197.894838 205.493404,197.752718 L205.493404,197.752718 Z M204.372974,195.615789 C204.236278,195.430868 204.096181,195.244543 203.952769,195.057314 C204.058469,195.10108 204.162728,195.144686 204.265487,195.188071 C204.302311,195.330918 204.338131,195.473524 204.372974,195.615789 L204.372974,195.615789 Z M204.162561,194.798016 C203.947756,194.691776 203.726517,194.584459 203.499362,194.476689 C203.238084,194.148567 202.967033,193.819265 202.686657,193.491413 C203.06298,193.450438 203.418024,193.416145 203.747781,193.38745 C203.897756,193.856857 204.035694,194.328235 204.162561,194.798016 L204.162561,194.798016 Z M200.571099,192.28045 C200.299869,192.470179 200.009538,192.6774 199.704121,192.901047 C200.110859,193.044787 200.510246,193.194445 200.900579,193.347967 C201.151187,193.327721 201.396445,193.310041 201.635591,193.294646 C201.290832,192.951237 200.935685,192.611981 200.571099,192.28045 L200.571099,192.28045 Z M201.919756,193.580981 C201.809072,193.594787 201.696977,193.609153 201.583556,193.624101 C201.801369,193.71454 202.015859,193.805853 202.226702,193.897652 C202.125394,193.791868 202.02307,193.686277 201.919756,193.580981 L201.919756,193.580981 Z M199.508907,193.482837 C199.280412,193.508759 199.049002,193.536924 198.815151,193.567508 C198.905903,193.497852 198.995797,193.429364 199.084749,193.362065 C199.22687,193.401598 199.36828,193.44188 199.508907,193.482837 L199.508907,193.482837 Z M198.695488,193.256174 C198.49608,193.38908 198.292521,193.52702 198.085611,193.669857 C197.670809,193.73207 197.250101,193.802156 196.825985,193.881043 C196.978661,193.53465 197.126484,193.210026 197.266512,192.910101 C197.748018,193.014922 198.225213,193.131153 198.695488,193.256174 L198.695488,193.256174 Z M194.719481,195.107688 C194.748176,195.437444 194.782469,195.792489 194.823444,196.168812 C195.151297,195.888435 195.480599,195.617384 195.80872,195.356107 C195.91649,195.128952 196.023808,194.907713 196.130048,194.692908 C195.660266,194.819774 195.188889,194.957713 194.719481,195.107688 L194.719481,195.107688 Z M196.520102,194.589982 C196.476717,194.692741 196.433111,194.797 196.389345,194.9027 C196.576574,194.759288 196.762899,194.619191 196.94782,194.482494 C196.805555,194.517338 196.662949,194.553158 196.520102,194.589982 L196.520102,194.589982 Z M195.229683,196.628767 C195.137884,196.83961 195.046571,197.054099 194.956132,197.271912 C194.941185,197.158491 194.926819,197.046397 194.913012,196.935712 C195.018309,196.832399 195.123899,196.730074 195.229683,196.628767 L195.229683,196.628767 Z M194.626678,197.219877 C194.642074,197.459023 194.659753,197.70428 194.679999,197.954887 C194.526476,198.345223 194.376818,198.74461 194.233078,199.151348 C194.009431,198.845931 193.80221,198.5556 193.612481,198.28437 C193.944012,197.919784 194.283269,197.564637 194.626678,197.219877 L194.626678,197.219877 Z M194.694096,199.77072 C194.761395,199.859672 194.829884,199.949566 194.899539,200.040317 C194.868955,199.806467 194.84079,199.575056 194.814868,199.346562 C194.773911,199.487188 194.733629,199.628599 194.694096,199.77072 L194.694096,199.77072 Z" id="Path-13" stroke="none" fill="url(#radialGradient-11)" fill-rule="evenodd" sketch:type="MSShapeGroup" mask="url(#mask-10)"></path>
                    </g>
                </g>
                <g id="wrapper-creases" mask="url(#mask-7)">
                    <g transform="translate(38.000000, 67.000000)">
                        <g id="Path-27">
                            <use fill="url(#linearGradient-12)" fill-rule="evenodd" sketch:type="MSShapeGroup" xlink:href="#path-13"></use>
                            <use fill="none" xlink:href="#path-13"></use>
                        </g>
                        <g id="Path-30">
                            <use fill="url(#linearGradient-12)" fill-rule="evenodd" sketch:type="MSShapeGroup" transform="translate(130.166142, 135.407769) rotate(-11.000000) translate(-130.166142, -135.407769) " xlink:href="#path-14"></use>
                            <use fill="none" xlink:href="#path-14"></use>
                        </g>
                        <g id="Path-28">
                            <use fill="url(#linearGradient-12)" fill-rule="evenodd" sketch:type="MSShapeGroup" xlink:href="#path-15"></use>
                            <use fill="none" xlink:href="#path-15"></use>
                        </g>
                        <g id="Path-29">
                            <use fill="url(#linearGradient-12)" fill-rule="evenodd" sketch:type="MSShapeGroup" transform="translate(126.459365, 174.869414) rotate(9.000000) translate(-126.459365, -174.869414) " xlink:href="#path-16"></use>
                            <use fill="none" xlink:href="#path-16"></use>
                        </g>
                        <g id="Path-31">
                            <use fill="url(#linearGradient-12)" fill-rule="evenodd" sketch:type="MSShapeGroup" xlink:href="#path-17"></use>
                            <use fill="none" xlink:href="#path-17"></use>
                        </g>
                        <g id="Path-32">
                            <use fill="url(#linearGradient-12)" fill-rule="evenodd" sketch:type="MSShapeGroup" xlink:href="#path-18"></use>
                            <use fill="none" xlink:href="#path-18"></use>
                        </g>
                        <g id="Path-33">
                            <use fill="url(#linearGradient-12)" fill-rule="evenodd" sketch:type="MSShapeGroup" xlink:href="#path-19"></use>
                            <use fill="none" xlink:href="#path-19"></use>
                        </g>
                        <g id="Path-34">
                            <use fill="url(#linearGradient-12)" fill-rule="evenodd" sketch:type="MSShapeGroup" xlink:href="#path-20"></use>
                            <use fill="none" xlink:href="#path-20"></use>
                        </g>
                        <g id="Path-35">
                            <use fill="url(#linearGradient-12)" fill-rule="evenodd" sketch:type="MSShapeGroup" xlink:href="#path-21"></use>
                            <use fill="none" xlink:href="#path-21"></use>
                        </g>
                        <g id="Path-36">
                            <use fill="url(#linearGradient-12)" fill-rule="evenodd" sketch:type="MSShapeGroup" xlink:href="#path-22"></use>
                            <use fill="none" xlink:href="#path-22"></use>
                        </g>
                        <g id="Path-37">
                            <use fill="url(#linearGradient-12)" fill-rule="evenodd" sketch:type="MSShapeGroup" xlink:href="#path-23"></use>
                            <use fill="none" xlink:href="#path-23"></use>
                        </g>
                    </g>
                </g>
                <mask id="mask-26" sketch:name="wrapper top" fill="white">
                    <use xlink:href="#path-25"></use>
                </mask>
                <g id="wrapper-top">
                    <use stroke-opacity="0.18" stroke="#0076FF" stroke-width="3" fill-opacity="0.0253668446" fill="#0076FF" sketch:type="MSShapeGroup" xlink:href="#path-25"></use>
                    <use stroke="none" fill="url(#linearGradient-24)" xlink:href="#path-25"></use>
                </g>
            </g>
            <g id="converge" transform="translate(0.843230, 504.803564)">
                <mask id="mask-28" sketch:name="wrapper simpler" fill="white">
                    <use xlink:href="#path-27"></use>
                </mask>
                <use id="wrapper-simpler" stroke-opacity="0.36" stroke="#0076FF" stroke-width="3" fill-opacity="0.0553668477" fill="#0076FF" sketch:type="MSShapeGroup" xlink:href="#path-27"></use>
                <g id="peppermint-spiral" mask="url(#mask-28)">
                    <g transform="translate(261.000000, 12.000000)">
                        <mask id="mask-30" sketch:name="Oval 3" fill="white">
                            <use xlink:href="#path-29"></use>
                        </mask>
                        <g id="Oval-3" stroke="none" fill-rule="evenodd">
                            <use fill="#FFFFFF" sketch:type="MSShapeGroup" xlink:href="#path-29"></use>
                            <use fill="url(#radialGradient-8)" xlink:href="#path-29"></use>
                        </g>
                        <path d="M200.132319,199.911554 C200.099398,199.930201 200.066499,199.948799 200.033623,199.967345 L200.033623,199.967345 C199.997158,199.957252 199.960745,199.947139 199.924384,199.937007 C199.905736,199.904086 199.887139,199.871187 199.868592,199.838311 L199.868592,199.838311 C199.878685,199.801846 199.888798,199.765433 199.898931,199.729072 C199.931852,199.710424 199.964751,199.691827 199.997627,199.67328 C200.034092,199.683373 200.070505,199.693486 200.106866,199.703618 C200.125514,199.736539 200.144111,199.769438 200.162658,199.802314 C200.152565,199.838779 200.142452,199.875192 200.132319,199.911554 Z M212.16056,191.329428 C214.41434,189.370925 216.712407,187.164148 219.033203,184.67773 C240.791014,161.367191 234.818361,102.234374 212.269532,64.734373 C189.720703,27.234372 176.708985,-31.8710939 176.708985,-31.8710939 L284.640623,-15.9804697 C284.640623,-15.9804697 268.29045,30.3572643 265.503904,88.1406257 C262.717359,145.923987 259.509766,159.257811 240.101559,185.095703 C233.482826,193.907135 224.099677,199.223611 214.607353,202.404116 C217.585887,202.612909 220.771293,202.67746 224.170507,202.560348 C256.038642,201.462403 293.628554,155.425884 304.200629,112.964949 C314.772704,70.5040143 347.365906,19.5094644 347.365906,19.5094644 L412.448731,107.065026 C412.448731,107.065026 368.121687,128.269433 325.292295,167.158055 C282.462903,206.046676 270.766355,213.207003 238.772532,217.753477 C227.861758,219.303949 217.467553,216.428377 208.50651,211.965247 L208.50651,211.965247 C210.465013,214.219028 212.67179,216.517094 215.158208,218.837891 C238.468747,240.595701 297.601563,234.623048 335.101564,212.074219 C372.601565,189.52539 431.707031,176.513672 431.707031,176.513672 L415.816407,284.44531 C415.816407,284.44531 369.478673,268.095137 311.695312,265.308592 C253.91195,262.522046 240.578126,259.314453 214.740235,239.906246 C205.928803,233.287514 200.612326,223.904364 197.431821,214.41204 C197.223028,217.390575 197.158477,220.57598 197.27559,223.975194 C198.373534,255.843329 244.410054,293.433242 286.870988,304.005317 C329.331923,314.577392 380.326473,347.170594 380.326473,347.170594 L292.770912,412.253419 C292.770912,412.253419 271.566504,367.926375 232.677883,325.096983 C193.789261,282.267591 186.628934,270.571043 182.082461,238.57722 C180.531988,227.666445 183.40756,217.272241 187.87069,208.311197 C185.616909,210.2697 183.318843,212.476477 180.998047,214.962895 C159.240236,238.273434 165.212889,297.406251 187.761718,334.906252 C210.310547,372.406253 223.322266,431.511719 223.322266,431.511719 L115.390627,415.621095 C115.390627,415.621095 131.7408,369.283361 134.527346,311.499999 C137.313891,253.716638 140.521484,240.382814 159.929691,214.544922 C166.548424,205.73349 175.931573,200.417014 185.423897,197.236509 L185.423897,197.236509 C182.445363,197.027716 179.259957,196.963165 175.860743,197.080277 C143.992608,198.178222 106.402696,244.214741 95.8306208,286.675676 C85.2585456,329.136611 52.665344,380.131161 52.665344,380.131161 L-12.4174813,292.575599 C-12.4174813,292.575599 31.909563,271.371192 74.7389549,232.48257 C117.568347,193.593949 129.264895,186.433622 161.258718,181.887148 C172.169492,180.336676 182.563697,183.212248 191.52474,187.675378 C189.566237,185.421597 187.35946,183.123531 184.873042,180.802734 C161.562503,159.044924 102.429687,165.017577 64.9296855,187.566406 C27.4296845,210.115235 -31.6757814,223.126953 -31.6757814,223.126953 L-15.7851572,115.195315 C-15.7851572,115.195315 30.5525768,131.545488 88.3359382,134.332033 C146.1193,137.118579 159.453124,140.326172 185.291015,159.734379 C194.102447,166.353112 199.418924,175.736261 202.599429,185.228585 C202.808221,182.25005 202.872773,179.064645 202.75566,175.665431 C201.657716,143.797296 155.621196,106.207383 113.160262,95.6353083 C70.6993267,85.0632331 19.7047768,52.4700315 19.7047768,52.4700315 L107.260338,-12.6127938 C107.260338,-12.6127938 128.464746,31.7142505 167.353367,74.5436425 C206.241989,117.373034 213.402315,129.069583 217.948789,161.063405 C219.499262,171.97418 216.62369,182.368385 212.16056,191.329428 Z" id="Path-13" stroke="none" fill="#FF3F63" fill-rule="evenodd" sketch:type="MSShapeGroup" mask="url(#mask-30)"></path>
                    </g>
                </g>
            </g>
            <g id="converge-3" transform="translate(1676.000000, 1008.803564) rotate(-25.000000) translate(-1676.000000, -1008.803564) translate(1214.000000, 796.303564)">
                <mask id="mask-32" sketch:name="wrapper simpler" fill="white">
                    <use xlink:href="#path-31"></use>
                </mask>
                <use id="wrapper-simpler" stroke-opacity="0.36" stroke="#0076FF" stroke-width="3" fill-opacity="0.0553668477" fill="#0076FF" sketch:type="MSShapeGroup" xlink:href="#path-31"></use>
                <g id="peppermint-spiral" mask="url(#mask-32)">
                    <g transform="translate(261.000000, 12.000000)">
                        <mask id="mask-34" sketch:name="Oval 3" fill="white">
                            <use xlink:href="#path-33"></use>
                        </mask>
                        <g id="Oval-3" stroke="none" fill-rule="evenodd">
                            <use fill="#FFFFFF" sketch:type="MSShapeGroup" xlink:href="#path-33"></use>
                            <use fill="url(#radialGradient-8)" xlink:href="#path-33"></use>
                        </g>
                        <path d="M200.132319,199.911554 C200.099398,199.930201 200.066499,199.948799 200.033623,199.967345 L200.033623,199.967345 C199.997158,199.957252 199.960745,199.947139 199.924384,199.937007 C199.905736,199.904086 199.887139,199.871187 199.868592,199.838311 L199.868592,199.838311 C199.878685,199.801846 199.888798,199.765433 199.898931,199.729072 C199.931852,199.710424 199.964751,199.691827 199.997627,199.67328 C200.034092,199.683373 200.070505,199.693486 200.106866,199.703618 C200.125514,199.736539 200.144111,199.769438 200.162658,199.802314 C200.152565,199.838779 200.142452,199.875192 200.132319,199.911554 Z M212.16056,191.329428 C214.41434,189.370925 216.712407,187.164148 219.033203,184.67773 C240.791014,161.367191 234.818361,102.234374 212.269532,64.734373 C189.720703,27.234372 176.708985,-31.8710939 176.708985,-31.8710939 L284.640623,-15.9804697 C284.640623,-15.9804697 268.29045,30.3572643 265.503904,88.1406257 C262.717359,145.923987 259.509766,159.257811 240.101559,185.095703 C233.482826,193.907135 224.099677,199.223611 214.607353,202.404116 C217.585887,202.612909 220.771293,202.67746 224.170507,202.560348 C256.038642,201.462403 293.628554,155.425884 304.200629,112.964949 C314.772704,70.5040143 347.365906,19.5094644 347.365906,19.5094644 L412.448731,107.065026 C412.448731,107.065026 368.121687,128.269433 325.292295,167.158055 C282.462903,206.046676 270.766355,213.207003 238.772532,217.753477 C227.861758,219.303949 217.467553,216.428377 208.50651,211.965247 L208.50651,211.965247 C210.465013,214.219028 212.67179,216.517094 215.158208,218.837891 C238.468747,240.595701 297.601563,234.623048 335.101564,212.074219 C372.601565,189.52539 431.707031,176.513672 431.707031,176.513672 L415.816407,284.44531 C415.816407,284.44531 369.478673,268.095137 311.695312,265.308592 C253.91195,262.522046 240.578126,259.314453 214.740235,239.906246 C205.928803,233.287514 200.612326,223.904364 197.431821,214.41204 C197.223028,217.390575 197.158477,220.57598 197.27559,223.975194 C198.373534,255.843329 244.410054,293.433242 286.870988,304.005317 C329.331923,314.577392 380.326473,347.170594 380.326473,347.170594 L292.770912,412.253419 C292.770912,412.253419 271.566504,367.926375 232.677883,325.096983 C193.789261,282.267591 186.628934,270.571043 182.082461,238.57722 C180.531988,227.666445 183.40756,217.272241 187.87069,208.311197 C185.616909,210.2697 183.318843,212.476477 180.998047,214.962895 C159.240236,238.273434 165.212889,297.406251 187.761718,334.906252 C210.310547,372.406253 223.322266,431.511719 223.322266,431.511719 L115.390627,415.621095 C115.390627,415.621095 131.7408,369.283361 134.527346,311.499999 C137.313891,253.716638 140.521484,240.382814 159.929691,214.544922 C166.548424,205.73349 175.931573,200.417014 185.423897,197.236509 L185.423897,197.236509 C182.445363,197.027716 179.259957,196.963165 175.860743,197.080277 C143.992608,198.178222 106.402696,244.214741 95.8306208,286.675676 C85.2585456,329.136611 52.665344,380.131161 52.665344,380.131161 L-12.4174813,292.575599 C-12.4174813,292.575599 31.909563,271.371192 74.7389549,232.48257 C117.568347,193.593949 129.264895,186.433622 161.258718,181.887148 C172.169492,180.336676 182.563697,183.212248 191.52474,187.675378 C189.566237,185.421597 187.35946,183.123531 184.873042,180.802734 C161.562503,159.044924 102.429687,165.017577 64.9296855,187.566406 C27.4296845,210.115235 -31.6757814,223.126953 -31.6757814,223.126953 L-15.7851572,115.195315 C-15.7851572,115.195315 30.5525768,131.545488 88.3359382,134.332033 C146.1193,137.118579 159.453124,140.326172 185.291015,159.734379 C194.102447,166.353112 199.418924,175.736261 202.599429,185.228585 C202.808221,182.25005 202.872773,179.064645 202.75566,175.665431 C201.657716,143.797296 155.621196,106.207383 113.160262,95.6353083 C70.6993267,85.0632331 19.7047768,52.4700315 19.7047768,52.4700315 L107.260338,-12.6127938 C107.260338,-12.6127938 128.464746,31.7142505 167.353367,74.5436425 C206.241989,117.373034 213.402315,129.069583 217.948789,161.063405 C219.499262,171.97418 216.62369,182.368385 212.16056,191.329428 Z" id="Path-13" stroke="none" fill="#FF4063" fill-rule="evenodd" sketch:type="MSShapeGroup" mask="url(#mask-34)"></path>
                    </g>
                </g>
            </g>
            <g id="converge-2" transform="translate(0.843230, 1008.803564)">
                <mask id="mask-36" sketch:name="wrapper" fill="white">
                    <use xlink:href="#path-35"></use>
                </mask>
                <use id="wrapper" stroke-opacity="0.36" stroke="#0076FF" stroke-width="3" fill-opacity="0.0553668477" fill="#0076FF" sketch:type="MSShapeGroup" xlink:href="#path-35"></use>
                <g id="peppermint-spiral" mask="url(#mask-36)">
                    <g transform="translate(261.000000, 12.000000)">
                        <mask id="mask-38" sketch:name="Oval 3" fill="white">
                            <use xlink:href="#path-37"></use>
                        </mask>
                        <g id="Oval-3" stroke="none" fill-rule="evenodd">
                            <use fill="#FFFFFF" sketch:type="MSShapeGroup" xlink:href="#path-37"></use>
                            <use fill="url(#radialGradient-8)" xlink:href="#path-37"></use>
                        </g>
                        <path d="M200.132319,199.911554 C200.099398,199.930201 200.066499,199.948799 200.033623,199.967345 L200.033623,199.967345 C199.997158,199.957252 199.960745,199.947139 199.924384,199.937007 C199.905736,199.904086 199.887139,199.871187 199.868592,199.838311 L199.868592,199.838311 C199.878685,199.801846 199.888798,199.765433 199.898931,199.729072 C199.931852,199.710424 199.964751,199.691827 199.997627,199.67328 C200.034092,199.683373 200.070505,199.693486 200.106866,199.703618 C200.125514,199.736539 200.144111,199.769438 200.162658,199.802314 C200.152565,199.838779 200.142452,199.875192 200.132319,199.911554 Z M212.16056,191.329428 C214.41434,189.370925 216.712407,187.164148 219.033203,184.67773 C240.791014,161.367191 234.818361,102.234374 212.269532,64.734373 C189.720703,27.234372 176.708985,-31.8710939 176.708985,-31.8710939 L284.640623,-15.9804697 C284.640623,-15.9804697 268.29045,30.3572643 265.503904,88.1406257 C262.717359,145.923987 259.509766,159.257811 240.101559,185.095703 C233.482826,193.907135 224.099677,199.223611 214.607353,202.404116 C217.585887,202.612909 220.771293,202.67746 224.170507,202.560348 C256.038642,201.462403 293.628554,155.425884 304.200629,112.964949 C314.772704,70.5040143 347.365906,19.5094644 347.365906,19.5094644 L412.448731,107.065026 C412.448731,107.065026 368.121687,128.269433 325.292295,167.158055 C282.462903,206.046676 270.766355,213.207003 238.772532,217.753477 C227.861758,219.303949 217.467553,216.428377 208.50651,211.965247 L208.50651,211.965247 C210.465013,214.219028 212.67179,216.517094 215.158208,218.837891 C238.468747,240.595701 297.601563,234.623048 335.101564,212.074219 C372.601565,189.52539 431.707031,176.513672 431.707031,176.513672 L415.816407,284.44531 C415.816407,284.44531 369.478673,268.095137 311.695312,265.308592 C253.91195,262.522046 240.578126,259.314453 214.740235,239.906246 C205.928803,233.287514 200.612326,223.904364 197.431821,214.41204 C197.223028,217.390575 197.158477,220.57598 197.27559,223.975194 C198.373534,255.843329 244.410054,293.433242 286.870988,304.005317 C329.331923,314.577392 380.326473,347.170594 380.326473,347.170594 L292.770912,412.253419 C292.770912,412.253419 271.566504,367.926375 232.677883,325.096983 C193.789261,282.267591 186.628934,270.571043 182.082461,238.57722 C180.531988,227.666445 183.40756,217.272241 187.87069,208.311197 C185.616909,210.2697 183.318843,212.476477 180.998047,214.962895 C159.240236,238.273434 165.212889,297.406251 187.761718,334.906252 C210.310547,372.406253 223.322266,431.511719 223.322266,431.511719 L115.390627,415.621095 C115.390627,415.621095 131.7408,369.283361 134.527346,311.499999 C137.313891,253.716638 140.521484,240.382814 159.929691,214.544922 C166.548424,205.73349 175.931573,200.417014 185.423897,197.236509 L185.423897,197.236509 C182.445363,197.027716 179.259957,196.963165 175.860743,197.080277 C143.992608,198.178222 106.402696,244.214741 95.8306208,286.675676 C85.2585456,329.136611 52.665344,380.131161 52.665344,380.131161 L-12.4174813,292.575599 C-12.4174813,292.575599 31.909563,271.371192 74.7389549,232.48257 C117.568347,193.593949 129.264895,186.433622 161.258718,181.887148 C172.169492,180.336676 182.563697,183.212248 191.52474,187.675378 C189.566237,185.421597 187.35946,183.123531 184.873042,180.802734 C161.562503,159.044924 102.429687,165.017577 64.9296855,187.566406 C27.4296845,210.115235 -31.6757814,223.126953 -31.6757814,223.126953 L-15.7851572,115.195315 C-15.7851572,115.195315 30.5525768,131.545488 88.3359382,134.332033 C146.1193,137.118579 159.453124,140.326172 185.291015,159.734379 C194.102447,166.353112 199.418924,175.736261 202.599429,185.228585 C202.808221,182.25005 202.872773,179.064645 202.75566,175.665431 C201.657716,143.797296 155.621196,106.207383 113.160262,95.6353083 C70.6993267,85.0632331 19.7047768,52.4700315 19.7047768,52.4700315 L107.260338,-12.6127938 C107.260338,-12.6127938 128.464746,31.7142505 167.353367,74.5436425 C206.241989,117.373034 213.402315,129.069583 217.948789,161.063405 C219.499262,171.97418 216.62369,182.368385 212.16056,191.329428 Z" id="Path-13" stroke="none" fill="#FF3F63" fill-rule="evenodd" sketch:type="MSShapeGroup" mask="url(#mask-38)"></path>
                    </g>
                </g>
            </g>
        </g>
    </g>
</svg>