<?xml version="1.0" encoding="UTF-8" standalone="no"?>
<svg width="1032px" height="1013px" viewBox="0 0 1032 1013" version="1.1" xmlns="http://www.w3.org/2000/svg" xmlns:xlink="http://www.w3.org/1999/xlink" xmlns:sketch="http://www.bohemiancoding.com/sketch/ns">
    <!-- Generator: Sketch 3.2.2 (9983) - http://www.bohemiancoding.com/sketch -->
    <title>sublime</title>
    <desc>Created with Sketch.</desc>
    <defs>
        <radialGradient cx="40.2976014%" cy="44.6024482%" fx="40.2976014%" fy="44.6024482%" r="43.506588%" id="radialGradient-1">
            <stop stop-color="#FFFFFF" stop-opacity="0.35" offset="0%"></stop>
            <stop stop-color="#FFFFFF" stop-opacity="0" offset="100%"></stop>
        </radialGradient>
        <ellipse id="path-2" cx="414.930724" cy="617.673755" rx="180.92022" ry="179.696013"></ellipse>
        <filter x="-50%" y="-50%" width="200%" height="200%" filterUnits="objectBoundingBox" id="filter-3">
            <feOffset dx="2" dy="4" in="SourceAlpha" result="shadowOffsetOuter1"></feOffset>
            <feGaussianBlur stdDeviation="15" in="shadowOffsetOuter1" result="shadowBlurOuter1"></feGaussianBlur>
            <feColorMatrix values="0 0 0 0 0   0 0 0 0 0   0 0 0 0 0  0 0 0 0.144545403 0" in="shadowBlurOuter1" type="matrix" result="shadowMatrixOuter1"></feColorMatrix>
            <feMerge>
                <feMergeNode in="shadowMatrixOuter1"></feMergeNode>
                <feMergeNode in="SourceGraphic"></feMergeNode>
            </feMerge>
        </filter>
        <radialGradient cx="32.4918017%" cy="33.2183838%" fx="32.4918017%" fy="33.2183838%" r="24.252003%" id="radialGradient-4">
            <stop stop-color="#FFFFFF" stop-opacity="0.8" offset="0%"></stop>
            <stop stop-color="#FFFFFF" stop-opacity="0.02" offset="100%"></stop>
        </radialGradient>
        <path id="path-5" d="M126.988997,289.818463 C125.196476,267.12815 104.717368,250.577449 81.2476288,252.851436 C57.77789,255.125423 27.4080426,289.818462 21.6881741,316.798108 C15.9683056,343.777755 81.2476283,334.800346 100.87286,330.496488 C120.498093,326.19263 128.781518,312.508775 126.988997,289.818463 Z"></path>
        <path id="path-6" d="M167.391592,257.108585 C166.147428,241.359558 152.139853,229.851923 136.104797,231.405562 C120.069742,232.959201 103.708485,259.177205 104.952648,274.926231 C106.196812,290.675258 124.575257,289.991472 140.610313,288.437833 C156.645369,286.884194 168.635755,272.857612 167.391592,257.108585 Z"></path>
        <path id="path-7" d="M110.719069,189.671725 C109.943634,179.856008 102.188816,172.589256 93.3981995,173.44098 C84.6075831,174.292705 78.1099954,182.940375 78.8854313,192.756092 C79.6608671,202.571809 86.157047,216.002096 93.3981996,212.982705 C100.639352,209.963315 111.494505,199.487442 110.719069,189.671725 Z"></path>
        <path id="path-8" d="M164.762399,182.16023 C174.805078,179.315005 175.587011,165.28975 174.645096,153.366688 C173.619299,140.381818 163.486668,130.756682 152.013231,131.868345 C140.539795,132.980008 132.070309,144.407506 133.096106,157.392376 C134.121903,170.377246 154.719719,185.005455 164.762399,182.16023 Z"></path>
        <path id="path-9" d="M86.0509733,463.969262 C73.4403363,444.927766 67.6488155,442.485938 42.4468012,444.927766 C17.244787,447.369593 -1.68045028,468.400265 0.176100665,491.901085 C2.03265161,515.401906 10.8466472,547.79948 52.9883392,536.259528 C95.1300312,524.719576 98.6616103,483.010757 86.0509733,463.969262 Z"></path>
        <path id="path-10" d="M163.368872,351.367067 C162.594788,341.568464 155.088452,334.291617 146.603003,335.113773 C138.117553,335.93593 122.690508,339.893638 121.916424,357.830389 C121.14234,375.76714 140.920758,371.41981 149.406208,370.597654 C157.891658,369.775497 164.142955,361.16567 163.368872,351.367067 Z"></path>
        <path id="path-11" d="M164.069221,382.039267 C157.439823,363.990585 149.513763,365.147298 125.29461,367.963446 C101.075456,370.779593 86.0524558,394.02471 95.0224352,416.646771 C103.992415,439.268831 132.6804,445.483181 150.836771,428.723545 C168.993141,411.963909 170.698619,400.087948 164.069221,382.039267 Z"></path>
        <path id="path-12" d="M122.195645,119.774828 C121.673921,113.170683 116.719982,108.255975 111.130711,108.79752 C105.54144,109.339065 101.433381,115.131792 101.955105,121.735937 C102.476828,128.340082 107.430768,133.25479 113.020039,132.713244 C118.60931,132.171699 122.717368,126.378972 122.195645,119.774828 Z"></path>
        <path id="path-13" d="M79.3705918,247.25337 C78.8488682,240.649225 73.8949284,235.734517 68.3056576,236.276062 C62.7163867,236.817608 58.6083279,242.610334 59.1300515,249.214479 C59.651775,255.818624 64.6057148,260.733332 70.1949857,260.191787 C75.7842565,259.650241 79.8923153,253.857515 79.3705918,247.25337 Z"></path>
        <path id="path-14" d="M136.166904,305.923511 C135.977858,303.547727 134.182796,301.779703 132.157522,301.97452 C130.132248,302.169336 128.643692,304.253219 128.832738,306.629003 C129.021785,309.004786 130.816847,310.77281 132.842121,310.577994 C134.867395,310.383177 136.355951,308.299294 136.166904,305.923511 Z"></path>
        <path id="path-15" d="M61.8675927,357.3149 C61.678546,354.939116 59.8834844,353.171093 57.8582105,353.365909 C55.8329365,353.560725 54.3443802,355.644608 54.5334269,358.020392 C54.7224736,360.396176 56.5175351,362.164199 58.5428091,361.969383 C60.568083,361.774566 62.0566393,359.690683 61.8675927,357.3149 Z"></path>
        <path id="path-16" d="M71.7495144,407.602119 C71.5604677,405.226335 69.7654062,403.458312 67.7401322,403.653128 C65.7148583,403.847944 64.226302,405.931827 64.4153486,408.307611 C64.6043953,410.683395 66.3994569,412.451418 68.4247308,412.256602 C70.4500048,412.061786 71.9385611,409.977903 71.7495144,407.602119 Z"></path>
        <path id="path-17" d="M174.972071,378.550678 C174.783024,376.174894 172.987963,374.406871 170.962689,374.601687 C168.937415,374.796503 167.448858,376.880386 167.637905,379.25617 C167.826952,381.631954 169.622013,383.399977 171.647287,383.205161 C173.672561,383.010344 175.161118,380.926461 174.972071,378.550678 Z"></path>
        <path id="path-18" d="M169.638239,305.430882 C169.116516,299.737193 164.162576,295.500032 158.573305,295.96692 C152.984034,296.433807 148.875975,301.427941 149.397699,307.121631 C149.919422,312.81532 154.873362,317.052481 160.462633,316.585594 C166.051904,316.118706 170.159963,311.124572 169.638239,305.430882 Z"></path>
        <path id="path-19" d="M97.4090383,356.822272 C96.9960789,351.128582 93.0748915,346.891421 88.6508212,347.358309 C84.2267508,347.825196 80.9751028,352.81933 81.3880622,358.51302 C81.8010215,364.20671 85.7222089,368.44387 90.1462793,367.976983 C94.5703497,367.510095 97.8219976,362.515961 97.4090383,356.822272 Z"></path>
        <path id="path-20" d="M84.1151489,152.366669 C90.3200746,151.765473 94.8740403,145.251223 94.2867162,137.816684 C93.699392,130.382145 88.1931857,124.842627 81.98826,125.443823 C75.7833344,126.04502 71.2293686,132.55927 71.8166927,139.993808 C72.4040169,147.428347 77.9102233,152.967865 84.1151489,152.366669 L84.1151489,152.366669 Z"></path>
        <path id="path-21" d="M94.3159189,79.8824275 C98.7434039,79.4534477 102.028511,75.2565696 101.653412,70.5084378 C101.278312,65.7603061 97.3850481,62.2589416 92.9575631,62.6879213 C88.5300781,63.1169011 85.2449707,67.3137792 85.6200703,72.061911 C85.9951699,76.8100428 89.8884339,80.3114073 94.3159189,79.8824275 L94.3159189,79.8824275 Z"></path>
        <path id="path-22" d="M144.103542,79.9002099 C147.258564,79.68572 149.599528,77.5872809 149.332232,75.213215 C149.064937,72.8391492 146.290601,71.0884669 143.135579,71.3029568 C139.980558,71.5174467 137.639594,73.6158857 137.906889,75.9899516 C138.174185,78.3640175 140.948521,80.1146998 144.103542,79.9002099 L144.103542,79.9002099 Z"></path>
        <path id="path-23" d="M120.91443,33.3375616 C122.941267,33.1230718 124.44514,31.0246327 124.273425,28.6505668 C124.10171,26.2765009 122.319432,24.5258187 120.292594,24.7403086 C118.265757,24.9547985 116.761884,27.0532375 116.933599,29.4273034 C117.105314,31.8013693 118.887593,33.5520515 120.91443,33.3375616 L120.91443,33.3375616 Z"></path>
        <path id="path-24" d="M134.513744,66.9509831 C136.540581,66.7364932 138.044455,64.6380542 137.87274,62.2639883 C137.701025,59.8899224 135.918746,58.1392402 133.891909,58.35373 C131.865072,58.5682199 130.361198,60.666659 130.532913,63.0407249 C130.704628,65.4147908 132.486907,67.165473 134.513744,66.9509831 L134.513744,66.9509831 Z"></path>
        <path id="path-25" d="M65.8779686,181.988172 C67.9048057,181.773683 69.4086793,179.675244 69.2369642,177.301178 C69.0652492,174.927112 67.2829705,173.17643 65.2561334,173.390919 C63.2292963,173.605409 61.7254227,175.703848 61.8971378,178.077914 C62.0688528,180.45198 63.8511315,182.202662 65.8779686,181.988172 L65.8779686,181.988172 Z"></path>
        <path id="path-26" d="M117.231159,213.397567 C119.257996,213.183077 120.76187,211.084638 120.590155,208.710572 C120.41844,206.336507 118.636161,204.585824 116.609324,204.800314 C114.582487,205.014804 113.078613,207.113243 113.250328,209.487309 C113.422043,211.861375 115.204322,213.612057 117.231159,213.397567 L117.231159,213.397567 Z"></path>
        <path id="path-27" d="M137.255515,9.20039684 C139.282352,8.98590695 140.786225,6.88746789 140.61451,4.51340201 C140.442795,2.13933613 138.660517,0.38865388 136.63368,0.603143768 C134.606842,0.817633657 133.102969,2.91607272 133.274684,5.2901386 C133.446399,7.66420448 135.228678,9.41488673 137.255515,9.20039684 L137.255515,9.20039684 Z"></path>
        <ellipse id="path-28" cx="424.5" cy="614.5" rx="193.381562" ry="199.842998"></ellipse>
        <radialGradient cx="64.470991%" cy="19.1970821%" fx="64.470991%" fy="19.1970821%" r="79.0865058%" id="radialGradient-29">
            <stop stop-color="#2A6E09" stop-opacity="0" offset="0%"></stop>
            <stop stop-color="#308706" stop-opacity="0.4" offset="100%"></stop>
        </radialGradient>
        <radialGradient cx="63.3391278%" cy="27.2593148%" fx="63.3391278%" fy="27.2593148%" r="89.3242021%" id="radialGradient-30">
            <stop stop-color="#FFEF6E" stop-opacity="0.30078125" offset="0%"></stop>
            <stop stop-color="#C6FA6E" stop-opacity="0.112969882" offset="67.7734375%"></stop>
            <stop stop-color="#BAFF6E" stop-opacity="0" offset="100%"></stop>
        </radialGradient>
        <radialGradient cx="31.053984%" cy="-4.95299426%" fx="31.053984%" fy="-4.95299426%" r="60.6370397%" id="radialGradient-31">
            <stop stop-color="#FFEF6E" stop-opacity="0.30078125" offset="0%"></stop>
            <stop stop-color="#C6FA6E" stop-opacity="0.112969882" offset="67.7734375%"></stop>
            <stop stop-color="#BAFF6E" stop-opacity="0" offset="100%"></stop>
        </radialGradient>
        <path d="M786.832495,512.47787 C782.913334,510.030707 778.862962,507.26618 774.777863,503.818836 C751.616662,484.273501 739.479623,463.340668 704.748849,395.739448 C681.909462,351.284049 619.167727,303.453375 534.988172,280.156541 L534.988143,280.156534 L529.558447,85.6879186 C529.036204,79.0242374 512.493191,71.9986621 506.541885,72.5799043 C500.578445,73.1623317 496.167152,79.0322336 496.688768,85.6879191 L511.480431,274.425327 C477.377979,267.211957 440.303709,264.071085 401.334806,266.630875 L398.002601,224.11285 C397.102612,212.629229 388.034109,204.134346 377.74248,205.139491 C367.453114,206.144416 359.841435,216.2673 360.74151,227.752004 L364.097381,270.571993 L364.097341,270.571999 C314.560818,277.539021 266.644555,290.998067 223.588437,311.094978 L223.588436,311.09497 C217.662595,235.482883 201.786519,32.9085734 201.786519,32.9085739 C199.985771,9.9315161 191.654257,-1.28510465 164.383281,1.37835146 L79.3688508,9.68139858 C76.7345258,9.93868343 74.7762909,12.5352193 75.0070582,15.4797471 L81.5735368,99.266203 C81.8047001,102.215784 84.1321363,104.388662 86.7728956,104.130749 L133.577029,99.5595589 C136.217717,99.3016524 138.546145,101.48627 138.777559,104.439054 L158.015897,349.914945 C102.236664,391.423261 61.688475,448.370849 47.6606861,521.265892 C37.2906447,575.153546 -7.99633953,600.804732 1.23258949,650.551061 C10.4615185,700.29739 26.7429865,683.920658 43.5618561,734.037594 C88.1117823,866.787647 257.239111,978.091735 443.477306,960.080384 C599.571265,944.984324 689.455658,871.772285 728.54485,780.101853 C767.634043,688.431422 760.660786,691.460176 777.598727,653.578623 C782.698331,642.173404 789.175533,633.274428 795.647284,625.253282 L804.332091,736.365729 C804.794731,742.284685 809.452094,746.648554 814.736041,746.131109 L868.497957,740.866322 C873.777515,740.349306 877.690869,735.137822 877.228873,729.227106 L853.15597,421.241104 C852.693331,415.322147 848.035968,410.958278 842.752021,411.475724 L788.990105,416.740511 C783.710547,417.257526 779.797193,422.469011 780.259188,428.379726 L786.832495,512.47787 L786.832495,512.47787 Z M432.601472,783.227812 C526.132606,775.044898 595.321008,692.589371 587.138094,599.058237 C578.95518,505.527103 496.499653,436.338701 402.968519,444.521615 C309.437386,452.704529 240.248983,535.160056 248.431897,628.69119 C256.614811,722.222323 339.070338,791.410726 432.601472,783.227812 Z" id="path-32"></path>
    </defs>
    <g id="Page-1" stroke="none" stroke-width="1" fill="none" fill-rule="evenodd" sketch:type="MSPage">
        <g id="sublime" sketch:type="MSLayerGroup" transform="translate(23.000000, 21.000000)">
            <g id="back-porthole">
                <use fill-opacity="0.2" fill="#FFFFFF" sketch:type="MSShapeGroup" xlink:href="#path-2"></use>
                <use fill="url(#radialGradient-1)" xlink:href="#path-2"></use>
            </g>
            <path d="M379.567034,601.98379 L427.250469,581.145753 C428.376855,580.645137 429.221632,580.332257 429.784825,580.207103 C430.348018,580.081949 430.879915,580.019373 431.380531,580.019373 C432.632071,580.019373 433.633288,580.488693 434.384212,581.427348 C435.135136,582.366003 436.073776,584.462301 437.200162,587.716305 L442.268874,603.48563 C442.76949,604.862324 443.144946,606.145134 443.395254,607.334097 C443.645562,608.52306 443.770715,609.430413 443.770715,610.056183 C443.770715,611.182569 443.301394,612.12121 442.362739,612.872134 C441.424084,613.623058 439.953547,614.186242 437.951083,614.561704 L387.263966,625.450048 L421.806297,664.4979 C422.682375,665.373978 423.370712,666.281331 423.871328,667.219986 C424.371944,668.158641 424.622248,669.065994 424.622248,669.942072 C424.622248,670.567842 424.059064,671.412619 422.932678,672.476428 C421.806292,673.540237 420.304466,674.76047 418.427156,676.137164 L405.286052,685.711397 C403.909358,686.837783 402.595261,687.68256 401.343721,688.245753 C400.092181,688.808946 399.090964,689.090538 398.34004,689.090538 C397.589116,689.090538 396.775627,688.715082 395.899549,687.964158 C395.023471,687.213234 394.209982,686.212017 393.459058,684.960477 L367.17685,640.280722 L341.082371,684.960477 C340.206293,686.462325 339.361516,687.526118 338.548015,688.151888 C337.734514,688.777658 336.952313,689.090538 336.201389,689.090538 C335.450465,689.090538 334.41796,688.74637 333.103843,688.058023 C331.789726,687.369676 330.381765,686.462323 328.879917,685.335937 L315.738813,675.761704 C313.736349,674.38501 312.265811,673.196065 311.327156,672.194833 C310.388501,671.193601 309.919181,670.317536 309.919181,669.566612 C309.919181,668.690534 310.169485,667.783181 310.670101,666.844526 C311.170717,665.905871 311.859054,664.998518 312.735132,664.12244 L347.652923,625.825508 L296.965807,614.561704 C294.963343,614.186242 293.430229,613.59177 292.36642,612.778269 C291.302611,611.964768 290.770715,611.057415 290.770715,610.056183 C290.770715,609.430413 290.895867,608.460484 291.146175,607.146367 C291.396483,605.83225 291.771939,604.486864 292.272555,603.11017 L297.716727,587.716305 C299.468883,582.459839 301.221013,580.019373 302.973169,580.019373 C303.724093,580.019373 304.506293,580.113237 305.319794,580.300968 C306.133295,580.488699 306.915496,580.770291 307.66642,581.145753 L354.598935,602.73471 L349.154764,550.358023 L349.154764,548.480722 C349.154764,546.22795 349.780524,544.694837 351.032064,543.881336 C352.283604,543.067835 354.849223,542.661091 358.728997,542.661091 L375.249242,542.661091 C379.003862,542.661091 381.506905,543.067835 382.758445,543.881336 C384.009985,544.694837 384.635745,546.22795 384.635745,548.480722 L384.635745,550.358023 L379.567034,601.98379 Z M505.65142,641.071127 L540.514701,641.071127 C542.077209,641.071127 543.322314,641.364093 544.250053,641.950033 C545.177792,642.535974 545.641654,643.317216 545.641654,644.293783 C545.641654,644.782067 545.519585,645.392412 545.275443,646.124838 C545.031302,646.857263 544.713922,647.66292 544.323295,648.54183 L500.524467,734.381674 C499.84087,735.944182 498.864317,737.189286 497.594779,738.117025 C496.325242,739.044764 494.90924,739.508627 493.346732,739.508627 C492.956106,739.508627 492.492243,739.435386 491.955131,739.2889 C491.418019,739.142415 490.905329,739.020346 490.417045,738.92269 L479.284232,734.967611 C477.624068,734.381671 476.354549,733.576015 475.475639,732.550619 C474.596728,731.525223 474.157279,730.426602 474.157279,729.254721 C474.157279,728.180497 474.181693,727.374841 474.230522,726.837729 C474.27935,726.300617 474.352591,725.787926 474.450248,725.299643 L495.251029,649.127768 C496.12994,645.807439 497.277389,643.634609 498.693412,642.609213 C500.109435,641.583817 502.428748,641.071127 505.65142,641.071127 L505.65142,641.071127 Z M512.243217,560.651205 C521.42295,560.651205 528.820337,563.165828 534.4356,568.19515 C540.050862,573.224472 542.858451,579.79179 542.858451,587.897299 C542.858451,596.198122 540.050862,602.936336 534.4356,608.112143 C528.820337,613.28795 521.42295,615.875815 512.243217,615.875815 C503.258797,615.875815 495.959065,613.28795 490.343803,608.112143 C484.72854,602.936336 481.920951,596.198122 481.920951,587.897299 C481.920951,579.889446 484.72854,573.346543 490.343803,568.268393 C495.959065,563.190242 503.258797,560.651205 512.243217,560.651205 L512.243217,560.651205 Z" id="*;-shapes" stroke="#4A4A4A" stroke-width="12" fill="#FFFFFF" sketch:type="MSShapeGroup" transform="translate(418.206184, 641.084859) rotate(-5.000000) translate(-418.206184, -641.084859) "></path>
            <path d="M786.832495,512.47787 C782.913334,510.030707 778.862962,507.26618 774.777863,503.818836 C751.616662,484.273501 739.479623,463.340668 704.748849,395.739448 C681.789674,351.050889 618.508491,302.951556 533.661886,279.792007 L533.66184,279.791995 L518.285254,83.5909885 C517.763011,76.9273073 512.493191,71.9986621 506.541885,72.5799043 C500.578445,73.1623317 496.167152,79.0322336 496.688768,85.6879191 L511.480431,274.425327 C477.377979,267.211957 440.303709,264.071085 401.334806,266.630875 L398.002601,224.11285 C397.102612,212.629229 388.034109,204.134346 377.74248,205.139491 C367.453114,206.144416 359.841435,216.2673 360.74151,227.752004 L364.097381,270.571993 L364.097341,270.571999 C314.560818,277.539021 266.644555,290.998067 223.588437,311.094978 L223.588436,311.09497 C217.662595,235.482883 201.786519,32.9085734 201.786519,32.9085739 C199.985771,9.9315161 191.654257,-1.28510465 164.383281,1.37835146 L79.3688508,9.68139858 C76.7345258,9.93868343 74.7762909,12.5352193 75.0070582,15.4797471 L81.5735368,99.266203 C81.8047001,102.215784 84.1321363,104.388662 86.7728956,104.130749 L133.577029,99.5595589 C136.217717,99.3016524 138.546145,101.48627 138.777559,104.439054 L158.015897,349.914945 C102.236664,391.423261 61.688475,448.370849 47.6606861,521.265892 C37.2906447,575.153546 -7.99633953,600.804732 1.23258949,650.551061 C10.4615185,700.29739 26.7429865,683.920658 43.5618561,734.037594 C88.1117823,866.787647 257.239111,978.091735 443.477306,960.080384 C599.571265,944.984324 689.455658,871.772285 728.54485,780.101853 C767.634043,688.431422 760.660786,691.460176 777.598727,653.578623 C782.698331,642.173404 789.175533,633.274428 795.647284,625.253282 L804.332091,736.365729 C804.794731,742.284685 809.452094,746.648554 814.736041,746.131109 L868.497957,740.866322 C873.777515,740.349306 877.690869,735.137822 877.228873,729.227106 L853.15597,421.241104 C852.693331,415.322147 848.035968,410.958278 842.752021,411.475724 L788.990105,416.740511 C783.710547,417.257526 779.797193,422.469011 780.259188,428.379726 L786.832495,512.47787 L786.832495,512.47787 Z M404,904.050775 C585.149398,904.050775 732,774.884925 732,615.550775 C732,456.216624 585.149398,327.050775 404,327.050775 C222.850602,327.050775 76,456.216624 76,615.550775 C76,774.884925 222.850602,904.050775 404,904.050775 Z" id="sub-shadow" fill="white" filter="url(#filter-3)" sketch:type="MSShapeGroup"></path>
            <g id="bubbles" transform="translate(833.536307, 173.898869)">
                <g id="Oval-4">
                    <use fill-opacity="0.6" fill="#FFFFFF" sketch:type="MSShapeGroup" xlink:href="#path-5"></use>
                    <use fill="url(#radialGradient-4)" xlink:href="#path-5"></use>
                    <use fill-opacity="0.15" fill="#00A2FF" xlink:href="#path-5"></use>
                </g>
                <g id="Oval-5">
                    <use fill-opacity="0.6" fill="#FFFFFF" sketch:type="MSShapeGroup" xlink:href="#path-6"></use>
                    <use fill="url(#radialGradient-4)" xlink:href="#path-6"></use>
                    <use fill-opacity="0.15" fill="#00A2FF" xlink:href="#path-6"></use>
                </g>
                <g id="Oval-6">
                    <use fill-opacity="0.6" fill="#FFFFFF" sketch:type="MSShapeGroup" xlink:href="#path-7"></use>
                    <use fill="url(#radialGradient-4)" xlink:href="#path-7"></use>
                    <use fill-opacity="0.15" fill="#00A2FF" xlink:href="#path-7"></use>
                </g>
                <g id="Oval-7">
                    <use fill-opacity="0.6" fill="#FFFFFF" sketch:type="MSShapeGroup" xlink:href="#path-8"></use>
                    <use fill="url(#radialGradient-4)" xlink:href="#path-8"></use>
                    <use fill-opacity="0.15" fill="#00A2FF" xlink:href="#path-8"></use>
                </g>
                <g id="Oval-9">
                    <use fill-opacity="0.6" fill="#FFFFFF" sketch:type="MSShapeGroup" xlink:href="#path-9"></use>
                    <use fill="url(#radialGradient-4)" xlink:href="#path-9"></use>
                    <use fill-opacity="0.15" fill="#00A2FF" xlink:href="#path-9"></use>
                </g>
                <g id="Oval-11">
                    <use fill-opacity="0.6" fill="#FFFFFF" sketch:type="MSShapeGroup" xlink:href="#path-10"></use>
                    <use fill="url(#radialGradient-4)" xlink:href="#path-10"></use>
                    <use fill-opacity="0.15" fill="#00A2FF" xlink:href="#path-10"></use>
                </g>
                <g id="Oval-20">
                    <use fill-opacity="0.6" fill="#FFFFFF" sketch:type="MSShapeGroup" xlink:href="#path-11"></use>
                    <use fill="url(#radialGradient-4)" xlink:href="#path-11"></use>
                    <use fill-opacity="0.15" fill="#00A2FF" xlink:href="#path-11"></use>
                </g>
                <g id="Oval-8">
                    <use fill-opacity="0.6" fill="#FFFFFF" sketch:type="MSShapeGroup" xlink:href="#path-12"></use>
                    <use fill="url(#radialGradient-4)" xlink:href="#path-12"></use>
                    <use fill-opacity="0.15" fill="#00A2FF" xlink:href="#path-12"></use>
                </g>
                <g id="Oval-21">
                    <use fill-opacity="0.6" fill="#FFFFFF" sketch:type="MSShapeGroup" xlink:href="#path-13"></use>
                    <use fill="url(#radialGradient-4)" xlink:href="#path-13"></use>
                    <use fill-opacity="0.15" fill="#00A2FF" xlink:href="#path-13"></use>
                </g>
                <g id="Oval-23">
                    <use fill-opacity="0.6" fill="#FFFFFF" sketch:type="MSShapeGroup" xlink:href="#path-14"></use>
                    <use fill="url(#radialGradient-4)" xlink:href="#path-14"></use>
                    <use fill-opacity="0.15" fill="#00A2FF" xlink:href="#path-14"></use>
                </g>
                <g id="Oval-24">
                    <use fill-opacity="0.6" fill="#FFFFFF" sketch:type="MSShapeGroup" xlink:href="#path-15"></use>
                    <use fill="url(#radialGradient-4)" xlink:href="#path-15"></use>
                    <use fill-opacity="0.15" fill="#00A2FF" xlink:href="#path-15"></use>
                </g>
                <g id="Oval-25">
                    <use fill-opacity="0.6" fill="#FFFFFF" sketch:type="MSShapeGroup" xlink:href="#path-16"></use>
                    <use fill="url(#radialGradient-4)" xlink:href="#path-16"></use>
                    <use fill-opacity="0.15" fill="#00A2FF" xlink:href="#path-16"></use>
                </g>
                <g id="Oval-26">
                    <use fill-opacity="0.6" fill="#FFFFFF" sketch:type="MSShapeGroup" xlink:href="#path-17"></use>
                    <use fill="url(#radialGradient-4)" xlink:href="#path-17"></use>
                    <use fill-opacity="0.15" fill="#00A2FF" xlink:href="#path-17"></use>
                </g>
                <g id="Oval-22">
                    <use fill-opacity="0.6" fill="#FFFFFF" sketch:type="MSShapeGroup" xlink:href="#path-18"></use>
                    <use fill="url(#radialGradient-4)" xlink:href="#path-18"></use>
                    <use fill-opacity="0.15" fill="#00A2FF" xlink:href="#path-18"></use>
                </g>
                <g id="Oval-27">
                    <use fill-opacity="0.6" fill="#FFFFFF" sketch:type="MSShapeGroup" xlink:href="#path-19"></use>
                    <use fill="url(#radialGradient-4)" xlink:href="#path-19"></use>
                    <use fill-opacity="0.15" fill="#00A2FF" xlink:href="#path-19"></use>
                </g>
                <g id="Oval-12">
                    <use fill-opacity="0.6" fill="#FFFFFF" sketch:type="MSShapeGroup" xlink:href="#path-20"></use>
                    <use fill="url(#radialGradient-4)" xlink:href="#path-20"></use>
                    <use fill-opacity="0.15" fill="#00A2FF" xlink:href="#path-20"></use>
                </g>
                <g id="Oval-13">
                    <use fill-opacity="0.6" fill="#FFFFFF" sketch:type="MSShapeGroup" xlink:href="#path-21"></use>
                    <use fill="url(#radialGradient-4)" xlink:href="#path-21"></use>
                    <use fill-opacity="0.15" fill="#00A2FF" xlink:href="#path-21"></use>
                </g>
                <g id="Oval-14">
                    <use fill-opacity="0.6" fill="#FFFFFF" sketch:type="MSShapeGroup" xlink:href="#path-22"></use>
                    <use fill="url(#radialGradient-4)" xlink:href="#path-22"></use>
                    <use fill-opacity="0.15" fill="#00A2FF" xlink:href="#path-22"></use>
                </g>
                <g id="Oval-15">
                    <use fill-opacity="0.6" fill="#FFFFFF" sketch:type="MSShapeGroup" xlink:href="#path-23"></use>
                    <use fill="url(#radialGradient-4)" xlink:href="#path-23"></use>
                    <use fill-opacity="0.15" fill="#00A2FF" xlink:href="#path-23"></use>
                </g>
                <g id="Oval-17">
                    <use fill-opacity="0.6" fill="#FFFFFF" sketch:type="MSShapeGroup" xlink:href="#path-24"></use>
                    <use fill="url(#radialGradient-4)" xlink:href="#path-24"></use>
                    <use fill-opacity="0.15" fill="#00A2FF" xlink:href="#path-24"></use>
                </g>
                <g id="Oval-18">
                    <use fill-opacity="0.6" fill="#FFFFFF" sketch:type="MSShapeGroup" xlink:href="#path-25"></use>
                    <use fill="url(#radialGradient-4)" xlink:href="#path-25"></use>
                    <use fill-opacity="0.15" fill="#00A2FF" xlink:href="#path-25"></use>
                </g>
                <g id="Oval-19">
                    <use fill-opacity="0.6" fill="#FFFFFF" sketch:type="MSShapeGroup" xlink:href="#path-26"></use>
                    <use fill="url(#radialGradient-4)" xlink:href="#path-26"></use>
                    <use fill-opacity="0.15" fill="#00A2FF" xlink:href="#path-26"></use>
                </g>
                <g id="Oval-16">
                    <use fill-opacity="0.6" fill="#FFFFFF" sketch:type="MSShapeGroup" xlink:href="#path-27"></use>
                    <use fill="url(#radialGradient-4)" xlink:href="#path-27"></use>
                    <use fill-opacity="0.15" fill="#00A2FF" xlink:href="#path-27"></use>
                </g>
            </g>
            <g id="translucent-porthole-fg">
                <use fill-opacity="0.2" fill="#FFFFFF" fill-rule="evenodd" sketch:type="MSShapeGroup" xlink:href="#path-28"></use>
                <use fill="none" xlink:href="#path-28"></use>
            </g>
            <g id="porthole-highlights" transform="translate(257.081263, 479.496570)" fill-opacity="0.5" fill="#FFFFFF" sketch:type="MSShapeGroup">
                <path d="M0.360731675,125.856091 C0.360731675,125.856091 -7.53235959,249.219289 110.058325,285.502774 C126.485146,285.502774 104.456765,269.608242 104.456765,269.608242 C104.456765,269.608242 40.6179549,223.592625 46.3015487,147.209812 C28.7825358,126.508546 0.360731675,125.856091 0.360731675,125.856091 Z" id="Path-43"></path>
                <path d="M4.49542246,105.364824 C4.49542246,105.364824 28.3195855,99.3355789 50.0085793,123.811375 C41.4883309,63.065281 87.0398332,9.3816873 87.0398332,9.3816873 C87.0398332,9.3816873 87.0398332,-3.62221895 73.3757677,2.3191873 C4.49542246,48.9637181 4.49542246,105.364824 4.49542246,105.364824 Z" id="Path-44"></path>
            </g>
            <g id="sub">
                <use fill="none" sketch:type="MSShapeGroup" xlink:href="#path-32"></use>
                <use fill="#8AEC1E" fill-rule="evenodd" xlink:href="#path-32"></use>
                <use fill-opacity="0.85" fill="url(#radialGradient-29)" fill-rule="evenodd" xlink:href="#path-32"></use>
                <use fill="url(#radialGradient-30)" fill-rule="evenodd" xlink:href="#path-32"></use>
                <use fill="url(#radialGradient-31)" fill-rule="evenodd" xlink:href="#path-32"></use>
                <use fill="none" xlink:href="#path-32"></use>
            </g>
        </g>
    </g>
</svg>